G04 #@! TF.GenerationSoftware,KiCad,Pcbnew,(5.0.2)-1*
G04 #@! TF.CreationDate,2020-11-28T21:44:54+10:00*
G04 #@! TF.ProjectId,trailer leveler,74726169-6c65-4722-906c-6576656c6572,1*
G04 #@! TF.SameCoordinates,Original*
G04 #@! TF.FileFunction,Copper,L2,Bot*
G04 #@! TF.FilePolarity,Positive*
%FSLAX46Y46*%
G04 Gerber Fmt 4.6, Leading zero omitted, Abs format (unit mm)*
G04 Created by KiCad (PCBNEW (5.0.2)-1) date 28/11/2020 9:44:54 PM*
%MOMM*%
%LPD*%
G01*
G04 APERTURE LIST*
G04 #@! TA.AperFunction,ComponentPad*
%ADD10O,1.700000X1.700000*%
G04 #@! TD*
G04 #@! TA.AperFunction,ComponentPad*
%ADD11R,1.700000X1.700000*%
G04 #@! TD*
G04 #@! TA.AperFunction,ViaPad*
%ADD12C,0.600000*%
G04 #@! TD*
G04 #@! TA.AperFunction,Conductor*
%ADD13C,0.250000*%
G04 #@! TD*
G04 #@! TA.AperFunction,Conductor*
%ADD14C,0.254000*%
G04 #@! TD*
G04 APERTURE END LIST*
D10*
G04 #@! TO.P,J1,6*
G04 #@! TO.N,MISO*
X10414000Y-14478000D03*
G04 #@! TO.P,J1,5*
G04 #@! TO.N,3.3V*
X12954000Y-14478000D03*
G04 #@! TO.P,J1,4*
G04 #@! TO.N,SCK*
X10414000Y-17018000D03*
G04 #@! TO.P,J1,3*
G04 #@! TO.N,MOSI*
X12954000Y-17018000D03*
G04 #@! TO.P,J1,2*
G04 #@! TO.N,RST*
X10414000Y-19558000D03*
D11*
G04 #@! TO.P,J1,1*
G04 #@! TO.N,GNDD*
X12954000Y-19558000D03*
G04 #@! TD*
G04 #@! TO.P,J3,1*
G04 #@! TO.N,3.3V*
X11938000Y8890000D03*
D10*
G04 #@! TO.P,J3,2*
G04 #@! TO.N,GNDD*
X11938000Y6350000D03*
G04 #@! TO.P,J3,3*
G04 #@! TO.N,SCL*
X11938000Y3810000D03*
G04 #@! TO.P,J3,4*
G04 #@! TO.N,SDA*
X11938000Y1270000D03*
G04 #@! TO.P,J3,5*
G04 #@! TO.N,Net-(J3-Pad5)*
X11938000Y-1270000D03*
G04 #@! TO.P,J3,6*
G04 #@! TO.N,Net-(J3-Pad6)*
X11938000Y-3810000D03*
G04 #@! TO.P,J3,7*
G04 #@! TO.N,Net-(J3-Pad7)*
X11938000Y-6350000D03*
G04 #@! TO.P,J3,8*
G04 #@! TO.N,MPU_INT*
X11938000Y-8890000D03*
G04 #@! TD*
D11*
G04 #@! TO.P,J4,1*
G04 #@! TO.N,3.3V*
X-12446000Y25400000D03*
D10*
G04 #@! TO.P,J4,2*
G04 #@! TO.N,GNDD*
X-12446000Y22860000D03*
G04 #@! TO.P,J4,3*
G04 #@! TO.N,BTTX*
X-12446000Y20320000D03*
G04 #@! TO.P,J4,4*
G04 #@! TO.N,BTRX*
X-12446000Y17780000D03*
G04 #@! TD*
D11*
G04 #@! TO.P,J6,1*
G04 #@! TO.N,pin14*
X-2413000Y-26098500D03*
D10*
G04 #@! TO.P,J6,2*
G04 #@! TO.N,pin13*
X-4953000Y-26098500D03*
G04 #@! TO.P,J6,3*
G04 #@! TO.N,pin12*
X-7493000Y-26098500D03*
G04 #@! TO.P,J6,4*
G04 #@! TO.N,pin11*
X-10033000Y-26098500D03*
G04 #@! TO.P,J6,5*
G04 #@! TO.N,pin10*
X-12573000Y-26098500D03*
G04 #@! TD*
D11*
G04 #@! TO.P,J7,1*
G04 #@! TO.N,pin26*
X25209500Y18669000D03*
D10*
G04 #@! TO.P,J7,2*
G04 #@! TO.N,pin25*
X25209500Y16129000D03*
G04 #@! TO.P,J7,3*
G04 #@! TO.N,pin24*
X25209500Y13589000D03*
G04 #@! TO.P,J7,4*
G04 #@! TO.N,pin23*
X25209500Y11049000D03*
G04 #@! TD*
D12*
G04 #@! TO.N,GNDD*
X-20828000Y-14986000D03*
X-18288000Y-7874000D03*
X-6096000Y-9906000D03*
X15494000Y17272000D03*
X3937000Y-19558000D03*
X-3683000Y-19431000D03*
X-7493000Y-19431000D03*
X127000Y-19621500D03*
X8636000Y16383000D03*
X4572000Y20637500D03*
X10541000Y20637500D03*
X-16827500Y19367500D03*
X-11049000Y13589000D03*
X-21018500Y8699500D03*
X-8001000Y-3175000D03*
X-11620500Y1333500D03*
X-14668500Y8382000D03*
X9271000Y7239000D03*
X5715000Y3175000D03*
X13335000Y11176000D03*
X635000Y-11557000D03*
X-1270000Y-13970000D03*
X-3810000Y-15367000D03*
X-4191000Y-16764000D03*
X-15113000Y-16510000D03*
X-15367000Y-17907000D03*
X-15621000Y-19685000D03*
X-17526000Y-19558000D03*
X-17145000Y-17780000D03*
X-17780000Y-15748000D03*
X-25019000Y-4699000D03*
X-25908000Y-3937000D03*
X-26289000Y-3175000D03*
X-20193000Y2413000D03*
X-17653000Y2413000D03*
X-15494000Y1778000D03*
X-14224000Y889000D03*
X-9144000Y1778000D03*
X-2159000Y20320000D03*
X-2667000Y17907000D03*
X-2667000Y17907000D03*
X-2667000Y17907000D03*
X-635000Y15367000D03*
X0Y13081000D03*
X-381000Y11303000D03*
X-1143000Y10033000D03*
X1143000Y15748000D03*
X2921000Y16891000D03*
X4064000Y16891000D03*
X1524000Y19050000D03*
X-25019000Y18034000D03*
X-11684000Y5969000D03*
X-7874000Y5461000D03*
X-11557000Y7620000D03*
G04 #@! TO.N,3.3V*
X-16256000Y11938000D03*
X-16256000Y13716000D03*
G04 #@! TO.N,VUSB*
X-14986000Y-4445000D03*
X-12890500Y-2159000D03*
G04 #@! TO.N,MISO*
X3371000Y-17054329D03*
X5080000Y-16393000D03*
G04 #@! TO.N,RST*
X9144000Y11938000D03*
X4064000Y11938000D03*
G04 #@! TO.N,SDA*
X8636000Y4572000D03*
X1016000Y4826000D03*
G04 #@! TO.N,SCL*
X254000Y4064000D03*
X9261000Y3810000D03*
G04 #@! TO.N,Net-(D3-Pad1)*
X-6604000Y7620000D03*
X2032000Y5197000D03*
X-2911000Y4826000D03*
X-1661000Y4826000D03*
G04 #@! TO.N,SCK*
X3496716Y-17961168D03*
X5588000Y-17018000D03*
G04 #@! TO.N,MOSI*
X5713962Y-15768000D03*
X2867500Y-14795500D03*
G04 #@! TO.N,Net-(R6-Pad2)*
X-7496001Y-1143000D03*
X-4071000Y-1206500D03*
G04 #@! TO.N,BTTX*
X-3048000Y13970000D03*
X-3048000Y11938000D03*
G04 #@! TO.N,MPU_INT*
X-4064000Y8509000D03*
X8504481Y5361117D03*
X10531000Y4635500D03*
G04 #@! TO.N,BT*
X6723235Y3035119D03*
X5842000Y1524000D03*
G04 #@! TO.N,pin26*
X1778000Y9144000D03*
G04 #@! TO.N,pin25*
X2794000Y9271000D03*
G04 #@! TO.N,pin24*
X4826000Y7747000D03*
G04 #@! TO.N,pin23*
X5715000Y8001000D03*
G04 #@! TD*
D13*
G04 #@! TO.N,3.3V*
X-16256000Y11938000D02*
X-16256000Y13716000D01*
G04 #@! TO.N,VUSB*
X-14986000Y-4445000D02*
X-12890500Y-2349500D01*
X-12890500Y-2349500D02*
X-12890500Y-2159000D01*
G04 #@! TO.N,MISO*
X4032329Y-16393000D02*
X5080000Y-16393000D01*
X3371000Y-17054329D02*
X4032329Y-16393000D01*
G04 #@! TO.N,RST*
X9144000Y11938000D02*
X4064000Y11938000D01*
X9144000Y9398998D02*
X9906000Y8636998D01*
X9144000Y11938000D02*
X9144000Y9398998D01*
X9906000Y3529998D02*
X8128000Y1751998D01*
X9906000Y8636998D02*
X9906000Y3529998D01*
X8128000Y1751998D02*
X8128000Y-19304000D01*
X8382000Y-19558000D02*
X10414000Y-19558000D01*
X8128000Y-19304000D02*
X8382000Y-19558000D01*
G04 #@! TO.N,SDA*
X8636000Y4572000D02*
X1270000Y4572000D01*
X1270000Y4572000D02*
X1016000Y4826000D01*
G04 #@! TO.N,SCL*
X508000Y3810000D02*
X254000Y4064000D01*
X9261000Y3810000D02*
X508000Y3810000D01*
G04 #@! TO.N,Net-(D3-Pad1)*
X-6604000Y7620000D02*
X-5080000Y7620000D01*
X-5080000Y7620000D02*
X-3048000Y5588000D01*
X1641000Y5588000D02*
X2032000Y5197000D01*
X-3048000Y5588000D02*
X-3048000Y4963000D01*
X-3048000Y4963000D02*
X-2911000Y4826000D01*
X-1270000Y5217000D02*
X-1661000Y4826000D01*
X-1270000Y5588000D02*
X-1270000Y5217000D01*
X-1270000Y5588000D02*
X1641000Y5588000D01*
G04 #@! TO.N,SCK*
X4439884Y-17018000D02*
X3496716Y-17961168D01*
X5588000Y-17018000D02*
X4439884Y-17018000D01*
G04 #@! TO.N,MOSI*
X3415736Y-15768000D02*
X3746500Y-15768000D01*
X2867500Y-15219764D02*
X3415736Y-15768000D01*
X2867500Y-14795500D02*
X2867500Y-15219764D01*
X5713962Y-15768000D02*
X3746500Y-15768000D01*
G04 #@! TO.N,Net-(R6-Pad2)*
X-4134500Y-1143000D02*
X-4071000Y-1206500D01*
X-7496001Y-1143000D02*
X-4134500Y-1143000D01*
G04 #@! TO.N,BTTX*
X-3048000Y13970000D02*
X-3048000Y11938000D01*
G04 #@! TO.N,MPU_INT*
X7656383Y5361117D02*
X8504481Y5361117D01*
X10531000Y-7483000D02*
X11938000Y-8890000D01*
X10531000Y4635500D02*
X10531000Y-7483000D01*
X-4064000Y8509000D02*
X2413000Y8509000D01*
X5560883Y5361117D02*
X8504481Y5361117D01*
X2413000Y8509000D02*
X5560883Y5361117D01*
G04 #@! TO.N,BT*
X6723235Y3035119D02*
X6723235Y2405235D01*
X6723235Y2405235D02*
X5842000Y1524000D01*
G04 #@! TO.N,pin26*
X23685500Y18245000D02*
X24109500Y18669000D01*
X22415500Y14033500D02*
X23685500Y15303500D01*
X23685500Y15303500D02*
X23685500Y18245000D01*
X22415500Y12954000D02*
X22415500Y14033500D01*
X22034500Y12573000D02*
X22415500Y12954000D01*
X15623820Y12573000D02*
X22034500Y12573000D01*
X24109500Y18669000D02*
X25209500Y18669000D01*
X1778000Y9650590D02*
X1397000Y10031590D01*
X1778000Y9144000D02*
X1778000Y9650590D01*
X1397000Y10031590D02*
X1397000Y12255500D01*
X1397000Y12255500D02*
X3117010Y13975510D01*
X3117010Y13975510D02*
X14221310Y13975510D01*
X14221310Y13975510D02*
X15623820Y12573000D01*
G04 #@! TO.N,pin25*
X1905000Y10160000D02*
X1905000Y12066410D01*
X22923500Y13843000D02*
X25209500Y16129000D01*
X1905000Y12066410D02*
X3364090Y13525500D01*
X2794000Y9271000D02*
X1905000Y10160000D01*
X3364090Y13525500D02*
X14034910Y13525500D01*
X14034910Y13525500D02*
X15495410Y12065000D01*
X22542500Y12065000D02*
X22606000Y12065000D01*
X15495410Y12065000D02*
X22542500Y12065000D01*
X22923500Y12382500D02*
X22923500Y13843000D01*
X22606000Y12065000D02*
X22923500Y12382500D01*
G04 #@! TO.N,pin24*
X23177500Y11557000D02*
X25209500Y13589000D01*
X15367000Y11557000D02*
X23177500Y11557000D01*
X4826000Y8128000D02*
X2540000Y10414000D01*
X4826000Y7747000D02*
X4826000Y8128000D01*
X2540000Y12065000D02*
X3488011Y13013011D01*
X3488011Y13013011D02*
X13910989Y13013011D01*
X2540000Y10414000D02*
X2540000Y12065000D01*
X13910989Y13013011D02*
X15367000Y11557000D01*
G04 #@! TO.N,pin23*
X15113000Y11049000D02*
X25209500Y11049000D01*
X13598999Y12563001D02*
X15113000Y11049000D01*
X3763999Y12563001D02*
X13598999Y12563001D01*
X3048000Y11847002D02*
X3763999Y12563001D01*
X5715000Y8001000D02*
X3048000Y10668000D01*
X3048000Y10668000D02*
X3048000Y11847002D01*
G04 #@! TD*
D14*
G04 #@! TO.N,GNDD*
G36*
X-7239000Y21844000D02*
X-7229333Y21795399D01*
X-7201803Y21754197D01*
X-7160601Y21726667D01*
X-7112000Y21717000D01*
X7620000Y21717000D01*
X7668601Y21726667D01*
X7709803Y21754197D01*
X7737333Y21795399D01*
X7747000Y21844000D01*
X7747000Y27265000D01*
X13451831Y27265000D01*
X13696356Y27232808D01*
X13879328Y27157018D01*
X14036454Y27036451D01*
X14157018Y26879329D01*
X14232808Y26696356D01*
X14265000Y26451831D01*
X14265001Y23024059D01*
X14261840Y22975833D01*
X14265001Y22951823D01*
X14265001Y22927612D01*
X14274427Y22880224D01*
X14306561Y22636143D01*
X14301713Y22611771D01*
X14325538Y22491993D01*
X14331848Y22444067D01*
X14339634Y22421130D01*
X14344359Y22397376D01*
X14362855Y22352722D01*
X14402113Y22237072D01*
X14418498Y22218388D01*
X14475474Y22080838D01*
X14477099Y22056042D01*
X14531115Y21946509D01*
X14549613Y21901850D01*
X14563069Y21881711D01*
X14573781Y21859990D01*
X14603205Y21821643D01*
X14671058Y21720095D01*
X14691720Y21706289D01*
X14782355Y21588172D01*
X14790342Y21564642D01*
X14870871Y21472816D01*
X14900293Y21434472D01*
X14918499Y21418506D01*
X14934471Y21400293D01*
X14972828Y21370860D01*
X15064642Y21290342D01*
X15088170Y21282355D01*
X15206290Y21191719D01*
X15220094Y21171059D01*
X15321634Y21103212D01*
X15359989Y21073781D01*
X15381714Y21063067D01*
X15401850Y21049613D01*
X15446503Y21031117D01*
X15556041Y20977099D01*
X15580837Y20975474D01*
X15718389Y20918498D01*
X15737072Y20902113D01*
X15852717Y20862857D01*
X15897375Y20844359D01*
X15921131Y20839634D01*
X15944067Y20831848D01*
X15991990Y20825539D01*
X16111770Y20801713D01*
X16136142Y20806561D01*
X16380211Y20774429D01*
X16427612Y20765000D01*
X16451829Y20765000D01*
X16475832Y20761840D01*
X16524044Y20765000D01*
X25951831Y20765000D01*
X26196356Y20732808D01*
X26379328Y20657018D01*
X26536454Y20536451D01*
X26657018Y20379329D01*
X26732808Y20196356D01*
X26765000Y19951831D01*
X26765001Y-19951823D01*
X26732808Y-20196356D01*
X26657018Y-20379329D01*
X26536454Y-20536451D01*
X26379328Y-20657018D01*
X26196356Y-20732808D01*
X25951831Y-20765000D01*
X16524044Y-20765000D01*
X16475832Y-20761840D01*
X16451829Y-20765000D01*
X16427612Y-20765000D01*
X16380211Y-20774429D01*
X16136142Y-20806561D01*
X16111770Y-20801713D01*
X15991990Y-20825539D01*
X15944067Y-20831848D01*
X15921131Y-20839634D01*
X15897375Y-20844359D01*
X15852717Y-20862857D01*
X15737072Y-20902113D01*
X15718389Y-20918498D01*
X15580837Y-20975474D01*
X15556041Y-20977099D01*
X15446503Y-21031117D01*
X15401850Y-21049613D01*
X15381714Y-21063067D01*
X15359989Y-21073781D01*
X15321634Y-21103212D01*
X15220094Y-21171059D01*
X15206290Y-21191719D01*
X15088170Y-21282355D01*
X15064642Y-21290342D01*
X14972828Y-21370860D01*
X14934471Y-21400293D01*
X14918499Y-21418506D01*
X14900293Y-21434472D01*
X14870871Y-21472816D01*
X14790342Y-21564642D01*
X14782355Y-21588172D01*
X14691720Y-21706289D01*
X14671058Y-21720095D01*
X14603205Y-21821643D01*
X14573781Y-21859990D01*
X14563069Y-21881711D01*
X14549613Y-21901850D01*
X14531115Y-21946509D01*
X14477099Y-22056042D01*
X14475474Y-22080838D01*
X14418498Y-22218388D01*
X14402113Y-22237072D01*
X14362855Y-22352722D01*
X14344359Y-22397376D01*
X14339634Y-22421130D01*
X14331848Y-22444067D01*
X14325538Y-22491993D01*
X14301713Y-22611771D01*
X14306561Y-22636143D01*
X14274429Y-22880212D01*
X14265000Y-22927613D01*
X14265000Y-22951830D01*
X14261840Y-22975833D01*
X14265000Y-23024045D01*
X14265001Y-26451824D01*
X14232808Y-26696356D01*
X14157018Y-26879329D01*
X14036454Y-27036451D01*
X13879328Y-27157018D01*
X13696356Y-27232808D01*
X13451831Y-27265000D01*
X-1010771Y-27265000D01*
X-964843Y-27196265D01*
X-915560Y-26948500D01*
X-915560Y-25248500D01*
X-964843Y-25000735D01*
X-1105191Y-24790691D01*
X-1315235Y-24650343D01*
X-1563000Y-24601060D01*
X-3263000Y-24601060D01*
X-3510765Y-24650343D01*
X-3720809Y-24790691D01*
X-3861157Y-25000735D01*
X-3870184Y-25046119D01*
X-3882375Y-25027875D01*
X-4373582Y-24699661D01*
X-4806744Y-24613500D01*
X-5099256Y-24613500D01*
X-5532418Y-24699661D01*
X-6023625Y-25027875D01*
X-6223000Y-25326261D01*
X-6422375Y-25027875D01*
X-6913582Y-24699661D01*
X-7346744Y-24613500D01*
X-7639256Y-24613500D01*
X-8072418Y-24699661D01*
X-8563625Y-25027875D01*
X-8763000Y-25326261D01*
X-8962375Y-25027875D01*
X-9453582Y-24699661D01*
X-9886744Y-24613500D01*
X-10179256Y-24613500D01*
X-10612418Y-24699661D01*
X-11103625Y-25027875D01*
X-11303000Y-25326261D01*
X-11502375Y-25027875D01*
X-11993582Y-24699661D01*
X-12426744Y-24613500D01*
X-12719256Y-24613500D01*
X-13152418Y-24699661D01*
X-13643625Y-25027875D01*
X-13971839Y-25519082D01*
X-14087092Y-26098500D01*
X-13971839Y-26677918D01*
X-13643625Y-27169125D01*
X-13511991Y-27257080D01*
X-13696356Y-27232808D01*
X-13879329Y-27157018D01*
X-14036451Y-27036454D01*
X-14157018Y-26879328D01*
X-14232808Y-26696356D01*
X-14265000Y-26451831D01*
X-14265000Y-23024044D01*
X-14261840Y-22975832D01*
X-14265000Y-22951829D01*
X-14265000Y-22927612D01*
X-14274429Y-22880211D01*
X-14306561Y-22636142D01*
X-14301713Y-22611770D01*
X-14325539Y-22491990D01*
X-14331848Y-22444067D01*
X-14339634Y-22421131D01*
X-14344359Y-22397375D01*
X-14362857Y-22352717D01*
X-14402113Y-22237072D01*
X-14418498Y-22218389D01*
X-14475474Y-22080837D01*
X-14477099Y-22056041D01*
X-14531117Y-21946503D01*
X-14549613Y-21901850D01*
X-14563067Y-21881714D01*
X-14573781Y-21859989D01*
X-14603212Y-21821634D01*
X-14671059Y-21720094D01*
X-14691719Y-21706290D01*
X-14782355Y-21588170D01*
X-14790342Y-21564642D01*
X-14870860Y-21472828D01*
X-14900293Y-21434471D01*
X-14918506Y-21418499D01*
X-14934472Y-21400293D01*
X-14972816Y-21370871D01*
X-15064642Y-21290342D01*
X-15088172Y-21282355D01*
X-15206289Y-21191720D01*
X-15220095Y-21171058D01*
X-15321643Y-21103205D01*
X-15359990Y-21073781D01*
X-15381711Y-21063069D01*
X-15401850Y-21049613D01*
X-15446509Y-21031115D01*
X-15556042Y-20977099D01*
X-15580838Y-20975474D01*
X-15718388Y-20918498D01*
X-15737072Y-20902113D01*
X-15852722Y-20862855D01*
X-15897376Y-20844359D01*
X-15921130Y-20839634D01*
X-15944067Y-20831848D01*
X-15991993Y-20825538D01*
X-16111771Y-20801713D01*
X-16136143Y-20806561D01*
X-16380209Y-20774429D01*
X-16427612Y-20765000D01*
X-16451830Y-20765000D01*
X-16475833Y-20761840D01*
X-16524044Y-20765000D01*
X-26077755Y-20765000D01*
X-26182206Y-20751249D01*
X-26369783Y-20673552D01*
X-26530859Y-20549954D01*
X-26654458Y-20388876D01*
X-26732157Y-20201297D01*
X-26765000Y-19951829D01*
X-26765000Y-17975833D01*
X-23738160Y-17975833D01*
X-23736576Y-18000000D01*
X-23738160Y-18024167D01*
X-23731851Y-18072090D01*
X-23723863Y-18193959D01*
X-23712873Y-18216245D01*
X-23676402Y-18493266D01*
X-23681250Y-18517638D01*
X-23657424Y-18637421D01*
X-23651115Y-18685343D01*
X-23643330Y-18708276D01*
X-23638605Y-18732032D01*
X-23620106Y-18776692D01*
X-23580850Y-18892337D01*
X-23564466Y-18911020D01*
X-23457539Y-19169163D01*
X-23455914Y-19193957D01*
X-23401898Y-19303492D01*
X-23383400Y-19348150D01*
X-23369945Y-19368286D01*
X-23359233Y-19390009D01*
X-23329805Y-19428360D01*
X-23261955Y-19529905D01*
X-23241294Y-19543710D01*
X-23071200Y-19765382D01*
X-23063212Y-19788913D01*
X-22982688Y-19880733D01*
X-22953262Y-19919082D01*
X-22935052Y-19935052D01*
X-22919082Y-19953262D01*
X-22880732Y-19982689D01*
X-22788913Y-20063212D01*
X-22765383Y-20071199D01*
X-22543709Y-20241295D01*
X-22529905Y-20261955D01*
X-22428367Y-20329800D01*
X-22390010Y-20359233D01*
X-22368284Y-20369947D01*
X-22348150Y-20383400D01*
X-22303497Y-20401896D01*
X-22193958Y-20455914D01*
X-22169163Y-20457539D01*
X-21911019Y-20564466D01*
X-21892337Y-20580850D01*
X-21776697Y-20620104D01*
X-21732033Y-20638605D01*
X-21708275Y-20643331D01*
X-21685343Y-20651115D01*
X-21637423Y-20657424D01*
X-21517638Y-20681250D01*
X-21493267Y-20676402D01*
X-21216245Y-20712873D01*
X-21193959Y-20723863D01*
X-21072092Y-20731851D01*
X-21024168Y-20738160D01*
X-21000000Y-20736576D01*
X-20975833Y-20738160D01*
X-20927910Y-20731851D01*
X-20806040Y-20723863D01*
X-20783753Y-20712872D01*
X-20506734Y-20676402D01*
X-20482362Y-20681250D01*
X-20362579Y-20657424D01*
X-20314657Y-20651115D01*
X-20291724Y-20643330D01*
X-20267968Y-20638605D01*
X-20223308Y-20620106D01*
X-20107663Y-20580850D01*
X-20088980Y-20564466D01*
X-19830837Y-20457539D01*
X-19806043Y-20455914D01*
X-19696508Y-20401898D01*
X-19651850Y-20383400D01*
X-19631714Y-20369945D01*
X-19609991Y-20359233D01*
X-19571640Y-20329805D01*
X-19470095Y-20261955D01*
X-19456290Y-20241294D01*
X-19234618Y-20071200D01*
X-19211087Y-20063212D01*
X-19119267Y-19982688D01*
X-19080918Y-19953262D01*
X-19064948Y-19935052D01*
X-19046738Y-19919082D01*
X-19017311Y-19880732D01*
X-18936788Y-19788913D01*
X-18928801Y-19765383D01*
X-18758705Y-19543709D01*
X-18738045Y-19529905D01*
X-18670200Y-19428367D01*
X-18640767Y-19390010D01*
X-18630053Y-19368284D01*
X-18616600Y-19348150D01*
X-18598104Y-19303497D01*
X-18544086Y-19193958D01*
X-18542461Y-19169163D01*
X-18435534Y-18911019D01*
X-18419150Y-18892337D01*
X-18379896Y-18776697D01*
X-18361395Y-18732033D01*
X-18356669Y-18708275D01*
X-18348885Y-18685343D01*
X-18342576Y-18637423D01*
X-18318750Y-18517638D01*
X-18323598Y-18493267D01*
X-18287127Y-18216246D01*
X-18276137Y-18193960D01*
X-18268149Y-18072092D01*
X-18261840Y-18024168D01*
X-18263424Y-18000000D01*
X-18261840Y-17975832D01*
X-18268149Y-17927908D01*
X-18276137Y-17806040D01*
X-18287127Y-17783754D01*
X-18323598Y-17506733D01*
X-18318750Y-17482362D01*
X-18342576Y-17362577D01*
X-18348885Y-17314657D01*
X-18356669Y-17291725D01*
X-18361395Y-17267967D01*
X-18379896Y-17223303D01*
X-18419150Y-17107663D01*
X-18435534Y-17088981D01*
X-18542461Y-16830837D01*
X-18544086Y-16806042D01*
X-18598104Y-16696503D01*
X-18616600Y-16651850D01*
X-18630053Y-16631716D01*
X-18640767Y-16609990D01*
X-18670200Y-16571633D01*
X-18738045Y-16470095D01*
X-18758705Y-16456291D01*
X-18928801Y-16234617D01*
X-18936788Y-16211087D01*
X-19017311Y-16119268D01*
X-19046738Y-16080918D01*
X-19064948Y-16064948D01*
X-19080918Y-16046738D01*
X-19119267Y-16017312D01*
X-19211087Y-15936788D01*
X-19234618Y-15928800D01*
X-19456290Y-15758706D01*
X-19470095Y-15738045D01*
X-19571640Y-15670195D01*
X-19609991Y-15640767D01*
X-19631714Y-15630055D01*
X-19651850Y-15616600D01*
X-19696508Y-15598102D01*
X-19806043Y-15544086D01*
X-19830837Y-15542461D01*
X-20088980Y-15435534D01*
X-20107663Y-15419150D01*
X-20223308Y-15379894D01*
X-20267968Y-15361395D01*
X-20291724Y-15356670D01*
X-20314657Y-15348885D01*
X-20362579Y-15342576D01*
X-20482362Y-15318750D01*
X-20506734Y-15323598D01*
X-20783753Y-15287128D01*
X-20806040Y-15276137D01*
X-20927910Y-15268149D01*
X-20975833Y-15261840D01*
X-21000000Y-15263424D01*
X-21024168Y-15261840D01*
X-21072092Y-15268149D01*
X-21193959Y-15276137D01*
X-21216245Y-15287127D01*
X-21493267Y-15323598D01*
X-21517638Y-15318750D01*
X-21637423Y-15342576D01*
X-21685343Y-15348885D01*
X-21708275Y-15356669D01*
X-21732033Y-15361395D01*
X-21776697Y-15379896D01*
X-21892337Y-15419150D01*
X-21911019Y-15435534D01*
X-22169163Y-15542461D01*
X-22193958Y-15544086D01*
X-22303497Y-15598104D01*
X-22348150Y-15616600D01*
X-22368284Y-15630053D01*
X-22390010Y-15640767D01*
X-22428367Y-15670200D01*
X-22529905Y-15738045D01*
X-22543709Y-15758705D01*
X-22765383Y-15928801D01*
X-22788913Y-15936788D01*
X-22880732Y-16017311D01*
X-22919082Y-16046738D01*
X-22935052Y-16064948D01*
X-22953262Y-16080918D01*
X-22982688Y-16119267D01*
X-23063212Y-16211087D01*
X-23071200Y-16234618D01*
X-23241294Y-16456290D01*
X-23261955Y-16470095D01*
X-23329805Y-16571640D01*
X-23359233Y-16609991D01*
X-23369945Y-16631714D01*
X-23383400Y-16651850D01*
X-23401898Y-16696508D01*
X-23455914Y-16806043D01*
X-23457539Y-16830837D01*
X-23564466Y-17088980D01*
X-23580850Y-17107663D01*
X-23620106Y-17223308D01*
X-23638605Y-17267968D01*
X-23643330Y-17291724D01*
X-23651115Y-17314657D01*
X-23657424Y-17362579D01*
X-23681250Y-17482362D01*
X-23676402Y-17506734D01*
X-23712873Y-17783755D01*
X-23723863Y-17806041D01*
X-23731851Y-17927910D01*
X-23738160Y-17975833D01*
X-26765000Y-17975833D01*
X-26765000Y-14609517D01*
X1932500Y-14609517D01*
X1932500Y-14981483D01*
X2074845Y-15325135D01*
X2123186Y-15373476D01*
X2151596Y-15516301D01*
X2319572Y-15767693D01*
X2383028Y-15810093D01*
X2825407Y-16252473D01*
X2835484Y-16267555D01*
X2578345Y-16524694D01*
X2436000Y-16868346D01*
X2436000Y-17240312D01*
X2578345Y-17583964D01*
X2622594Y-17628213D01*
X2561716Y-17775185D01*
X2561716Y-18147151D01*
X2704061Y-18490803D01*
X2967081Y-18753823D01*
X3310733Y-18896168D01*
X3682699Y-18896168D01*
X4026351Y-18753823D01*
X4289371Y-18490803D01*
X4431716Y-18147151D01*
X4431716Y-18100969D01*
X4754686Y-17778000D01*
X5025710Y-17778000D01*
X5058365Y-17810655D01*
X5402017Y-17953000D01*
X5773983Y-17953000D01*
X6117635Y-17810655D01*
X6380655Y-17547635D01*
X6523000Y-17203983D01*
X6523000Y-16832017D01*
X6380655Y-16488365D01*
X6348271Y-16455981D01*
X6506617Y-16297635D01*
X6648962Y-15953983D01*
X6648962Y-15582017D01*
X6506617Y-15238365D01*
X6243597Y-14975345D01*
X5899945Y-14833000D01*
X5527979Y-14833000D01*
X5184327Y-14975345D01*
X5151672Y-15008000D01*
X3791516Y-15008000D01*
X3802500Y-14981483D01*
X3802500Y-14609517D01*
X3660155Y-14265865D01*
X3397135Y-14002845D01*
X3053483Y-13860500D01*
X2681517Y-13860500D01*
X2337865Y-14002845D01*
X2074845Y-14265865D01*
X1932500Y-14609517D01*
X-26765000Y-14609517D01*
X-26765000Y-12999963D01*
X-24211000Y-12999963D01*
X-24211000Y-13352037D01*
X-24076267Y-13677312D01*
X-23827312Y-13926267D01*
X-23502037Y-14061000D01*
X-23149963Y-14061000D01*
X-22824688Y-13926267D01*
X-22575733Y-13677312D01*
X-22441000Y-13352037D01*
X-22441000Y-12999963D01*
X-22575733Y-12674688D01*
X-22824688Y-12425733D01*
X-23149963Y-12291000D01*
X-23502037Y-12291000D01*
X-23827312Y-12425733D01*
X-24076267Y-12674688D01*
X-24211000Y-12999963D01*
X-26765000Y-12999963D01*
X-26765000Y-8999963D01*
X-24211000Y-8999963D01*
X-24211000Y-9352037D01*
X-24076267Y-9677312D01*
X-23827312Y-9926267D01*
X-23502037Y-10061000D01*
X-23149963Y-10061000D01*
X-22824688Y-9926267D01*
X-22575733Y-9677312D01*
X-22441000Y-9352037D01*
X-22441000Y-8999963D01*
X-22575733Y-8674688D01*
X-22824688Y-8425733D01*
X-23149963Y-8291000D01*
X-23502037Y-8291000D01*
X-23827312Y-8425733D01*
X-24076267Y-8674688D01*
X-24211000Y-8999963D01*
X-26765000Y-8999963D01*
X-26765000Y-4259017D01*
X-15921000Y-4259017D01*
X-15921000Y-4630983D01*
X-15778655Y-4974635D01*
X-15515635Y-5237655D01*
X-15171983Y-5380000D01*
X-14800017Y-5380000D01*
X-14456365Y-5237655D01*
X-14193345Y-4974635D01*
X-14051000Y-4630983D01*
X-14051000Y-4584801D01*
X-12458150Y-2991951D01*
X-12360865Y-2951655D01*
X-12097845Y-2688635D01*
X-11955500Y-2344983D01*
X-11955500Y-1973017D01*
X-12097845Y-1629365D01*
X-12360865Y-1366345D01*
X-12704517Y-1224000D01*
X-13076483Y-1224000D01*
X-13420135Y-1366345D01*
X-13683155Y-1629365D01*
X-13825500Y-1973017D01*
X-13825500Y-2209698D01*
X-15125801Y-3510000D01*
X-15171983Y-3510000D01*
X-15515635Y-3652345D01*
X-15778655Y-3915365D01*
X-15921000Y-4259017D01*
X-26765000Y-4259017D01*
X-26765000Y-957017D01*
X-8431001Y-957017D01*
X-8431001Y-1328983D01*
X-8288656Y-1672635D01*
X-8025636Y-1935655D01*
X-7681984Y-2078000D01*
X-7310018Y-2078000D01*
X-6966366Y-1935655D01*
X-6933711Y-1903000D01*
X-4696790Y-1903000D01*
X-4600635Y-1999155D01*
X-4256983Y-2141500D01*
X-3885017Y-2141500D01*
X-3541365Y-1999155D01*
X-3278345Y-1736135D01*
X-3136000Y-1392483D01*
X-3136000Y-1020517D01*
X-3278345Y-676865D01*
X-3541365Y-413845D01*
X-3885017Y-271500D01*
X-4256983Y-271500D01*
X-4526168Y-383000D01*
X-6933711Y-383000D01*
X-6966366Y-350345D01*
X-7310018Y-208000D01*
X-7681984Y-208000D01*
X-8025636Y-350345D01*
X-8288656Y-613365D01*
X-8431001Y-957017D01*
X-26765000Y-957017D01*
X-26765000Y6590579D01*
X-26522603Y6348182D01*
X-26123820Y6183000D01*
X-25692180Y6183000D01*
X-25293397Y6348182D01*
X-24988182Y6653397D01*
X-24823000Y7052180D01*
X-24823000Y7483820D01*
X-24956444Y7805983D01*
X-7539000Y7805983D01*
X-7539000Y7434017D01*
X-7396655Y7090365D01*
X-7133635Y6827345D01*
X-6789983Y6685000D01*
X-6418017Y6685000D01*
X-6074365Y6827345D01*
X-6041710Y6860000D01*
X-5394801Y6860000D01*
X-3808000Y5273198D01*
X-3808000Y5103723D01*
X-3846000Y5011983D01*
X-3846000Y4640017D01*
X-3703655Y4296365D01*
X-3440635Y4033345D01*
X-3096983Y3891000D01*
X-2725017Y3891000D01*
X-2381365Y4033345D01*
X-2286000Y4128710D01*
X-2190635Y4033345D01*
X-1846983Y3891000D01*
X-1475017Y3891000D01*
X-1131365Y4033345D01*
X-868345Y4296365D01*
X-726000Y4640017D01*
X-726000Y4666446D01*
X-722071Y4669071D01*
X-615878Y4828000D01*
X-304290Y4828000D01*
X-538655Y4593635D01*
X-681000Y4249983D01*
X-681000Y3878017D01*
X-538655Y3534365D01*
X-275635Y3271345D01*
X68017Y3129000D01*
X159226Y3129000D01*
X211463Y3094096D01*
X433148Y3050000D01*
X433152Y3050000D01*
X507999Y3035112D01*
X582846Y3050000D01*
X5788235Y3050000D01*
X5788235Y2849136D01*
X5877303Y2634106D01*
X5702198Y2459000D01*
X5656017Y2459000D01*
X5312365Y2316655D01*
X5049345Y2053635D01*
X4907000Y1709983D01*
X4907000Y1338017D01*
X5049345Y994365D01*
X5312365Y731345D01*
X5656017Y589000D01*
X6027983Y589000D01*
X6371635Y731345D01*
X6634655Y994365D01*
X6777000Y1338017D01*
X6777000Y1384198D01*
X7207710Y1814908D01*
X7271164Y1857306D01*
X7313562Y1920759D01*
X7313564Y1920761D01*
X7402347Y2053635D01*
X7439139Y2108698D01*
X7483235Y2330383D01*
X7483235Y2330387D01*
X7498123Y2405234D01*
X7484438Y2474032D01*
X7515890Y2505484D01*
X7658235Y2849136D01*
X7658235Y3050000D01*
X8351201Y3050000D01*
X7643530Y2342329D01*
X7580071Y2299927D01*
X7412096Y2048534D01*
X7368000Y1826849D01*
X7368000Y1826845D01*
X7353112Y1751998D01*
X7368000Y1677151D01*
X7368001Y-19229148D01*
X7353112Y-19304000D01*
X7412097Y-19600537D01*
X7499973Y-19732052D01*
X7580072Y-19851929D01*
X7643528Y-19894329D01*
X7791669Y-20042470D01*
X7834071Y-20105929D01*
X8085463Y-20273904D01*
X8307148Y-20318000D01*
X8307152Y-20318000D01*
X8381999Y-20332888D01*
X8456846Y-20318000D01*
X9135822Y-20318000D01*
X9343375Y-20628625D01*
X9834582Y-20956839D01*
X10267744Y-21043000D01*
X10560256Y-21043000D01*
X10993418Y-20956839D01*
X11484625Y-20628625D01*
X11499096Y-20606968D01*
X11565673Y-20767699D01*
X11744302Y-20946327D01*
X11977691Y-21043000D01*
X12668250Y-21043000D01*
X12827000Y-20884250D01*
X12827000Y-19685000D01*
X13081000Y-19685000D01*
X13081000Y-20884250D01*
X13239750Y-21043000D01*
X13930309Y-21043000D01*
X14163698Y-20946327D01*
X14342327Y-20767699D01*
X14439000Y-20534310D01*
X14439000Y-19843750D01*
X14280250Y-19685000D01*
X13081000Y-19685000D01*
X12827000Y-19685000D01*
X12807000Y-19685000D01*
X12807000Y-19431000D01*
X12827000Y-19431000D01*
X12827000Y-19411000D01*
X13081000Y-19411000D01*
X13081000Y-19431000D01*
X14280250Y-19431000D01*
X14439000Y-19272250D01*
X14439000Y-18581690D01*
X14342327Y-18348301D01*
X14163698Y-18169673D01*
X14002967Y-18103096D01*
X14024625Y-18088625D01*
X14099990Y-17975833D01*
X18261840Y-17975833D01*
X18263424Y-18000000D01*
X18261840Y-18024167D01*
X18268149Y-18072090D01*
X18276137Y-18193959D01*
X18287127Y-18216245D01*
X18323598Y-18493266D01*
X18318750Y-18517638D01*
X18342576Y-18637421D01*
X18348885Y-18685343D01*
X18356670Y-18708276D01*
X18361395Y-18732032D01*
X18379894Y-18776692D01*
X18419150Y-18892337D01*
X18435534Y-18911020D01*
X18542461Y-19169163D01*
X18544086Y-19193957D01*
X18598102Y-19303492D01*
X18616600Y-19348150D01*
X18630055Y-19368286D01*
X18640767Y-19390009D01*
X18670195Y-19428360D01*
X18738045Y-19529905D01*
X18758706Y-19543710D01*
X18928800Y-19765382D01*
X18936788Y-19788913D01*
X19017312Y-19880733D01*
X19046738Y-19919082D01*
X19064948Y-19935052D01*
X19080918Y-19953262D01*
X19119268Y-19982689D01*
X19211087Y-20063212D01*
X19234617Y-20071199D01*
X19456291Y-20241295D01*
X19470095Y-20261955D01*
X19571633Y-20329800D01*
X19609990Y-20359233D01*
X19631716Y-20369947D01*
X19651850Y-20383400D01*
X19696503Y-20401896D01*
X19806042Y-20455914D01*
X19830837Y-20457539D01*
X20088981Y-20564466D01*
X20107663Y-20580850D01*
X20223303Y-20620104D01*
X20267967Y-20638605D01*
X20291725Y-20643331D01*
X20314657Y-20651115D01*
X20362577Y-20657424D01*
X20482362Y-20681250D01*
X20506733Y-20676402D01*
X20783755Y-20712873D01*
X20806041Y-20723863D01*
X20927908Y-20731851D01*
X20975832Y-20738160D01*
X21000000Y-20736576D01*
X21024167Y-20738160D01*
X21072090Y-20731851D01*
X21193960Y-20723863D01*
X21216247Y-20712872D01*
X21493266Y-20676402D01*
X21517638Y-20681250D01*
X21637421Y-20657424D01*
X21685343Y-20651115D01*
X21708276Y-20643330D01*
X21732032Y-20638605D01*
X21776692Y-20620106D01*
X21892337Y-20580850D01*
X21911020Y-20564466D01*
X22169163Y-20457539D01*
X22193957Y-20455914D01*
X22303492Y-20401898D01*
X22348150Y-20383400D01*
X22368286Y-20369945D01*
X22390009Y-20359233D01*
X22428360Y-20329805D01*
X22529905Y-20261955D01*
X22543710Y-20241294D01*
X22765382Y-20071200D01*
X22788913Y-20063212D01*
X22880733Y-19982688D01*
X22919082Y-19953262D01*
X22935052Y-19935052D01*
X22953262Y-19919082D01*
X22982689Y-19880732D01*
X23063212Y-19788913D01*
X23071199Y-19765383D01*
X23241295Y-19543709D01*
X23261955Y-19529905D01*
X23329800Y-19428367D01*
X23359233Y-19390010D01*
X23369947Y-19368284D01*
X23383400Y-19348150D01*
X23401896Y-19303497D01*
X23455914Y-19193958D01*
X23457539Y-19169163D01*
X23564466Y-18911019D01*
X23580850Y-18892337D01*
X23620104Y-18776697D01*
X23638605Y-18732033D01*
X23643331Y-18708275D01*
X23651115Y-18685343D01*
X23657424Y-18637423D01*
X23681250Y-18517638D01*
X23676402Y-18493267D01*
X23712873Y-18216246D01*
X23723863Y-18193960D01*
X23731851Y-18072092D01*
X23738160Y-18024168D01*
X23736576Y-18000000D01*
X23738160Y-17975832D01*
X23731851Y-17927908D01*
X23723863Y-17806040D01*
X23712873Y-17783754D01*
X23676402Y-17506733D01*
X23681250Y-17482362D01*
X23657424Y-17362577D01*
X23651115Y-17314657D01*
X23643331Y-17291725D01*
X23638605Y-17267967D01*
X23620104Y-17223303D01*
X23580850Y-17107663D01*
X23564466Y-17088981D01*
X23457539Y-16830837D01*
X23455914Y-16806042D01*
X23401896Y-16696503D01*
X23383400Y-16651850D01*
X23369947Y-16631716D01*
X23359233Y-16609990D01*
X23329800Y-16571633D01*
X23261955Y-16470095D01*
X23241295Y-16456291D01*
X23071199Y-16234617D01*
X23063212Y-16211087D01*
X22982689Y-16119268D01*
X22953262Y-16080918D01*
X22935052Y-16064948D01*
X22919082Y-16046738D01*
X22880733Y-16017312D01*
X22788913Y-15936788D01*
X22765382Y-15928800D01*
X22543710Y-15758706D01*
X22529905Y-15738045D01*
X22428360Y-15670195D01*
X22390009Y-15640767D01*
X22368286Y-15630055D01*
X22348150Y-15616600D01*
X22303492Y-15598102D01*
X22193957Y-15544086D01*
X22169163Y-15542461D01*
X21911020Y-15435534D01*
X21892337Y-15419150D01*
X21776692Y-15379894D01*
X21732032Y-15361395D01*
X21708276Y-15356670D01*
X21685343Y-15348885D01*
X21637421Y-15342576D01*
X21517638Y-15318750D01*
X21493266Y-15323598D01*
X21216247Y-15287128D01*
X21193960Y-15276137D01*
X21072090Y-15268149D01*
X21024167Y-15261840D01*
X21000000Y-15263424D01*
X20975832Y-15261840D01*
X20927908Y-15268149D01*
X20806041Y-15276137D01*
X20783755Y-15287127D01*
X20506733Y-15323598D01*
X20482362Y-15318750D01*
X20362577Y-15342576D01*
X20314657Y-15348885D01*
X20291725Y-15356669D01*
X20267967Y-15361395D01*
X20223303Y-15379896D01*
X20107663Y-15419150D01*
X20088981Y-15435534D01*
X19830837Y-15542461D01*
X19806042Y-15544086D01*
X19696503Y-15598104D01*
X19651850Y-15616600D01*
X19631716Y-15630053D01*
X19609990Y-15640767D01*
X19571633Y-15670200D01*
X19470095Y-15738045D01*
X19456291Y-15758705D01*
X19234617Y-15928801D01*
X19211087Y-15936788D01*
X19119268Y-16017311D01*
X19080918Y-16046738D01*
X19064948Y-16064948D01*
X19046738Y-16080918D01*
X19017312Y-16119267D01*
X18936788Y-16211087D01*
X18928800Y-16234618D01*
X18758706Y-16456290D01*
X18738045Y-16470095D01*
X18670195Y-16571640D01*
X18640767Y-16609991D01*
X18630055Y-16631714D01*
X18616600Y-16651850D01*
X18598102Y-16696508D01*
X18544086Y-16806043D01*
X18542461Y-16830837D01*
X18435534Y-17088980D01*
X18419150Y-17107663D01*
X18379894Y-17223308D01*
X18361395Y-17267968D01*
X18356670Y-17291724D01*
X18348885Y-17314657D01*
X18342576Y-17362579D01*
X18318750Y-17482362D01*
X18323598Y-17506734D01*
X18287127Y-17783755D01*
X18276137Y-17806041D01*
X18268149Y-17927910D01*
X18261840Y-17975833D01*
X14099990Y-17975833D01*
X14352839Y-17597418D01*
X14468092Y-17018000D01*
X14352839Y-16438582D01*
X14024625Y-15947375D01*
X13726239Y-15748000D01*
X14024625Y-15548625D01*
X14352839Y-15057418D01*
X14468092Y-14478000D01*
X14352839Y-13898582D01*
X14024625Y-13407375D01*
X13533418Y-13079161D01*
X13100256Y-12993000D01*
X12807744Y-12993000D01*
X12374582Y-13079161D01*
X11883375Y-13407375D01*
X11684000Y-13705761D01*
X11484625Y-13407375D01*
X10993418Y-13079161D01*
X10560256Y-12993000D01*
X10267744Y-12993000D01*
X9834582Y-13079161D01*
X9343375Y-13407375D01*
X9015161Y-13898582D01*
X8899908Y-14478000D01*
X9015161Y-15057418D01*
X9343375Y-15548625D01*
X9641761Y-15748000D01*
X9343375Y-15947375D01*
X9015161Y-16438582D01*
X8899908Y-17018000D01*
X9015161Y-17597418D01*
X9343375Y-18088625D01*
X9641761Y-18288000D01*
X9343375Y-18487375D01*
X9135822Y-18798000D01*
X8888000Y-18798000D01*
X8888000Y1437197D01*
X9771000Y2320197D01*
X9771001Y-7408148D01*
X9756112Y-7483000D01*
X9771001Y-7557852D01*
X9815097Y-7779537D01*
X9983072Y-8030929D01*
X10046528Y-8073329D01*
X10496791Y-8523592D01*
X10423908Y-8890000D01*
X10539161Y-9469418D01*
X10867375Y-9960625D01*
X11358582Y-10288839D01*
X11791744Y-10375000D01*
X12084256Y-10375000D01*
X12517418Y-10288839D01*
X13008625Y-9960625D01*
X13336839Y-9469418D01*
X13452092Y-8890000D01*
X13336839Y-8310582D01*
X13008625Y-7819375D01*
X12710239Y-7620000D01*
X13008625Y-7420625D01*
X13336839Y-6929418D01*
X13452092Y-6350000D01*
X13336839Y-5770582D01*
X13008625Y-5279375D01*
X12710239Y-5080000D01*
X13008625Y-4880625D01*
X13336839Y-4389418D01*
X13452092Y-3810000D01*
X13336839Y-3230582D01*
X13008625Y-2739375D01*
X12710239Y-2540000D01*
X13008625Y-2340625D01*
X13336839Y-1849418D01*
X13452092Y-1270000D01*
X13336839Y-690582D01*
X13008625Y-199375D01*
X12710239Y0D01*
X13008625Y199375D01*
X13336839Y690582D01*
X13452092Y1270000D01*
X13336839Y1849418D01*
X13008625Y2340625D01*
X12710239Y2540000D01*
X13008625Y2739375D01*
X13336839Y3230582D01*
X13452092Y3810000D01*
X13336839Y4389418D01*
X13008625Y4880625D01*
X12689522Y5093843D01*
X12819358Y5154817D01*
X13209645Y5583076D01*
X13379476Y5993110D01*
X13258155Y6223000D01*
X12065000Y6223000D01*
X12065000Y6203000D01*
X11811000Y6203000D01*
X11811000Y6223000D01*
X11791000Y6223000D01*
X11791000Y6477000D01*
X11811000Y6477000D01*
X11811000Y6497000D01*
X12065000Y6497000D01*
X12065000Y6477000D01*
X13258155Y6477000D01*
X13379476Y6706890D01*
X13209645Y7116924D01*
X12932292Y7421261D01*
X13035765Y7441843D01*
X13245809Y7582191D01*
X13386157Y7792235D01*
X13435440Y8040000D01*
X13435440Y9740000D01*
X13386157Y9987765D01*
X13245809Y10197809D01*
X13035765Y10338157D01*
X12788000Y10387440D01*
X11088000Y10387440D01*
X10840235Y10338157D01*
X10630191Y10197809D01*
X10489843Y9987765D01*
X10440560Y9740000D01*
X10440560Y9193860D01*
X10390473Y9227327D01*
X9904000Y9713799D01*
X9904000Y11375710D01*
X9936655Y11408365D01*
X10079000Y11752017D01*
X10079000Y11803001D01*
X13284198Y11803001D01*
X14522671Y10564527D01*
X14565071Y10501071D01*
X14628527Y10458671D01*
X14816462Y10333096D01*
X14864605Y10323520D01*
X15038148Y10289000D01*
X15038152Y10289000D01*
X15113000Y10274112D01*
X15187848Y10289000D01*
X23931322Y10289000D01*
X24138875Y9978375D01*
X24630082Y9650161D01*
X25063244Y9564000D01*
X25355756Y9564000D01*
X25788918Y9650161D01*
X26280125Y9978375D01*
X26608339Y10469582D01*
X26723592Y11049000D01*
X26608339Y11628418D01*
X26280125Y12119625D01*
X25981739Y12319000D01*
X26280125Y12518375D01*
X26608339Y13009582D01*
X26723592Y13589000D01*
X26608339Y14168418D01*
X26280125Y14659625D01*
X25981739Y14859000D01*
X26280125Y15058375D01*
X26608339Y15549582D01*
X26723592Y16129000D01*
X26608339Y16708418D01*
X26280125Y17199625D01*
X26261881Y17211816D01*
X26307265Y17220843D01*
X26517309Y17361191D01*
X26657657Y17571235D01*
X26706940Y17819000D01*
X26706940Y19519000D01*
X26657657Y19766765D01*
X26517309Y19976809D01*
X26307265Y20117157D01*
X26059500Y20166440D01*
X24359500Y20166440D01*
X24111735Y20117157D01*
X23901691Y19976809D01*
X23761343Y19766765D01*
X23712060Y19519000D01*
X23712060Y19317483D01*
X23561571Y19216929D01*
X23519169Y19153470D01*
X23480187Y19114488D01*
X23457539Y19169163D01*
X23455914Y19193958D01*
X23401896Y19303497D01*
X23383400Y19348150D01*
X23369947Y19368284D01*
X23359233Y19390010D01*
X23329800Y19428367D01*
X23261955Y19529905D01*
X23241295Y19543709D01*
X23071199Y19765383D01*
X23063212Y19788913D01*
X22982689Y19880732D01*
X22953262Y19919082D01*
X22935052Y19935052D01*
X22919082Y19953262D01*
X22880733Y19982688D01*
X22788913Y20063212D01*
X22765382Y20071200D01*
X22543710Y20241294D01*
X22529905Y20261955D01*
X22428360Y20329805D01*
X22390009Y20359233D01*
X22368286Y20369945D01*
X22348150Y20383400D01*
X22303492Y20401898D01*
X22193957Y20455914D01*
X22169163Y20457539D01*
X21911020Y20564466D01*
X21892337Y20580850D01*
X21776692Y20620106D01*
X21732032Y20638605D01*
X21708276Y20643330D01*
X21685343Y20651115D01*
X21637421Y20657424D01*
X21517638Y20681250D01*
X21493266Y20676402D01*
X21216247Y20712872D01*
X21193960Y20723863D01*
X21072090Y20731851D01*
X21024167Y20738160D01*
X21000000Y20736576D01*
X20975832Y20738160D01*
X20927908Y20731851D01*
X20806041Y20723863D01*
X20783755Y20712873D01*
X20506733Y20676402D01*
X20482362Y20681250D01*
X20362577Y20657424D01*
X20314657Y20651115D01*
X20291725Y20643331D01*
X20267967Y20638605D01*
X20223303Y20620104D01*
X20107663Y20580850D01*
X20088981Y20564466D01*
X19830837Y20457539D01*
X19806042Y20455914D01*
X19696503Y20401896D01*
X19651850Y20383400D01*
X19631716Y20369947D01*
X19609990Y20359233D01*
X19571633Y20329800D01*
X19470095Y20261955D01*
X19456291Y20241295D01*
X19234617Y20071199D01*
X19211087Y20063212D01*
X19119268Y19982689D01*
X19080918Y19953262D01*
X19064948Y19935052D01*
X19046738Y19919082D01*
X19017312Y19880733D01*
X18936788Y19788913D01*
X18928800Y19765382D01*
X18758706Y19543710D01*
X18738045Y19529905D01*
X18670195Y19428360D01*
X18640767Y19390009D01*
X18630055Y19368286D01*
X18616600Y19348150D01*
X18598102Y19303492D01*
X18544086Y19193957D01*
X18542461Y19169163D01*
X18435534Y18911020D01*
X18419150Y18892337D01*
X18379894Y18776692D01*
X18361395Y18732032D01*
X18356670Y18708276D01*
X18348885Y18685343D01*
X18342576Y18637421D01*
X18318750Y18517638D01*
X18323598Y18493266D01*
X18287127Y18216245D01*
X18276137Y18193959D01*
X18268149Y18072090D01*
X18261840Y18024167D01*
X18263424Y18000000D01*
X18261840Y17975833D01*
X18268149Y17927910D01*
X18276137Y17806041D01*
X18287127Y17783755D01*
X18323598Y17506734D01*
X18318750Y17482362D01*
X18342576Y17362579D01*
X18348885Y17314657D01*
X18356670Y17291724D01*
X18361395Y17267968D01*
X18379894Y17223308D01*
X18419150Y17107663D01*
X18435534Y17088980D01*
X18542461Y16830837D01*
X18544086Y16806043D01*
X18598102Y16696508D01*
X18616600Y16651850D01*
X18630055Y16631714D01*
X18640767Y16609991D01*
X18670195Y16571640D01*
X18738045Y16470095D01*
X18758706Y16456290D01*
X18928800Y16234618D01*
X18936788Y16211087D01*
X19017312Y16119267D01*
X19046738Y16080918D01*
X19064948Y16064948D01*
X19080918Y16046738D01*
X19119268Y16017311D01*
X19211087Y15936788D01*
X19234617Y15928801D01*
X19456291Y15758705D01*
X19470095Y15738045D01*
X19571633Y15670200D01*
X19609990Y15640767D01*
X19631716Y15630053D01*
X19651850Y15616600D01*
X19696503Y15598104D01*
X19806042Y15544086D01*
X19830837Y15542461D01*
X20088981Y15435534D01*
X20107663Y15419150D01*
X20223303Y15379896D01*
X20267967Y15361395D01*
X20291725Y15356669D01*
X20314657Y15348885D01*
X20362577Y15342576D01*
X20482362Y15318750D01*
X20506733Y15323598D01*
X20783755Y15287127D01*
X20806041Y15276137D01*
X20927908Y15268149D01*
X20975832Y15261840D01*
X21000000Y15263424D01*
X21024167Y15261840D01*
X21072090Y15268149D01*
X21193960Y15276137D01*
X21216247Y15287128D01*
X21493266Y15323598D01*
X21517638Y15318750D01*
X21637421Y15342576D01*
X21685343Y15348885D01*
X21708276Y15356670D01*
X21732032Y15361395D01*
X21776692Y15379894D01*
X21892337Y15419150D01*
X21911020Y15435534D01*
X22169163Y15542461D01*
X22193957Y15544086D01*
X22303492Y15598102D01*
X22348150Y15616600D01*
X22368286Y15630055D01*
X22390009Y15640767D01*
X22428360Y15670195D01*
X22529905Y15738045D01*
X22543710Y15758706D01*
X22765382Y15928800D01*
X22788913Y15936788D01*
X22880733Y16017312D01*
X22919082Y16046738D01*
X22925500Y16054057D01*
X22925500Y15618302D01*
X21931028Y14623829D01*
X21867572Y14581429D01*
X21825172Y14517973D01*
X21825171Y14517972D01*
X21699597Y14330037D01*
X21640612Y14033500D01*
X21655501Y13958649D01*
X21655500Y13333000D01*
X15938622Y13333000D01*
X14811641Y14459980D01*
X14769239Y14523439D01*
X14517847Y14691414D01*
X14296162Y14735510D01*
X14296157Y14735510D01*
X14221310Y14750398D01*
X14146463Y14735510D01*
X3191856Y14735510D01*
X3117009Y14750398D01*
X3042162Y14735510D01*
X3042158Y14735510D01*
X2820473Y14691414D01*
X2759989Y14651000D01*
X2632536Y14565839D01*
X2632534Y14565837D01*
X2569081Y14523439D01*
X2526683Y14459986D01*
X912528Y12845829D01*
X849072Y12803429D01*
X806672Y12739973D01*
X806671Y12739972D01*
X681097Y12552037D01*
X622112Y12255500D01*
X637001Y12180648D01*
X637000Y10106437D01*
X622112Y10031590D01*
X637000Y9956743D01*
X637000Y9956739D01*
X681096Y9735054D01*
X849071Y9483661D01*
X894173Y9453525D01*
X843000Y9329983D01*
X843000Y9269000D01*
X-3501710Y9269000D01*
X-3534365Y9301655D01*
X-3878017Y9444000D01*
X-4249983Y9444000D01*
X-4593635Y9301655D01*
X-4856655Y9038635D01*
X-4999000Y8694983D01*
X-4999000Y8378777D01*
X-5005148Y8380000D01*
X-5005153Y8380000D01*
X-5080000Y8394888D01*
X-5154847Y8380000D01*
X-6041710Y8380000D01*
X-6074365Y8412655D01*
X-6418017Y8555000D01*
X-6789983Y8555000D01*
X-7133635Y8412655D01*
X-7396655Y8149635D01*
X-7539000Y7805983D01*
X-24956444Y7805983D01*
X-24988182Y7882603D01*
X-25293397Y8187818D01*
X-25692180Y8353000D01*
X-26123820Y8353000D01*
X-26522603Y8187818D01*
X-26765000Y7945421D01*
X-26765000Y13390579D01*
X-26522603Y13148182D01*
X-26123820Y12983000D01*
X-25692180Y12983000D01*
X-25293397Y13148182D01*
X-24988182Y13453397D01*
X-24823000Y13852180D01*
X-24823000Y13901983D01*
X-17191000Y13901983D01*
X-17191000Y13530017D01*
X-17048655Y13186365D01*
X-17015999Y13153709D01*
X-17016000Y12500290D01*
X-17048655Y12467635D01*
X-17191000Y12123983D01*
X-17191000Y11752017D01*
X-17048655Y11408365D01*
X-16785635Y11145345D01*
X-16441983Y11003000D01*
X-16070017Y11003000D01*
X-15726365Y11145345D01*
X-15463345Y11408365D01*
X-15321000Y11752017D01*
X-15321000Y12123983D01*
X-15463345Y12467635D01*
X-15496000Y12500290D01*
X-15496000Y13153710D01*
X-15463345Y13186365D01*
X-15321000Y13530017D01*
X-15321000Y13901983D01*
X-15426210Y14155983D01*
X-3983000Y14155983D01*
X-3983000Y13784017D01*
X-3840655Y13440365D01*
X-3808000Y13407710D01*
X-3807999Y12500291D01*
X-3840655Y12467635D01*
X-3983000Y12123983D01*
X-3983000Y11752017D01*
X-3840655Y11408365D01*
X-3577635Y11145345D01*
X-3233983Y11003000D01*
X-2862017Y11003000D01*
X-2518365Y11145345D01*
X-2255345Y11408365D01*
X-2113000Y11752017D01*
X-2113000Y12123983D01*
X-2255345Y12467635D01*
X-2288000Y12500290D01*
X-2288000Y13407710D01*
X-2255345Y13440365D01*
X-2113000Y13784017D01*
X-2113000Y14155983D01*
X-2255345Y14499635D01*
X-2518365Y14762655D01*
X-2862017Y14905000D01*
X-3233983Y14905000D01*
X-3577635Y14762655D01*
X-3840655Y14499635D01*
X-3983000Y14155983D01*
X-15426210Y14155983D01*
X-15463345Y14245635D01*
X-15726365Y14508655D01*
X-16070017Y14651000D01*
X-16441983Y14651000D01*
X-16785635Y14508655D01*
X-17048655Y14245635D01*
X-17191000Y13901983D01*
X-24823000Y13901983D01*
X-24823000Y14283820D01*
X-24988182Y14682603D01*
X-25293397Y14987818D01*
X-25692180Y15153000D01*
X-26123820Y15153000D01*
X-26522603Y14987818D01*
X-26765000Y14745421D01*
X-26765000Y18024167D01*
X-23738160Y18024167D01*
X-23736576Y18000000D01*
X-23738160Y17975833D01*
X-23731851Y17927910D01*
X-23723863Y17806041D01*
X-23712873Y17783755D01*
X-23676402Y17506734D01*
X-23681250Y17482362D01*
X-23657424Y17362579D01*
X-23651115Y17314657D01*
X-23643330Y17291724D01*
X-23638605Y17267968D01*
X-23620106Y17223308D01*
X-23580850Y17107663D01*
X-23564466Y17088980D01*
X-23457539Y16830837D01*
X-23455914Y16806043D01*
X-23401898Y16696508D01*
X-23383400Y16651850D01*
X-23369945Y16631714D01*
X-23359233Y16609991D01*
X-23329805Y16571640D01*
X-23261955Y16470095D01*
X-23241294Y16456290D01*
X-23071200Y16234618D01*
X-23063212Y16211087D01*
X-22982688Y16119267D01*
X-22953262Y16080918D01*
X-22935052Y16064948D01*
X-22919082Y16046738D01*
X-22880732Y16017311D01*
X-22788913Y15936788D01*
X-22765383Y15928801D01*
X-22543709Y15758705D01*
X-22529905Y15738045D01*
X-22428367Y15670200D01*
X-22390010Y15640767D01*
X-22368284Y15630053D01*
X-22348150Y15616600D01*
X-22303497Y15598104D01*
X-22193958Y15544086D01*
X-22169163Y15542461D01*
X-21911019Y15435534D01*
X-21892337Y15419150D01*
X-21776697Y15379896D01*
X-21732033Y15361395D01*
X-21708275Y15356669D01*
X-21685343Y15348885D01*
X-21637423Y15342576D01*
X-21517638Y15318750D01*
X-21493267Y15323598D01*
X-21216245Y15287127D01*
X-21193959Y15276137D01*
X-21072092Y15268149D01*
X-21024168Y15261840D01*
X-21000000Y15263424D01*
X-20975833Y15261840D01*
X-20927910Y15268149D01*
X-20806040Y15276137D01*
X-20783753Y15287128D01*
X-20506734Y15323598D01*
X-20482362Y15318750D01*
X-20362579Y15342576D01*
X-20314657Y15348885D01*
X-20291724Y15356670D01*
X-20267968Y15361395D01*
X-20223308Y15379894D01*
X-20107663Y15419150D01*
X-20088980Y15435534D01*
X-19830837Y15542461D01*
X-19806043Y15544086D01*
X-19696508Y15598102D01*
X-19651850Y15616600D01*
X-19631714Y15630055D01*
X-19609991Y15640767D01*
X-19571640Y15670195D01*
X-19470095Y15738045D01*
X-19456290Y15758706D01*
X-19234618Y15928800D01*
X-19211087Y15936788D01*
X-19119267Y16017312D01*
X-19080918Y16046738D01*
X-19064948Y16064948D01*
X-19046738Y16080918D01*
X-19017311Y16119268D01*
X-18936788Y16211087D01*
X-18928801Y16234617D01*
X-18758705Y16456291D01*
X-18738045Y16470095D01*
X-18670200Y16571633D01*
X-18640767Y16609990D01*
X-18630053Y16631716D01*
X-18616600Y16651850D01*
X-18598104Y16696503D01*
X-18544086Y16806042D01*
X-18542461Y16830837D01*
X-18435534Y17088981D01*
X-18419150Y17107663D01*
X-18379896Y17223303D01*
X-18361395Y17267967D01*
X-18356669Y17291725D01*
X-18348885Y17314657D01*
X-18342576Y17362577D01*
X-18318750Y17482362D01*
X-18323598Y17506733D01*
X-18287127Y17783754D01*
X-18276137Y17806040D01*
X-18268149Y17927908D01*
X-18261840Y17975832D01*
X-18263424Y18000000D01*
X-18261840Y18024168D01*
X-18268149Y18072092D01*
X-18276137Y18193960D01*
X-18287127Y18216246D01*
X-18323598Y18493267D01*
X-18318750Y18517638D01*
X-18342576Y18637423D01*
X-18348885Y18685343D01*
X-18356669Y18708275D01*
X-18361395Y18732033D01*
X-18379896Y18776697D01*
X-18419150Y18892337D01*
X-18435534Y18911019D01*
X-18542461Y19169163D01*
X-18544086Y19193958D01*
X-18598104Y19303497D01*
X-18616600Y19348150D01*
X-18630053Y19368284D01*
X-18640767Y19390010D01*
X-18670200Y19428367D01*
X-18738045Y19529905D01*
X-18758705Y19543709D01*
X-18928801Y19765383D01*
X-18936788Y19788913D01*
X-19017311Y19880732D01*
X-19046738Y19919082D01*
X-19064948Y19935052D01*
X-19080918Y19953262D01*
X-19119267Y19982688D01*
X-19211087Y20063212D01*
X-19234618Y20071200D01*
X-19456290Y20241294D01*
X-19470095Y20261955D01*
X-19556965Y20320000D01*
X-13960092Y20320000D01*
X-13844839Y19740582D01*
X-13516625Y19249375D01*
X-13218239Y19050000D01*
X-13516625Y18850625D01*
X-13844839Y18359418D01*
X-13960092Y17780000D01*
X-13844839Y17200582D01*
X-13516625Y16709375D01*
X-13025418Y16381161D01*
X-12592256Y16295000D01*
X-12299744Y16295000D01*
X-11866582Y16381161D01*
X-11375375Y16709375D01*
X-11047161Y17200582D01*
X-10931908Y17780000D01*
X-11047161Y18359418D01*
X-11375375Y18850625D01*
X-11673761Y19050000D01*
X-11375375Y19249375D01*
X-11047161Y19740582D01*
X-10931908Y20320000D01*
X-11047161Y20899418D01*
X-11375375Y21390625D01*
X-11694478Y21603843D01*
X-11564642Y21664817D01*
X-11174355Y22093076D01*
X-11004524Y22503110D01*
X-11125845Y22733000D01*
X-12319000Y22733000D01*
X-12319000Y22713000D01*
X-12573000Y22713000D01*
X-12573000Y22733000D01*
X-13766155Y22733000D01*
X-13887476Y22503110D01*
X-13717645Y22093076D01*
X-13327358Y21664817D01*
X-13197522Y21603843D01*
X-13516625Y21390625D01*
X-13844839Y20899418D01*
X-13960092Y20320000D01*
X-19556965Y20320000D01*
X-19571640Y20329805D01*
X-19609991Y20359233D01*
X-19631714Y20369945D01*
X-19651850Y20383400D01*
X-19696508Y20401898D01*
X-19806043Y20455914D01*
X-19830837Y20457539D01*
X-20088980Y20564466D01*
X-20107663Y20580850D01*
X-20223308Y20620106D01*
X-20267968Y20638605D01*
X-20291724Y20643330D01*
X-20314657Y20651115D01*
X-20362579Y20657424D01*
X-20482362Y20681250D01*
X-20506734Y20676402D01*
X-20783753Y20712872D01*
X-20806040Y20723863D01*
X-20927910Y20731851D01*
X-20975833Y20738160D01*
X-21000000Y20736576D01*
X-21024168Y20738160D01*
X-21072092Y20731851D01*
X-21193959Y20723863D01*
X-21216245Y20712873D01*
X-21493267Y20676402D01*
X-21517638Y20681250D01*
X-21637423Y20657424D01*
X-21685343Y20651115D01*
X-21708275Y20643331D01*
X-21732033Y20638605D01*
X-21776697Y20620104D01*
X-21892337Y20580850D01*
X-21911019Y20564466D01*
X-22169163Y20457539D01*
X-22193958Y20455914D01*
X-22303497Y20401896D01*
X-22348150Y20383400D01*
X-22368284Y20369947D01*
X-22390010Y20359233D01*
X-22428367Y20329800D01*
X-22529905Y20261955D01*
X-22543709Y20241295D01*
X-22765383Y20071199D01*
X-22788913Y20063212D01*
X-22880732Y19982689D01*
X-22919082Y19953262D01*
X-22935052Y19935052D01*
X-22953262Y19919082D01*
X-22982688Y19880733D01*
X-23063212Y19788913D01*
X-23071200Y19765382D01*
X-23241294Y19543710D01*
X-23261955Y19529905D01*
X-23329805Y19428360D01*
X-23359233Y19390009D01*
X-23369945Y19368286D01*
X-23383400Y19348150D01*
X-23401898Y19303492D01*
X-23455914Y19193957D01*
X-23457539Y19169163D01*
X-23564466Y18911020D01*
X-23580850Y18892337D01*
X-23620106Y18776692D01*
X-23638605Y18732032D01*
X-23643330Y18708276D01*
X-23651115Y18685343D01*
X-23657424Y18637421D01*
X-23681250Y18517638D01*
X-23676402Y18493266D01*
X-23712873Y18216245D01*
X-23723863Y18193959D01*
X-23731851Y18072090D01*
X-23738160Y18024167D01*
X-26765000Y18024167D01*
X-26765000Y19951831D01*
X-26732808Y20196356D01*
X-26657018Y20379328D01*
X-26536451Y20536454D01*
X-26379329Y20657018D01*
X-26196356Y20732808D01*
X-25951831Y20765000D01*
X-16524044Y20765000D01*
X-16475833Y20761840D01*
X-16451830Y20765000D01*
X-16427612Y20765000D01*
X-16380209Y20774429D01*
X-16136143Y20806561D01*
X-16111771Y20801713D01*
X-15991993Y20825538D01*
X-15944067Y20831848D01*
X-15921130Y20839634D01*
X-15897376Y20844359D01*
X-15852722Y20862855D01*
X-15737072Y20902113D01*
X-15718388Y20918498D01*
X-15580838Y20975474D01*
X-15556042Y20977099D01*
X-15446509Y21031115D01*
X-15401850Y21049613D01*
X-15381711Y21063069D01*
X-15359990Y21073781D01*
X-15321643Y21103205D01*
X-15220095Y21171058D01*
X-15206289Y21191720D01*
X-15088172Y21282355D01*
X-15064642Y21290342D01*
X-14972816Y21370871D01*
X-14934472Y21400293D01*
X-14918506Y21418499D01*
X-14900293Y21434471D01*
X-14870860Y21472828D01*
X-14790342Y21564642D01*
X-14782355Y21588170D01*
X-14691719Y21706290D01*
X-14671059Y21720094D01*
X-14603212Y21821634D01*
X-14573781Y21859989D01*
X-14563067Y21881714D01*
X-14549613Y21901850D01*
X-14531117Y21946503D01*
X-14477099Y22056041D01*
X-14475474Y22080837D01*
X-14418498Y22218389D01*
X-14402113Y22237072D01*
X-14362857Y22352717D01*
X-14344359Y22397375D01*
X-14339634Y22421131D01*
X-14331848Y22444067D01*
X-14325539Y22491990D01*
X-14301713Y22611770D01*
X-14306561Y22636142D01*
X-14274429Y22880211D01*
X-14265000Y22927612D01*
X-14265000Y22951829D01*
X-14261840Y22975832D01*
X-14265000Y23024044D01*
X-14265000Y26250000D01*
X-13943440Y26250000D01*
X-13943440Y24550000D01*
X-13894157Y24302235D01*
X-13753809Y24092191D01*
X-13543765Y23951843D01*
X-13440292Y23931261D01*
X-13717645Y23626924D01*
X-13887476Y23216890D01*
X-13766155Y22987000D01*
X-12573000Y22987000D01*
X-12573000Y23007000D01*
X-12319000Y23007000D01*
X-12319000Y22987000D01*
X-11125845Y22987000D01*
X-11004524Y23216890D01*
X-11174355Y23626924D01*
X-11451708Y23931261D01*
X-11348235Y23951843D01*
X-11138191Y24092191D01*
X-10997843Y24302235D01*
X-10948560Y24550000D01*
X-10948560Y26250000D01*
X-10997843Y26497765D01*
X-11138191Y26707809D01*
X-11348235Y26848157D01*
X-11596000Y26897440D01*
X-13296000Y26897440D01*
X-13543765Y26848157D01*
X-13753809Y26707809D01*
X-13894157Y26497765D01*
X-13943440Y26250000D01*
X-14265000Y26250000D01*
X-14265000Y26451831D01*
X-14232808Y26696356D01*
X-14157018Y26879328D01*
X-14036451Y27036454D01*
X-13879329Y27157018D01*
X-13696356Y27232808D01*
X-13451831Y27265000D01*
X-7239000Y27265000D01*
X-7239000Y21844000D01*
X-7239000Y21844000D01*
G37*
X-7239000Y21844000D02*
X-7229333Y21795399D01*
X-7201803Y21754197D01*
X-7160601Y21726667D01*
X-7112000Y21717000D01*
X7620000Y21717000D01*
X7668601Y21726667D01*
X7709803Y21754197D01*
X7737333Y21795399D01*
X7747000Y21844000D01*
X7747000Y27265000D01*
X13451831Y27265000D01*
X13696356Y27232808D01*
X13879328Y27157018D01*
X14036454Y27036451D01*
X14157018Y26879329D01*
X14232808Y26696356D01*
X14265000Y26451831D01*
X14265001Y23024059D01*
X14261840Y22975833D01*
X14265001Y22951823D01*
X14265001Y22927612D01*
X14274427Y22880224D01*
X14306561Y22636143D01*
X14301713Y22611771D01*
X14325538Y22491993D01*
X14331848Y22444067D01*
X14339634Y22421130D01*
X14344359Y22397376D01*
X14362855Y22352722D01*
X14402113Y22237072D01*
X14418498Y22218388D01*
X14475474Y22080838D01*
X14477099Y22056042D01*
X14531115Y21946509D01*
X14549613Y21901850D01*
X14563069Y21881711D01*
X14573781Y21859990D01*
X14603205Y21821643D01*
X14671058Y21720095D01*
X14691720Y21706289D01*
X14782355Y21588172D01*
X14790342Y21564642D01*
X14870871Y21472816D01*
X14900293Y21434472D01*
X14918499Y21418506D01*
X14934471Y21400293D01*
X14972828Y21370860D01*
X15064642Y21290342D01*
X15088170Y21282355D01*
X15206290Y21191719D01*
X15220094Y21171059D01*
X15321634Y21103212D01*
X15359989Y21073781D01*
X15381714Y21063067D01*
X15401850Y21049613D01*
X15446503Y21031117D01*
X15556041Y20977099D01*
X15580837Y20975474D01*
X15718389Y20918498D01*
X15737072Y20902113D01*
X15852717Y20862857D01*
X15897375Y20844359D01*
X15921131Y20839634D01*
X15944067Y20831848D01*
X15991990Y20825539D01*
X16111770Y20801713D01*
X16136142Y20806561D01*
X16380211Y20774429D01*
X16427612Y20765000D01*
X16451829Y20765000D01*
X16475832Y20761840D01*
X16524044Y20765000D01*
X25951831Y20765000D01*
X26196356Y20732808D01*
X26379328Y20657018D01*
X26536454Y20536451D01*
X26657018Y20379329D01*
X26732808Y20196356D01*
X26765000Y19951831D01*
X26765001Y-19951823D01*
X26732808Y-20196356D01*
X26657018Y-20379329D01*
X26536454Y-20536451D01*
X26379328Y-20657018D01*
X26196356Y-20732808D01*
X25951831Y-20765000D01*
X16524044Y-20765000D01*
X16475832Y-20761840D01*
X16451829Y-20765000D01*
X16427612Y-20765000D01*
X16380211Y-20774429D01*
X16136142Y-20806561D01*
X16111770Y-20801713D01*
X15991990Y-20825539D01*
X15944067Y-20831848D01*
X15921131Y-20839634D01*
X15897375Y-20844359D01*
X15852717Y-20862857D01*
X15737072Y-20902113D01*
X15718389Y-20918498D01*
X15580837Y-20975474D01*
X15556041Y-20977099D01*
X15446503Y-21031117D01*
X15401850Y-21049613D01*
X15381714Y-21063067D01*
X15359989Y-21073781D01*
X15321634Y-21103212D01*
X15220094Y-21171059D01*
X15206290Y-21191719D01*
X15088170Y-21282355D01*
X15064642Y-21290342D01*
X14972828Y-21370860D01*
X14934471Y-21400293D01*
X14918499Y-21418506D01*
X14900293Y-21434472D01*
X14870871Y-21472816D01*
X14790342Y-21564642D01*
X14782355Y-21588172D01*
X14691720Y-21706289D01*
X14671058Y-21720095D01*
X14603205Y-21821643D01*
X14573781Y-21859990D01*
X14563069Y-21881711D01*
X14549613Y-21901850D01*
X14531115Y-21946509D01*
X14477099Y-22056042D01*
X14475474Y-22080838D01*
X14418498Y-22218388D01*
X14402113Y-22237072D01*
X14362855Y-22352722D01*
X14344359Y-22397376D01*
X14339634Y-22421130D01*
X14331848Y-22444067D01*
X14325538Y-22491993D01*
X14301713Y-22611771D01*
X14306561Y-22636143D01*
X14274429Y-22880212D01*
X14265000Y-22927613D01*
X14265000Y-22951830D01*
X14261840Y-22975833D01*
X14265000Y-23024045D01*
X14265001Y-26451824D01*
X14232808Y-26696356D01*
X14157018Y-26879329D01*
X14036454Y-27036451D01*
X13879328Y-27157018D01*
X13696356Y-27232808D01*
X13451831Y-27265000D01*
X-1010771Y-27265000D01*
X-964843Y-27196265D01*
X-915560Y-26948500D01*
X-915560Y-25248500D01*
X-964843Y-25000735D01*
X-1105191Y-24790691D01*
X-1315235Y-24650343D01*
X-1563000Y-24601060D01*
X-3263000Y-24601060D01*
X-3510765Y-24650343D01*
X-3720809Y-24790691D01*
X-3861157Y-25000735D01*
X-3870184Y-25046119D01*
X-3882375Y-25027875D01*
X-4373582Y-24699661D01*
X-4806744Y-24613500D01*
X-5099256Y-24613500D01*
X-5532418Y-24699661D01*
X-6023625Y-25027875D01*
X-6223000Y-25326261D01*
X-6422375Y-25027875D01*
X-6913582Y-24699661D01*
X-7346744Y-24613500D01*
X-7639256Y-24613500D01*
X-8072418Y-24699661D01*
X-8563625Y-25027875D01*
X-8763000Y-25326261D01*
X-8962375Y-25027875D01*
X-9453582Y-24699661D01*
X-9886744Y-24613500D01*
X-10179256Y-24613500D01*
X-10612418Y-24699661D01*
X-11103625Y-25027875D01*
X-11303000Y-25326261D01*
X-11502375Y-25027875D01*
X-11993582Y-24699661D01*
X-12426744Y-24613500D01*
X-12719256Y-24613500D01*
X-13152418Y-24699661D01*
X-13643625Y-25027875D01*
X-13971839Y-25519082D01*
X-14087092Y-26098500D01*
X-13971839Y-26677918D01*
X-13643625Y-27169125D01*
X-13511991Y-27257080D01*
X-13696356Y-27232808D01*
X-13879329Y-27157018D01*
X-14036451Y-27036454D01*
X-14157018Y-26879328D01*
X-14232808Y-26696356D01*
X-14265000Y-26451831D01*
X-14265000Y-23024044D01*
X-14261840Y-22975832D01*
X-14265000Y-22951829D01*
X-14265000Y-22927612D01*
X-14274429Y-22880211D01*
X-14306561Y-22636142D01*
X-14301713Y-22611770D01*
X-14325539Y-22491990D01*
X-14331848Y-22444067D01*
X-14339634Y-22421131D01*
X-14344359Y-22397375D01*
X-14362857Y-22352717D01*
X-14402113Y-22237072D01*
X-14418498Y-22218389D01*
X-14475474Y-22080837D01*
X-14477099Y-22056041D01*
X-14531117Y-21946503D01*
X-14549613Y-21901850D01*
X-14563067Y-21881714D01*
X-14573781Y-21859989D01*
X-14603212Y-21821634D01*
X-14671059Y-21720094D01*
X-14691719Y-21706290D01*
X-14782355Y-21588170D01*
X-14790342Y-21564642D01*
X-14870860Y-21472828D01*
X-14900293Y-21434471D01*
X-14918506Y-21418499D01*
X-14934472Y-21400293D01*
X-14972816Y-21370871D01*
X-15064642Y-21290342D01*
X-15088172Y-21282355D01*
X-15206289Y-21191720D01*
X-15220095Y-21171058D01*
X-15321643Y-21103205D01*
X-15359990Y-21073781D01*
X-15381711Y-21063069D01*
X-15401850Y-21049613D01*
X-15446509Y-21031115D01*
X-15556042Y-20977099D01*
X-15580838Y-20975474D01*
X-15718388Y-20918498D01*
X-15737072Y-20902113D01*
X-15852722Y-20862855D01*
X-15897376Y-20844359D01*
X-15921130Y-20839634D01*
X-15944067Y-20831848D01*
X-15991993Y-20825538D01*
X-16111771Y-20801713D01*
X-16136143Y-20806561D01*
X-16380209Y-20774429D01*
X-16427612Y-20765000D01*
X-16451830Y-20765000D01*
X-16475833Y-20761840D01*
X-16524044Y-20765000D01*
X-26077755Y-20765000D01*
X-26182206Y-20751249D01*
X-26369783Y-20673552D01*
X-26530859Y-20549954D01*
X-26654458Y-20388876D01*
X-26732157Y-20201297D01*
X-26765000Y-19951829D01*
X-26765000Y-17975833D01*
X-23738160Y-17975833D01*
X-23736576Y-18000000D01*
X-23738160Y-18024167D01*
X-23731851Y-18072090D01*
X-23723863Y-18193959D01*
X-23712873Y-18216245D01*
X-23676402Y-18493266D01*
X-23681250Y-18517638D01*
X-23657424Y-18637421D01*
X-23651115Y-18685343D01*
X-23643330Y-18708276D01*
X-23638605Y-18732032D01*
X-23620106Y-18776692D01*
X-23580850Y-18892337D01*
X-23564466Y-18911020D01*
X-23457539Y-19169163D01*
X-23455914Y-19193957D01*
X-23401898Y-19303492D01*
X-23383400Y-19348150D01*
X-23369945Y-19368286D01*
X-23359233Y-19390009D01*
X-23329805Y-19428360D01*
X-23261955Y-19529905D01*
X-23241294Y-19543710D01*
X-23071200Y-19765382D01*
X-23063212Y-19788913D01*
X-22982688Y-19880733D01*
X-22953262Y-19919082D01*
X-22935052Y-19935052D01*
X-22919082Y-19953262D01*
X-22880732Y-19982689D01*
X-22788913Y-20063212D01*
X-22765383Y-20071199D01*
X-22543709Y-20241295D01*
X-22529905Y-20261955D01*
X-22428367Y-20329800D01*
X-22390010Y-20359233D01*
X-22368284Y-20369947D01*
X-22348150Y-20383400D01*
X-22303497Y-20401896D01*
X-22193958Y-20455914D01*
X-22169163Y-20457539D01*
X-21911019Y-20564466D01*
X-21892337Y-20580850D01*
X-21776697Y-20620104D01*
X-21732033Y-20638605D01*
X-21708275Y-20643331D01*
X-21685343Y-20651115D01*
X-21637423Y-20657424D01*
X-21517638Y-20681250D01*
X-21493267Y-20676402D01*
X-21216245Y-20712873D01*
X-21193959Y-20723863D01*
X-21072092Y-20731851D01*
X-21024168Y-20738160D01*
X-21000000Y-20736576D01*
X-20975833Y-20738160D01*
X-20927910Y-20731851D01*
X-20806040Y-20723863D01*
X-20783753Y-20712872D01*
X-20506734Y-20676402D01*
X-20482362Y-20681250D01*
X-20362579Y-20657424D01*
X-20314657Y-20651115D01*
X-20291724Y-20643330D01*
X-20267968Y-20638605D01*
X-20223308Y-20620106D01*
X-20107663Y-20580850D01*
X-20088980Y-20564466D01*
X-19830837Y-20457539D01*
X-19806043Y-20455914D01*
X-19696508Y-20401898D01*
X-19651850Y-20383400D01*
X-19631714Y-20369945D01*
X-19609991Y-20359233D01*
X-19571640Y-20329805D01*
X-19470095Y-20261955D01*
X-19456290Y-20241294D01*
X-19234618Y-20071200D01*
X-19211087Y-20063212D01*
X-19119267Y-19982688D01*
X-19080918Y-19953262D01*
X-19064948Y-19935052D01*
X-19046738Y-19919082D01*
X-19017311Y-19880732D01*
X-18936788Y-19788913D01*
X-18928801Y-19765383D01*
X-18758705Y-19543709D01*
X-18738045Y-19529905D01*
X-18670200Y-19428367D01*
X-18640767Y-19390010D01*
X-18630053Y-19368284D01*
X-18616600Y-19348150D01*
X-18598104Y-19303497D01*
X-18544086Y-19193958D01*
X-18542461Y-19169163D01*
X-18435534Y-18911019D01*
X-18419150Y-18892337D01*
X-18379896Y-18776697D01*
X-18361395Y-18732033D01*
X-18356669Y-18708275D01*
X-18348885Y-18685343D01*
X-18342576Y-18637423D01*
X-18318750Y-18517638D01*
X-18323598Y-18493267D01*
X-18287127Y-18216246D01*
X-18276137Y-18193960D01*
X-18268149Y-18072092D01*
X-18261840Y-18024168D01*
X-18263424Y-18000000D01*
X-18261840Y-17975832D01*
X-18268149Y-17927908D01*
X-18276137Y-17806040D01*
X-18287127Y-17783754D01*
X-18323598Y-17506733D01*
X-18318750Y-17482362D01*
X-18342576Y-17362577D01*
X-18348885Y-17314657D01*
X-18356669Y-17291725D01*
X-18361395Y-17267967D01*
X-18379896Y-17223303D01*
X-18419150Y-17107663D01*
X-18435534Y-17088981D01*
X-18542461Y-16830837D01*
X-18544086Y-16806042D01*
X-18598104Y-16696503D01*
X-18616600Y-16651850D01*
X-18630053Y-16631716D01*
X-18640767Y-16609990D01*
X-18670200Y-16571633D01*
X-18738045Y-16470095D01*
X-18758705Y-16456291D01*
X-18928801Y-16234617D01*
X-18936788Y-16211087D01*
X-19017311Y-16119268D01*
X-19046738Y-16080918D01*
X-19064948Y-16064948D01*
X-19080918Y-16046738D01*
X-19119267Y-16017312D01*
X-19211087Y-15936788D01*
X-19234618Y-15928800D01*
X-19456290Y-15758706D01*
X-19470095Y-15738045D01*
X-19571640Y-15670195D01*
X-19609991Y-15640767D01*
X-19631714Y-15630055D01*
X-19651850Y-15616600D01*
X-19696508Y-15598102D01*
X-19806043Y-15544086D01*
X-19830837Y-15542461D01*
X-20088980Y-15435534D01*
X-20107663Y-15419150D01*
X-20223308Y-15379894D01*
X-20267968Y-15361395D01*
X-20291724Y-15356670D01*
X-20314657Y-15348885D01*
X-20362579Y-15342576D01*
X-20482362Y-15318750D01*
X-20506734Y-15323598D01*
X-20783753Y-15287128D01*
X-20806040Y-15276137D01*
X-20927910Y-15268149D01*
X-20975833Y-15261840D01*
X-21000000Y-15263424D01*
X-21024168Y-15261840D01*
X-21072092Y-15268149D01*
X-21193959Y-15276137D01*
X-21216245Y-15287127D01*
X-21493267Y-15323598D01*
X-21517638Y-15318750D01*
X-21637423Y-15342576D01*
X-21685343Y-15348885D01*
X-21708275Y-15356669D01*
X-21732033Y-15361395D01*
X-21776697Y-15379896D01*
X-21892337Y-15419150D01*
X-21911019Y-15435534D01*
X-22169163Y-15542461D01*
X-22193958Y-15544086D01*
X-22303497Y-15598104D01*
X-22348150Y-15616600D01*
X-22368284Y-15630053D01*
X-22390010Y-15640767D01*
X-22428367Y-15670200D01*
X-22529905Y-15738045D01*
X-22543709Y-15758705D01*
X-22765383Y-15928801D01*
X-22788913Y-15936788D01*
X-22880732Y-16017311D01*
X-22919082Y-16046738D01*
X-22935052Y-16064948D01*
X-22953262Y-16080918D01*
X-22982688Y-16119267D01*
X-23063212Y-16211087D01*
X-23071200Y-16234618D01*
X-23241294Y-16456290D01*
X-23261955Y-16470095D01*
X-23329805Y-16571640D01*
X-23359233Y-16609991D01*
X-23369945Y-16631714D01*
X-23383400Y-16651850D01*
X-23401898Y-16696508D01*
X-23455914Y-16806043D01*
X-23457539Y-16830837D01*
X-23564466Y-17088980D01*
X-23580850Y-17107663D01*
X-23620106Y-17223308D01*
X-23638605Y-17267968D01*
X-23643330Y-17291724D01*
X-23651115Y-17314657D01*
X-23657424Y-17362579D01*
X-23681250Y-17482362D01*
X-23676402Y-17506734D01*
X-23712873Y-17783755D01*
X-23723863Y-17806041D01*
X-23731851Y-17927910D01*
X-23738160Y-17975833D01*
X-26765000Y-17975833D01*
X-26765000Y-14609517D01*
X1932500Y-14609517D01*
X1932500Y-14981483D01*
X2074845Y-15325135D01*
X2123186Y-15373476D01*
X2151596Y-15516301D01*
X2319572Y-15767693D01*
X2383028Y-15810093D01*
X2825407Y-16252473D01*
X2835484Y-16267555D01*
X2578345Y-16524694D01*
X2436000Y-16868346D01*
X2436000Y-17240312D01*
X2578345Y-17583964D01*
X2622594Y-17628213D01*
X2561716Y-17775185D01*
X2561716Y-18147151D01*
X2704061Y-18490803D01*
X2967081Y-18753823D01*
X3310733Y-18896168D01*
X3682699Y-18896168D01*
X4026351Y-18753823D01*
X4289371Y-18490803D01*
X4431716Y-18147151D01*
X4431716Y-18100969D01*
X4754686Y-17778000D01*
X5025710Y-17778000D01*
X5058365Y-17810655D01*
X5402017Y-17953000D01*
X5773983Y-17953000D01*
X6117635Y-17810655D01*
X6380655Y-17547635D01*
X6523000Y-17203983D01*
X6523000Y-16832017D01*
X6380655Y-16488365D01*
X6348271Y-16455981D01*
X6506617Y-16297635D01*
X6648962Y-15953983D01*
X6648962Y-15582017D01*
X6506617Y-15238365D01*
X6243597Y-14975345D01*
X5899945Y-14833000D01*
X5527979Y-14833000D01*
X5184327Y-14975345D01*
X5151672Y-15008000D01*
X3791516Y-15008000D01*
X3802500Y-14981483D01*
X3802500Y-14609517D01*
X3660155Y-14265865D01*
X3397135Y-14002845D01*
X3053483Y-13860500D01*
X2681517Y-13860500D01*
X2337865Y-14002845D01*
X2074845Y-14265865D01*
X1932500Y-14609517D01*
X-26765000Y-14609517D01*
X-26765000Y-12999963D01*
X-24211000Y-12999963D01*
X-24211000Y-13352037D01*
X-24076267Y-13677312D01*
X-23827312Y-13926267D01*
X-23502037Y-14061000D01*
X-23149963Y-14061000D01*
X-22824688Y-13926267D01*
X-22575733Y-13677312D01*
X-22441000Y-13352037D01*
X-22441000Y-12999963D01*
X-22575733Y-12674688D01*
X-22824688Y-12425733D01*
X-23149963Y-12291000D01*
X-23502037Y-12291000D01*
X-23827312Y-12425733D01*
X-24076267Y-12674688D01*
X-24211000Y-12999963D01*
X-26765000Y-12999963D01*
X-26765000Y-8999963D01*
X-24211000Y-8999963D01*
X-24211000Y-9352037D01*
X-24076267Y-9677312D01*
X-23827312Y-9926267D01*
X-23502037Y-10061000D01*
X-23149963Y-10061000D01*
X-22824688Y-9926267D01*
X-22575733Y-9677312D01*
X-22441000Y-9352037D01*
X-22441000Y-8999963D01*
X-22575733Y-8674688D01*
X-22824688Y-8425733D01*
X-23149963Y-8291000D01*
X-23502037Y-8291000D01*
X-23827312Y-8425733D01*
X-24076267Y-8674688D01*
X-24211000Y-8999963D01*
X-26765000Y-8999963D01*
X-26765000Y-4259017D01*
X-15921000Y-4259017D01*
X-15921000Y-4630983D01*
X-15778655Y-4974635D01*
X-15515635Y-5237655D01*
X-15171983Y-5380000D01*
X-14800017Y-5380000D01*
X-14456365Y-5237655D01*
X-14193345Y-4974635D01*
X-14051000Y-4630983D01*
X-14051000Y-4584801D01*
X-12458150Y-2991951D01*
X-12360865Y-2951655D01*
X-12097845Y-2688635D01*
X-11955500Y-2344983D01*
X-11955500Y-1973017D01*
X-12097845Y-1629365D01*
X-12360865Y-1366345D01*
X-12704517Y-1224000D01*
X-13076483Y-1224000D01*
X-13420135Y-1366345D01*
X-13683155Y-1629365D01*
X-13825500Y-1973017D01*
X-13825500Y-2209698D01*
X-15125801Y-3510000D01*
X-15171983Y-3510000D01*
X-15515635Y-3652345D01*
X-15778655Y-3915365D01*
X-15921000Y-4259017D01*
X-26765000Y-4259017D01*
X-26765000Y-957017D01*
X-8431001Y-957017D01*
X-8431001Y-1328983D01*
X-8288656Y-1672635D01*
X-8025636Y-1935655D01*
X-7681984Y-2078000D01*
X-7310018Y-2078000D01*
X-6966366Y-1935655D01*
X-6933711Y-1903000D01*
X-4696790Y-1903000D01*
X-4600635Y-1999155D01*
X-4256983Y-2141500D01*
X-3885017Y-2141500D01*
X-3541365Y-1999155D01*
X-3278345Y-1736135D01*
X-3136000Y-1392483D01*
X-3136000Y-1020517D01*
X-3278345Y-676865D01*
X-3541365Y-413845D01*
X-3885017Y-271500D01*
X-4256983Y-271500D01*
X-4526168Y-383000D01*
X-6933711Y-383000D01*
X-6966366Y-350345D01*
X-7310018Y-208000D01*
X-7681984Y-208000D01*
X-8025636Y-350345D01*
X-8288656Y-613365D01*
X-8431001Y-957017D01*
X-26765000Y-957017D01*
X-26765000Y6590579D01*
X-26522603Y6348182D01*
X-26123820Y6183000D01*
X-25692180Y6183000D01*
X-25293397Y6348182D01*
X-24988182Y6653397D01*
X-24823000Y7052180D01*
X-24823000Y7483820D01*
X-24956444Y7805983D01*
X-7539000Y7805983D01*
X-7539000Y7434017D01*
X-7396655Y7090365D01*
X-7133635Y6827345D01*
X-6789983Y6685000D01*
X-6418017Y6685000D01*
X-6074365Y6827345D01*
X-6041710Y6860000D01*
X-5394801Y6860000D01*
X-3808000Y5273198D01*
X-3808000Y5103723D01*
X-3846000Y5011983D01*
X-3846000Y4640017D01*
X-3703655Y4296365D01*
X-3440635Y4033345D01*
X-3096983Y3891000D01*
X-2725017Y3891000D01*
X-2381365Y4033345D01*
X-2286000Y4128710D01*
X-2190635Y4033345D01*
X-1846983Y3891000D01*
X-1475017Y3891000D01*
X-1131365Y4033345D01*
X-868345Y4296365D01*
X-726000Y4640017D01*
X-726000Y4666446D01*
X-722071Y4669071D01*
X-615878Y4828000D01*
X-304290Y4828000D01*
X-538655Y4593635D01*
X-681000Y4249983D01*
X-681000Y3878017D01*
X-538655Y3534365D01*
X-275635Y3271345D01*
X68017Y3129000D01*
X159226Y3129000D01*
X211463Y3094096D01*
X433148Y3050000D01*
X433152Y3050000D01*
X507999Y3035112D01*
X582846Y3050000D01*
X5788235Y3050000D01*
X5788235Y2849136D01*
X5877303Y2634106D01*
X5702198Y2459000D01*
X5656017Y2459000D01*
X5312365Y2316655D01*
X5049345Y2053635D01*
X4907000Y1709983D01*
X4907000Y1338017D01*
X5049345Y994365D01*
X5312365Y731345D01*
X5656017Y589000D01*
X6027983Y589000D01*
X6371635Y731345D01*
X6634655Y994365D01*
X6777000Y1338017D01*
X6777000Y1384198D01*
X7207710Y1814908D01*
X7271164Y1857306D01*
X7313562Y1920759D01*
X7313564Y1920761D01*
X7402347Y2053635D01*
X7439139Y2108698D01*
X7483235Y2330383D01*
X7483235Y2330387D01*
X7498123Y2405234D01*
X7484438Y2474032D01*
X7515890Y2505484D01*
X7658235Y2849136D01*
X7658235Y3050000D01*
X8351201Y3050000D01*
X7643530Y2342329D01*
X7580071Y2299927D01*
X7412096Y2048534D01*
X7368000Y1826849D01*
X7368000Y1826845D01*
X7353112Y1751998D01*
X7368000Y1677151D01*
X7368001Y-19229148D01*
X7353112Y-19304000D01*
X7412097Y-19600537D01*
X7499973Y-19732052D01*
X7580072Y-19851929D01*
X7643528Y-19894329D01*
X7791669Y-20042470D01*
X7834071Y-20105929D01*
X8085463Y-20273904D01*
X8307148Y-20318000D01*
X8307152Y-20318000D01*
X8381999Y-20332888D01*
X8456846Y-20318000D01*
X9135822Y-20318000D01*
X9343375Y-20628625D01*
X9834582Y-20956839D01*
X10267744Y-21043000D01*
X10560256Y-21043000D01*
X10993418Y-20956839D01*
X11484625Y-20628625D01*
X11499096Y-20606968D01*
X11565673Y-20767699D01*
X11744302Y-20946327D01*
X11977691Y-21043000D01*
X12668250Y-21043000D01*
X12827000Y-20884250D01*
X12827000Y-19685000D01*
X13081000Y-19685000D01*
X13081000Y-20884250D01*
X13239750Y-21043000D01*
X13930309Y-21043000D01*
X14163698Y-20946327D01*
X14342327Y-20767699D01*
X14439000Y-20534310D01*
X14439000Y-19843750D01*
X14280250Y-19685000D01*
X13081000Y-19685000D01*
X12827000Y-19685000D01*
X12807000Y-19685000D01*
X12807000Y-19431000D01*
X12827000Y-19431000D01*
X12827000Y-19411000D01*
X13081000Y-19411000D01*
X13081000Y-19431000D01*
X14280250Y-19431000D01*
X14439000Y-19272250D01*
X14439000Y-18581690D01*
X14342327Y-18348301D01*
X14163698Y-18169673D01*
X14002967Y-18103096D01*
X14024625Y-18088625D01*
X14099990Y-17975833D01*
X18261840Y-17975833D01*
X18263424Y-18000000D01*
X18261840Y-18024167D01*
X18268149Y-18072090D01*
X18276137Y-18193959D01*
X18287127Y-18216245D01*
X18323598Y-18493266D01*
X18318750Y-18517638D01*
X18342576Y-18637421D01*
X18348885Y-18685343D01*
X18356670Y-18708276D01*
X18361395Y-18732032D01*
X18379894Y-18776692D01*
X18419150Y-18892337D01*
X18435534Y-18911020D01*
X18542461Y-19169163D01*
X18544086Y-19193957D01*
X18598102Y-19303492D01*
X18616600Y-19348150D01*
X18630055Y-19368286D01*
X18640767Y-19390009D01*
X18670195Y-19428360D01*
X18738045Y-19529905D01*
X18758706Y-19543710D01*
X18928800Y-19765382D01*
X18936788Y-19788913D01*
X19017312Y-19880733D01*
X19046738Y-19919082D01*
X19064948Y-19935052D01*
X19080918Y-19953262D01*
X19119268Y-19982689D01*
X19211087Y-20063212D01*
X19234617Y-20071199D01*
X19456291Y-20241295D01*
X19470095Y-20261955D01*
X19571633Y-20329800D01*
X19609990Y-20359233D01*
X19631716Y-20369947D01*
X19651850Y-20383400D01*
X19696503Y-20401896D01*
X19806042Y-20455914D01*
X19830837Y-20457539D01*
X20088981Y-20564466D01*
X20107663Y-20580850D01*
X20223303Y-20620104D01*
X20267967Y-20638605D01*
X20291725Y-20643331D01*
X20314657Y-20651115D01*
X20362577Y-20657424D01*
X20482362Y-20681250D01*
X20506733Y-20676402D01*
X20783755Y-20712873D01*
X20806041Y-20723863D01*
X20927908Y-20731851D01*
X20975832Y-20738160D01*
X21000000Y-20736576D01*
X21024167Y-20738160D01*
X21072090Y-20731851D01*
X21193960Y-20723863D01*
X21216247Y-20712872D01*
X21493266Y-20676402D01*
X21517638Y-20681250D01*
X21637421Y-20657424D01*
X21685343Y-20651115D01*
X21708276Y-20643330D01*
X21732032Y-20638605D01*
X21776692Y-20620106D01*
X21892337Y-20580850D01*
X21911020Y-20564466D01*
X22169163Y-20457539D01*
X22193957Y-20455914D01*
X22303492Y-20401898D01*
X22348150Y-20383400D01*
X22368286Y-20369945D01*
X22390009Y-20359233D01*
X22428360Y-20329805D01*
X22529905Y-20261955D01*
X22543710Y-20241294D01*
X22765382Y-20071200D01*
X22788913Y-20063212D01*
X22880733Y-19982688D01*
X22919082Y-19953262D01*
X22935052Y-19935052D01*
X22953262Y-19919082D01*
X22982689Y-19880732D01*
X23063212Y-19788913D01*
X23071199Y-19765383D01*
X23241295Y-19543709D01*
X23261955Y-19529905D01*
X23329800Y-19428367D01*
X23359233Y-19390010D01*
X23369947Y-19368284D01*
X23383400Y-19348150D01*
X23401896Y-19303497D01*
X23455914Y-19193958D01*
X23457539Y-19169163D01*
X23564466Y-18911019D01*
X23580850Y-18892337D01*
X23620104Y-18776697D01*
X23638605Y-18732033D01*
X23643331Y-18708275D01*
X23651115Y-18685343D01*
X23657424Y-18637423D01*
X23681250Y-18517638D01*
X23676402Y-18493267D01*
X23712873Y-18216246D01*
X23723863Y-18193960D01*
X23731851Y-18072092D01*
X23738160Y-18024168D01*
X23736576Y-18000000D01*
X23738160Y-17975832D01*
X23731851Y-17927908D01*
X23723863Y-17806040D01*
X23712873Y-17783754D01*
X23676402Y-17506733D01*
X23681250Y-17482362D01*
X23657424Y-17362577D01*
X23651115Y-17314657D01*
X23643331Y-17291725D01*
X23638605Y-17267967D01*
X23620104Y-17223303D01*
X23580850Y-17107663D01*
X23564466Y-17088981D01*
X23457539Y-16830837D01*
X23455914Y-16806042D01*
X23401896Y-16696503D01*
X23383400Y-16651850D01*
X23369947Y-16631716D01*
X23359233Y-16609990D01*
X23329800Y-16571633D01*
X23261955Y-16470095D01*
X23241295Y-16456291D01*
X23071199Y-16234617D01*
X23063212Y-16211087D01*
X22982689Y-16119268D01*
X22953262Y-16080918D01*
X22935052Y-16064948D01*
X22919082Y-16046738D01*
X22880733Y-16017312D01*
X22788913Y-15936788D01*
X22765382Y-15928800D01*
X22543710Y-15758706D01*
X22529905Y-15738045D01*
X22428360Y-15670195D01*
X22390009Y-15640767D01*
X22368286Y-15630055D01*
X22348150Y-15616600D01*
X22303492Y-15598102D01*
X22193957Y-15544086D01*
X22169163Y-15542461D01*
X21911020Y-15435534D01*
X21892337Y-15419150D01*
X21776692Y-15379894D01*
X21732032Y-15361395D01*
X21708276Y-15356670D01*
X21685343Y-15348885D01*
X21637421Y-15342576D01*
X21517638Y-15318750D01*
X21493266Y-15323598D01*
X21216247Y-15287128D01*
X21193960Y-15276137D01*
X21072090Y-15268149D01*
X21024167Y-15261840D01*
X21000000Y-15263424D01*
X20975832Y-15261840D01*
X20927908Y-15268149D01*
X20806041Y-15276137D01*
X20783755Y-15287127D01*
X20506733Y-15323598D01*
X20482362Y-15318750D01*
X20362577Y-15342576D01*
X20314657Y-15348885D01*
X20291725Y-15356669D01*
X20267967Y-15361395D01*
X20223303Y-15379896D01*
X20107663Y-15419150D01*
X20088981Y-15435534D01*
X19830837Y-15542461D01*
X19806042Y-15544086D01*
X19696503Y-15598104D01*
X19651850Y-15616600D01*
X19631716Y-15630053D01*
X19609990Y-15640767D01*
X19571633Y-15670200D01*
X19470095Y-15738045D01*
X19456291Y-15758705D01*
X19234617Y-15928801D01*
X19211087Y-15936788D01*
X19119268Y-16017311D01*
X19080918Y-16046738D01*
X19064948Y-16064948D01*
X19046738Y-16080918D01*
X19017312Y-16119267D01*
X18936788Y-16211087D01*
X18928800Y-16234618D01*
X18758706Y-16456290D01*
X18738045Y-16470095D01*
X18670195Y-16571640D01*
X18640767Y-16609991D01*
X18630055Y-16631714D01*
X18616600Y-16651850D01*
X18598102Y-16696508D01*
X18544086Y-16806043D01*
X18542461Y-16830837D01*
X18435534Y-17088980D01*
X18419150Y-17107663D01*
X18379894Y-17223308D01*
X18361395Y-17267968D01*
X18356670Y-17291724D01*
X18348885Y-17314657D01*
X18342576Y-17362579D01*
X18318750Y-17482362D01*
X18323598Y-17506734D01*
X18287127Y-17783755D01*
X18276137Y-17806041D01*
X18268149Y-17927910D01*
X18261840Y-17975833D01*
X14099990Y-17975833D01*
X14352839Y-17597418D01*
X14468092Y-17018000D01*
X14352839Y-16438582D01*
X14024625Y-15947375D01*
X13726239Y-15748000D01*
X14024625Y-15548625D01*
X14352839Y-15057418D01*
X14468092Y-14478000D01*
X14352839Y-13898582D01*
X14024625Y-13407375D01*
X13533418Y-13079161D01*
X13100256Y-12993000D01*
X12807744Y-12993000D01*
X12374582Y-13079161D01*
X11883375Y-13407375D01*
X11684000Y-13705761D01*
X11484625Y-13407375D01*
X10993418Y-13079161D01*
X10560256Y-12993000D01*
X10267744Y-12993000D01*
X9834582Y-13079161D01*
X9343375Y-13407375D01*
X9015161Y-13898582D01*
X8899908Y-14478000D01*
X9015161Y-15057418D01*
X9343375Y-15548625D01*
X9641761Y-15748000D01*
X9343375Y-15947375D01*
X9015161Y-16438582D01*
X8899908Y-17018000D01*
X9015161Y-17597418D01*
X9343375Y-18088625D01*
X9641761Y-18288000D01*
X9343375Y-18487375D01*
X9135822Y-18798000D01*
X8888000Y-18798000D01*
X8888000Y1437197D01*
X9771000Y2320197D01*
X9771001Y-7408148D01*
X9756112Y-7483000D01*
X9771001Y-7557852D01*
X9815097Y-7779537D01*
X9983072Y-8030929D01*
X10046528Y-8073329D01*
X10496791Y-8523592D01*
X10423908Y-8890000D01*
X10539161Y-9469418D01*
X10867375Y-9960625D01*
X11358582Y-10288839D01*
X11791744Y-10375000D01*
X12084256Y-10375000D01*
X12517418Y-10288839D01*
X13008625Y-9960625D01*
X13336839Y-9469418D01*
X13452092Y-8890000D01*
X13336839Y-8310582D01*
X13008625Y-7819375D01*
X12710239Y-7620000D01*
X13008625Y-7420625D01*
X13336839Y-6929418D01*
X13452092Y-6350000D01*
X13336839Y-5770582D01*
X13008625Y-5279375D01*
X12710239Y-5080000D01*
X13008625Y-4880625D01*
X13336839Y-4389418D01*
X13452092Y-3810000D01*
X13336839Y-3230582D01*
X13008625Y-2739375D01*
X12710239Y-2540000D01*
X13008625Y-2340625D01*
X13336839Y-1849418D01*
X13452092Y-1270000D01*
X13336839Y-690582D01*
X13008625Y-199375D01*
X12710239Y0D01*
X13008625Y199375D01*
X13336839Y690582D01*
X13452092Y1270000D01*
X13336839Y1849418D01*
X13008625Y2340625D01*
X12710239Y2540000D01*
X13008625Y2739375D01*
X13336839Y3230582D01*
X13452092Y3810000D01*
X13336839Y4389418D01*
X13008625Y4880625D01*
X12689522Y5093843D01*
X12819358Y5154817D01*
X13209645Y5583076D01*
X13379476Y5993110D01*
X13258155Y6223000D01*
X12065000Y6223000D01*
X12065000Y6203000D01*
X11811000Y6203000D01*
X11811000Y6223000D01*
X11791000Y6223000D01*
X11791000Y6477000D01*
X11811000Y6477000D01*
X11811000Y6497000D01*
X12065000Y6497000D01*
X12065000Y6477000D01*
X13258155Y6477000D01*
X13379476Y6706890D01*
X13209645Y7116924D01*
X12932292Y7421261D01*
X13035765Y7441843D01*
X13245809Y7582191D01*
X13386157Y7792235D01*
X13435440Y8040000D01*
X13435440Y9740000D01*
X13386157Y9987765D01*
X13245809Y10197809D01*
X13035765Y10338157D01*
X12788000Y10387440D01*
X11088000Y10387440D01*
X10840235Y10338157D01*
X10630191Y10197809D01*
X10489843Y9987765D01*
X10440560Y9740000D01*
X10440560Y9193860D01*
X10390473Y9227327D01*
X9904000Y9713799D01*
X9904000Y11375710D01*
X9936655Y11408365D01*
X10079000Y11752017D01*
X10079000Y11803001D01*
X13284198Y11803001D01*
X14522671Y10564527D01*
X14565071Y10501071D01*
X14628527Y10458671D01*
X14816462Y10333096D01*
X14864605Y10323520D01*
X15038148Y10289000D01*
X15038152Y10289000D01*
X15113000Y10274112D01*
X15187848Y10289000D01*
X23931322Y10289000D01*
X24138875Y9978375D01*
X24630082Y9650161D01*
X25063244Y9564000D01*
X25355756Y9564000D01*
X25788918Y9650161D01*
X26280125Y9978375D01*
X26608339Y10469582D01*
X26723592Y11049000D01*
X26608339Y11628418D01*
X26280125Y12119625D01*
X25981739Y12319000D01*
X26280125Y12518375D01*
X26608339Y13009582D01*
X26723592Y13589000D01*
X26608339Y14168418D01*
X26280125Y14659625D01*
X25981739Y14859000D01*
X26280125Y15058375D01*
X26608339Y15549582D01*
X26723592Y16129000D01*
X26608339Y16708418D01*
X26280125Y17199625D01*
X26261881Y17211816D01*
X26307265Y17220843D01*
X26517309Y17361191D01*
X26657657Y17571235D01*
X26706940Y17819000D01*
X26706940Y19519000D01*
X26657657Y19766765D01*
X26517309Y19976809D01*
X26307265Y20117157D01*
X26059500Y20166440D01*
X24359500Y20166440D01*
X24111735Y20117157D01*
X23901691Y19976809D01*
X23761343Y19766765D01*
X23712060Y19519000D01*
X23712060Y19317483D01*
X23561571Y19216929D01*
X23519169Y19153470D01*
X23480187Y19114488D01*
X23457539Y19169163D01*
X23455914Y19193958D01*
X23401896Y19303497D01*
X23383400Y19348150D01*
X23369947Y19368284D01*
X23359233Y19390010D01*
X23329800Y19428367D01*
X23261955Y19529905D01*
X23241295Y19543709D01*
X23071199Y19765383D01*
X23063212Y19788913D01*
X22982689Y19880732D01*
X22953262Y19919082D01*
X22935052Y19935052D01*
X22919082Y19953262D01*
X22880733Y19982688D01*
X22788913Y20063212D01*
X22765382Y20071200D01*
X22543710Y20241294D01*
X22529905Y20261955D01*
X22428360Y20329805D01*
X22390009Y20359233D01*
X22368286Y20369945D01*
X22348150Y20383400D01*
X22303492Y20401898D01*
X22193957Y20455914D01*
X22169163Y20457539D01*
X21911020Y20564466D01*
X21892337Y20580850D01*
X21776692Y20620106D01*
X21732032Y20638605D01*
X21708276Y20643330D01*
X21685343Y20651115D01*
X21637421Y20657424D01*
X21517638Y20681250D01*
X21493266Y20676402D01*
X21216247Y20712872D01*
X21193960Y20723863D01*
X21072090Y20731851D01*
X21024167Y20738160D01*
X21000000Y20736576D01*
X20975832Y20738160D01*
X20927908Y20731851D01*
X20806041Y20723863D01*
X20783755Y20712873D01*
X20506733Y20676402D01*
X20482362Y20681250D01*
X20362577Y20657424D01*
X20314657Y20651115D01*
X20291725Y20643331D01*
X20267967Y20638605D01*
X20223303Y20620104D01*
X20107663Y20580850D01*
X20088981Y20564466D01*
X19830837Y20457539D01*
X19806042Y20455914D01*
X19696503Y20401896D01*
X19651850Y20383400D01*
X19631716Y20369947D01*
X19609990Y20359233D01*
X19571633Y20329800D01*
X19470095Y20261955D01*
X19456291Y20241295D01*
X19234617Y20071199D01*
X19211087Y20063212D01*
X19119268Y19982689D01*
X19080918Y19953262D01*
X19064948Y19935052D01*
X19046738Y19919082D01*
X19017312Y19880733D01*
X18936788Y19788913D01*
X18928800Y19765382D01*
X18758706Y19543710D01*
X18738045Y19529905D01*
X18670195Y19428360D01*
X18640767Y19390009D01*
X18630055Y19368286D01*
X18616600Y19348150D01*
X18598102Y19303492D01*
X18544086Y19193957D01*
X18542461Y19169163D01*
X18435534Y18911020D01*
X18419150Y18892337D01*
X18379894Y18776692D01*
X18361395Y18732032D01*
X18356670Y18708276D01*
X18348885Y18685343D01*
X18342576Y18637421D01*
X18318750Y18517638D01*
X18323598Y18493266D01*
X18287127Y18216245D01*
X18276137Y18193959D01*
X18268149Y18072090D01*
X18261840Y18024167D01*
X18263424Y18000000D01*
X18261840Y17975833D01*
X18268149Y17927910D01*
X18276137Y17806041D01*
X18287127Y17783755D01*
X18323598Y17506734D01*
X18318750Y17482362D01*
X18342576Y17362579D01*
X18348885Y17314657D01*
X18356670Y17291724D01*
X18361395Y17267968D01*
X18379894Y17223308D01*
X18419150Y17107663D01*
X18435534Y17088980D01*
X18542461Y16830837D01*
X18544086Y16806043D01*
X18598102Y16696508D01*
X18616600Y16651850D01*
X18630055Y16631714D01*
X18640767Y16609991D01*
X18670195Y16571640D01*
X18738045Y16470095D01*
X18758706Y16456290D01*
X18928800Y16234618D01*
X18936788Y16211087D01*
X19017312Y16119267D01*
X19046738Y16080918D01*
X19064948Y16064948D01*
X19080918Y16046738D01*
X19119268Y16017311D01*
X19211087Y15936788D01*
X19234617Y15928801D01*
X19456291Y15758705D01*
X19470095Y15738045D01*
X19571633Y15670200D01*
X19609990Y15640767D01*
X19631716Y15630053D01*
X19651850Y15616600D01*
X19696503Y15598104D01*
X19806042Y15544086D01*
X19830837Y15542461D01*
X20088981Y15435534D01*
X20107663Y15419150D01*
X20223303Y15379896D01*
X20267967Y15361395D01*
X20291725Y15356669D01*
X20314657Y15348885D01*
X20362577Y15342576D01*
X20482362Y15318750D01*
X20506733Y15323598D01*
X20783755Y15287127D01*
X20806041Y15276137D01*
X20927908Y15268149D01*
X20975832Y15261840D01*
X21000000Y15263424D01*
X21024167Y15261840D01*
X21072090Y15268149D01*
X21193960Y15276137D01*
X21216247Y15287128D01*
X21493266Y15323598D01*
X21517638Y15318750D01*
X21637421Y15342576D01*
X21685343Y15348885D01*
X21708276Y15356670D01*
X21732032Y15361395D01*
X21776692Y15379894D01*
X21892337Y15419150D01*
X21911020Y15435534D01*
X22169163Y15542461D01*
X22193957Y15544086D01*
X22303492Y15598102D01*
X22348150Y15616600D01*
X22368286Y15630055D01*
X22390009Y15640767D01*
X22428360Y15670195D01*
X22529905Y15738045D01*
X22543710Y15758706D01*
X22765382Y15928800D01*
X22788913Y15936788D01*
X22880733Y16017312D01*
X22919082Y16046738D01*
X22925500Y16054057D01*
X22925500Y15618302D01*
X21931028Y14623829D01*
X21867572Y14581429D01*
X21825172Y14517973D01*
X21825171Y14517972D01*
X21699597Y14330037D01*
X21640612Y14033500D01*
X21655501Y13958649D01*
X21655500Y13333000D01*
X15938622Y13333000D01*
X14811641Y14459980D01*
X14769239Y14523439D01*
X14517847Y14691414D01*
X14296162Y14735510D01*
X14296157Y14735510D01*
X14221310Y14750398D01*
X14146463Y14735510D01*
X3191856Y14735510D01*
X3117009Y14750398D01*
X3042162Y14735510D01*
X3042158Y14735510D01*
X2820473Y14691414D01*
X2759989Y14651000D01*
X2632536Y14565839D01*
X2632534Y14565837D01*
X2569081Y14523439D01*
X2526683Y14459986D01*
X912528Y12845829D01*
X849072Y12803429D01*
X806672Y12739973D01*
X806671Y12739972D01*
X681097Y12552037D01*
X622112Y12255500D01*
X637001Y12180648D01*
X637000Y10106437D01*
X622112Y10031590D01*
X637000Y9956743D01*
X637000Y9956739D01*
X681096Y9735054D01*
X849071Y9483661D01*
X894173Y9453525D01*
X843000Y9329983D01*
X843000Y9269000D01*
X-3501710Y9269000D01*
X-3534365Y9301655D01*
X-3878017Y9444000D01*
X-4249983Y9444000D01*
X-4593635Y9301655D01*
X-4856655Y9038635D01*
X-4999000Y8694983D01*
X-4999000Y8378777D01*
X-5005148Y8380000D01*
X-5005153Y8380000D01*
X-5080000Y8394888D01*
X-5154847Y8380000D01*
X-6041710Y8380000D01*
X-6074365Y8412655D01*
X-6418017Y8555000D01*
X-6789983Y8555000D01*
X-7133635Y8412655D01*
X-7396655Y8149635D01*
X-7539000Y7805983D01*
X-24956444Y7805983D01*
X-24988182Y7882603D01*
X-25293397Y8187818D01*
X-25692180Y8353000D01*
X-26123820Y8353000D01*
X-26522603Y8187818D01*
X-26765000Y7945421D01*
X-26765000Y13390579D01*
X-26522603Y13148182D01*
X-26123820Y12983000D01*
X-25692180Y12983000D01*
X-25293397Y13148182D01*
X-24988182Y13453397D01*
X-24823000Y13852180D01*
X-24823000Y13901983D01*
X-17191000Y13901983D01*
X-17191000Y13530017D01*
X-17048655Y13186365D01*
X-17015999Y13153709D01*
X-17016000Y12500290D01*
X-17048655Y12467635D01*
X-17191000Y12123983D01*
X-17191000Y11752017D01*
X-17048655Y11408365D01*
X-16785635Y11145345D01*
X-16441983Y11003000D01*
X-16070017Y11003000D01*
X-15726365Y11145345D01*
X-15463345Y11408365D01*
X-15321000Y11752017D01*
X-15321000Y12123983D01*
X-15463345Y12467635D01*
X-15496000Y12500290D01*
X-15496000Y13153710D01*
X-15463345Y13186365D01*
X-15321000Y13530017D01*
X-15321000Y13901983D01*
X-15426210Y14155983D01*
X-3983000Y14155983D01*
X-3983000Y13784017D01*
X-3840655Y13440365D01*
X-3808000Y13407710D01*
X-3807999Y12500291D01*
X-3840655Y12467635D01*
X-3983000Y12123983D01*
X-3983000Y11752017D01*
X-3840655Y11408365D01*
X-3577635Y11145345D01*
X-3233983Y11003000D01*
X-2862017Y11003000D01*
X-2518365Y11145345D01*
X-2255345Y11408365D01*
X-2113000Y11752017D01*
X-2113000Y12123983D01*
X-2255345Y12467635D01*
X-2288000Y12500290D01*
X-2288000Y13407710D01*
X-2255345Y13440365D01*
X-2113000Y13784017D01*
X-2113000Y14155983D01*
X-2255345Y14499635D01*
X-2518365Y14762655D01*
X-2862017Y14905000D01*
X-3233983Y14905000D01*
X-3577635Y14762655D01*
X-3840655Y14499635D01*
X-3983000Y14155983D01*
X-15426210Y14155983D01*
X-15463345Y14245635D01*
X-15726365Y14508655D01*
X-16070017Y14651000D01*
X-16441983Y14651000D01*
X-16785635Y14508655D01*
X-17048655Y14245635D01*
X-17191000Y13901983D01*
X-24823000Y13901983D01*
X-24823000Y14283820D01*
X-24988182Y14682603D01*
X-25293397Y14987818D01*
X-25692180Y15153000D01*
X-26123820Y15153000D01*
X-26522603Y14987818D01*
X-26765000Y14745421D01*
X-26765000Y18024167D01*
X-23738160Y18024167D01*
X-23736576Y18000000D01*
X-23738160Y17975833D01*
X-23731851Y17927910D01*
X-23723863Y17806041D01*
X-23712873Y17783755D01*
X-23676402Y17506734D01*
X-23681250Y17482362D01*
X-23657424Y17362579D01*
X-23651115Y17314657D01*
X-23643330Y17291724D01*
X-23638605Y17267968D01*
X-23620106Y17223308D01*
X-23580850Y17107663D01*
X-23564466Y17088980D01*
X-23457539Y16830837D01*
X-23455914Y16806043D01*
X-23401898Y16696508D01*
X-23383400Y16651850D01*
X-23369945Y16631714D01*
X-23359233Y16609991D01*
X-23329805Y16571640D01*
X-23261955Y16470095D01*
X-23241294Y16456290D01*
X-23071200Y16234618D01*
X-23063212Y16211087D01*
X-22982688Y16119267D01*
X-22953262Y16080918D01*
X-22935052Y16064948D01*
X-22919082Y16046738D01*
X-22880732Y16017311D01*
X-22788913Y15936788D01*
X-22765383Y15928801D01*
X-22543709Y15758705D01*
X-22529905Y15738045D01*
X-22428367Y15670200D01*
X-22390010Y15640767D01*
X-22368284Y15630053D01*
X-22348150Y15616600D01*
X-22303497Y15598104D01*
X-22193958Y15544086D01*
X-22169163Y15542461D01*
X-21911019Y15435534D01*
X-21892337Y15419150D01*
X-21776697Y15379896D01*
X-21732033Y15361395D01*
X-21708275Y15356669D01*
X-21685343Y15348885D01*
X-21637423Y15342576D01*
X-21517638Y15318750D01*
X-21493267Y15323598D01*
X-21216245Y15287127D01*
X-21193959Y15276137D01*
X-21072092Y15268149D01*
X-21024168Y15261840D01*
X-21000000Y15263424D01*
X-20975833Y15261840D01*
X-20927910Y15268149D01*
X-20806040Y15276137D01*
X-20783753Y15287128D01*
X-20506734Y15323598D01*
X-20482362Y15318750D01*
X-20362579Y15342576D01*
X-20314657Y15348885D01*
X-20291724Y15356670D01*
X-20267968Y15361395D01*
X-20223308Y15379894D01*
X-20107663Y15419150D01*
X-20088980Y15435534D01*
X-19830837Y15542461D01*
X-19806043Y15544086D01*
X-19696508Y15598102D01*
X-19651850Y15616600D01*
X-19631714Y15630055D01*
X-19609991Y15640767D01*
X-19571640Y15670195D01*
X-19470095Y15738045D01*
X-19456290Y15758706D01*
X-19234618Y15928800D01*
X-19211087Y15936788D01*
X-19119267Y16017312D01*
X-19080918Y16046738D01*
X-19064948Y16064948D01*
X-19046738Y16080918D01*
X-19017311Y16119268D01*
X-18936788Y16211087D01*
X-18928801Y16234617D01*
X-18758705Y16456291D01*
X-18738045Y16470095D01*
X-18670200Y16571633D01*
X-18640767Y16609990D01*
X-18630053Y16631716D01*
X-18616600Y16651850D01*
X-18598104Y16696503D01*
X-18544086Y16806042D01*
X-18542461Y16830837D01*
X-18435534Y17088981D01*
X-18419150Y17107663D01*
X-18379896Y17223303D01*
X-18361395Y17267967D01*
X-18356669Y17291725D01*
X-18348885Y17314657D01*
X-18342576Y17362577D01*
X-18318750Y17482362D01*
X-18323598Y17506733D01*
X-18287127Y17783754D01*
X-18276137Y17806040D01*
X-18268149Y17927908D01*
X-18261840Y17975832D01*
X-18263424Y18000000D01*
X-18261840Y18024168D01*
X-18268149Y18072092D01*
X-18276137Y18193960D01*
X-18287127Y18216246D01*
X-18323598Y18493267D01*
X-18318750Y18517638D01*
X-18342576Y18637423D01*
X-18348885Y18685343D01*
X-18356669Y18708275D01*
X-18361395Y18732033D01*
X-18379896Y18776697D01*
X-18419150Y18892337D01*
X-18435534Y18911019D01*
X-18542461Y19169163D01*
X-18544086Y19193958D01*
X-18598104Y19303497D01*
X-18616600Y19348150D01*
X-18630053Y19368284D01*
X-18640767Y19390010D01*
X-18670200Y19428367D01*
X-18738045Y19529905D01*
X-18758705Y19543709D01*
X-18928801Y19765383D01*
X-18936788Y19788913D01*
X-19017311Y19880732D01*
X-19046738Y19919082D01*
X-19064948Y19935052D01*
X-19080918Y19953262D01*
X-19119267Y19982688D01*
X-19211087Y20063212D01*
X-19234618Y20071200D01*
X-19456290Y20241294D01*
X-19470095Y20261955D01*
X-19556965Y20320000D01*
X-13960092Y20320000D01*
X-13844839Y19740582D01*
X-13516625Y19249375D01*
X-13218239Y19050000D01*
X-13516625Y18850625D01*
X-13844839Y18359418D01*
X-13960092Y17780000D01*
X-13844839Y17200582D01*
X-13516625Y16709375D01*
X-13025418Y16381161D01*
X-12592256Y16295000D01*
X-12299744Y16295000D01*
X-11866582Y16381161D01*
X-11375375Y16709375D01*
X-11047161Y17200582D01*
X-10931908Y17780000D01*
X-11047161Y18359418D01*
X-11375375Y18850625D01*
X-11673761Y19050000D01*
X-11375375Y19249375D01*
X-11047161Y19740582D01*
X-10931908Y20320000D01*
X-11047161Y20899418D01*
X-11375375Y21390625D01*
X-11694478Y21603843D01*
X-11564642Y21664817D01*
X-11174355Y22093076D01*
X-11004524Y22503110D01*
X-11125845Y22733000D01*
X-12319000Y22733000D01*
X-12319000Y22713000D01*
X-12573000Y22713000D01*
X-12573000Y22733000D01*
X-13766155Y22733000D01*
X-13887476Y22503110D01*
X-13717645Y22093076D01*
X-13327358Y21664817D01*
X-13197522Y21603843D01*
X-13516625Y21390625D01*
X-13844839Y20899418D01*
X-13960092Y20320000D01*
X-19556965Y20320000D01*
X-19571640Y20329805D01*
X-19609991Y20359233D01*
X-19631714Y20369945D01*
X-19651850Y20383400D01*
X-19696508Y20401898D01*
X-19806043Y20455914D01*
X-19830837Y20457539D01*
X-20088980Y20564466D01*
X-20107663Y20580850D01*
X-20223308Y20620106D01*
X-20267968Y20638605D01*
X-20291724Y20643330D01*
X-20314657Y20651115D01*
X-20362579Y20657424D01*
X-20482362Y20681250D01*
X-20506734Y20676402D01*
X-20783753Y20712872D01*
X-20806040Y20723863D01*
X-20927910Y20731851D01*
X-20975833Y20738160D01*
X-21000000Y20736576D01*
X-21024168Y20738160D01*
X-21072092Y20731851D01*
X-21193959Y20723863D01*
X-21216245Y20712873D01*
X-21493267Y20676402D01*
X-21517638Y20681250D01*
X-21637423Y20657424D01*
X-21685343Y20651115D01*
X-21708275Y20643331D01*
X-21732033Y20638605D01*
X-21776697Y20620104D01*
X-21892337Y20580850D01*
X-21911019Y20564466D01*
X-22169163Y20457539D01*
X-22193958Y20455914D01*
X-22303497Y20401896D01*
X-22348150Y20383400D01*
X-22368284Y20369947D01*
X-22390010Y20359233D01*
X-22428367Y20329800D01*
X-22529905Y20261955D01*
X-22543709Y20241295D01*
X-22765383Y20071199D01*
X-22788913Y20063212D01*
X-22880732Y19982689D01*
X-22919082Y19953262D01*
X-22935052Y19935052D01*
X-22953262Y19919082D01*
X-22982688Y19880733D01*
X-23063212Y19788913D01*
X-23071200Y19765382D01*
X-23241294Y19543710D01*
X-23261955Y19529905D01*
X-23329805Y19428360D01*
X-23359233Y19390009D01*
X-23369945Y19368286D01*
X-23383400Y19348150D01*
X-23401898Y19303492D01*
X-23455914Y19193957D01*
X-23457539Y19169163D01*
X-23564466Y18911020D01*
X-23580850Y18892337D01*
X-23620106Y18776692D01*
X-23638605Y18732032D01*
X-23643330Y18708276D01*
X-23651115Y18685343D01*
X-23657424Y18637421D01*
X-23681250Y18517638D01*
X-23676402Y18493266D01*
X-23712873Y18216245D01*
X-23723863Y18193959D01*
X-23731851Y18072090D01*
X-23738160Y18024167D01*
X-26765000Y18024167D01*
X-26765000Y19951831D01*
X-26732808Y20196356D01*
X-26657018Y20379328D01*
X-26536451Y20536454D01*
X-26379329Y20657018D01*
X-26196356Y20732808D01*
X-25951831Y20765000D01*
X-16524044Y20765000D01*
X-16475833Y20761840D01*
X-16451830Y20765000D01*
X-16427612Y20765000D01*
X-16380209Y20774429D01*
X-16136143Y20806561D01*
X-16111771Y20801713D01*
X-15991993Y20825538D01*
X-15944067Y20831848D01*
X-15921130Y20839634D01*
X-15897376Y20844359D01*
X-15852722Y20862855D01*
X-15737072Y20902113D01*
X-15718388Y20918498D01*
X-15580838Y20975474D01*
X-15556042Y20977099D01*
X-15446509Y21031115D01*
X-15401850Y21049613D01*
X-15381711Y21063069D01*
X-15359990Y21073781D01*
X-15321643Y21103205D01*
X-15220095Y21171058D01*
X-15206289Y21191720D01*
X-15088172Y21282355D01*
X-15064642Y21290342D01*
X-14972816Y21370871D01*
X-14934472Y21400293D01*
X-14918506Y21418499D01*
X-14900293Y21434471D01*
X-14870860Y21472828D01*
X-14790342Y21564642D01*
X-14782355Y21588170D01*
X-14691719Y21706290D01*
X-14671059Y21720094D01*
X-14603212Y21821634D01*
X-14573781Y21859989D01*
X-14563067Y21881714D01*
X-14549613Y21901850D01*
X-14531117Y21946503D01*
X-14477099Y22056041D01*
X-14475474Y22080837D01*
X-14418498Y22218389D01*
X-14402113Y22237072D01*
X-14362857Y22352717D01*
X-14344359Y22397375D01*
X-14339634Y22421131D01*
X-14331848Y22444067D01*
X-14325539Y22491990D01*
X-14301713Y22611770D01*
X-14306561Y22636142D01*
X-14274429Y22880211D01*
X-14265000Y22927612D01*
X-14265000Y22951829D01*
X-14261840Y22975832D01*
X-14265000Y23024044D01*
X-14265000Y26250000D01*
X-13943440Y26250000D01*
X-13943440Y24550000D01*
X-13894157Y24302235D01*
X-13753809Y24092191D01*
X-13543765Y23951843D01*
X-13440292Y23931261D01*
X-13717645Y23626924D01*
X-13887476Y23216890D01*
X-13766155Y22987000D01*
X-12573000Y22987000D01*
X-12573000Y23007000D01*
X-12319000Y23007000D01*
X-12319000Y22987000D01*
X-11125845Y22987000D01*
X-11004524Y23216890D01*
X-11174355Y23626924D01*
X-11451708Y23931261D01*
X-11348235Y23951843D01*
X-11138191Y24092191D01*
X-10997843Y24302235D01*
X-10948560Y24550000D01*
X-10948560Y26250000D01*
X-10997843Y26497765D01*
X-11138191Y26707809D01*
X-11348235Y26848157D01*
X-11596000Y26897440D01*
X-13296000Y26897440D01*
X-13543765Y26848157D01*
X-13753809Y26707809D01*
X-13894157Y26497765D01*
X-13943440Y26250000D01*
X-14265000Y26250000D01*
X-14265000Y26451831D01*
X-14232808Y26696356D01*
X-14157018Y26879328D01*
X-14036451Y27036454D01*
X-13879329Y27157018D01*
X-13696356Y27232808D01*
X-13451831Y27265000D01*
X-7239000Y27265000D01*
X-7239000Y21844000D01*
G36*
X8384001Y9473850D02*
X8369112Y9398998D01*
X8428097Y9102461D01*
X8540971Y8933534D01*
X8596072Y8851069D01*
X8659528Y8808669D01*
X9146000Y8322196D01*
X9146001Y6041887D01*
X9034116Y6153772D01*
X8690464Y6296117D01*
X8318498Y6296117D01*
X7974846Y6153772D01*
X7942191Y6121117D01*
X5875685Y6121117D01*
X5134184Y6862617D01*
X5355635Y6954345D01*
X5485369Y7084079D01*
X5529017Y7066000D01*
X5900983Y7066000D01*
X6244635Y7208345D01*
X6507655Y7471365D01*
X6650000Y7815017D01*
X6650000Y8186983D01*
X6507655Y8530635D01*
X6244635Y8793655D01*
X5900983Y8936000D01*
X5854802Y8936000D01*
X3808000Y10982801D01*
X3808000Y11032002D01*
X3878017Y11003000D01*
X4249983Y11003000D01*
X4593635Y11145345D01*
X4626290Y11178000D01*
X8384000Y11178000D01*
X8384001Y9473850D01*
X8384001Y9473850D01*
G37*
X8384001Y9473850D02*
X8369112Y9398998D01*
X8428097Y9102461D01*
X8540971Y8933534D01*
X8596072Y8851069D01*
X8659528Y8808669D01*
X9146000Y8322196D01*
X9146001Y6041887D01*
X9034116Y6153772D01*
X8690464Y6296117D01*
X8318498Y6296117D01*
X7974846Y6153772D01*
X7942191Y6121117D01*
X5875685Y6121117D01*
X5134184Y6862617D01*
X5355635Y6954345D01*
X5485369Y7084079D01*
X5529017Y7066000D01*
X5900983Y7066000D01*
X6244635Y7208345D01*
X6507655Y7471365D01*
X6650000Y7815017D01*
X6650000Y8186983D01*
X6507655Y8530635D01*
X6244635Y8793655D01*
X5900983Y8936000D01*
X5854802Y8936000D01*
X3808000Y10982801D01*
X3808000Y11032002D01*
X3878017Y11003000D01*
X4249983Y11003000D01*
X4593635Y11145345D01*
X4626290Y11178000D01*
X8384000Y11178000D01*
X8384001Y9473850D01*
G04 #@! TD*
M02*
