M48
;DRILL file {KiCad (5.0.2)-1} date 28/11/2020 9:45:25 PM
;FORMAT={3:3/ absolute / metric / suppress trailing zeros}
FMAT,2
METRIC,LZ
T1C0.400
T2C1.000
T3C0.500
T4C0.900
%
G90
G05
T1
X-026289Y-003175
X-025908Y-003937
X-025019Y018034
X-025019Y-004699
X-021019Y0087
X-020828Y-014986
X-020193Y002413
X-018288Y-007874
X-01778Y-015748
X-017653Y002413
X-017526Y-019558
X-017145Y-01778
X-016828Y019368
X-016256Y013716
X-016256Y011938
X-015621Y-019685
X-015494Y001778
X-015367Y-017907
X-015113Y-01651
X-014986Y-004445
X-014669Y008382
X-014224Y000889
X-012891Y-002159
X-011684Y005969
X-011621Y001334
X-011557Y00762
X-011049Y013589
X-009144Y001778
X-008001Y-003175
X-007874Y005461
X-007496Y-001143
X-007493Y-019431
X-006604Y00762
X-006096Y-009906
X-004191Y-016764
X-004071Y-001207
X-004064Y008509
X-00381Y-015367
X-003683Y-019431
X-003048Y01397
X-003048Y011938
X-002911Y004826
X-002667Y017907
X-002667Y017907
X-002667Y017907
X-002159Y02032
X-001661Y004826
X-00127Y-01397
X-001143Y010033
X-000635Y015367
X-000381Y011303
X0Y013081
X000127Y-019621
X000254Y004064
X000635Y-011557
X001016Y004826
X001143Y015748
X001524Y01905
X001778Y009144
X002032Y005197
X002794Y009271
X002868Y-014795
X002921Y016891
X003371Y-017054
X003497Y-017961
X003937Y-019558
X004064Y016891
X004064Y011938
X004572Y020638
X004826Y007747
X00508Y-016393
X005588Y-017018
X005714Y-015768
X005715Y008001
X005715Y003175
X005842Y001524
X006723Y003035
X008504Y005361
X008636Y016383
X008636Y004572
X009144Y011938
X009261Y00381
X009271Y007239
X010531Y004636
X010541Y020638
X013335Y011176
X015494Y017272
T2
X-012446Y0254
X-012446Y02286
X-012446Y02032
X-012446Y01778
X-012573Y-026098
X-010033Y-026098
X-007493Y-026098
X-004953Y-026098
X-002413Y-026098
X010414Y-014478
X010414Y-017018
X010414Y-019558
X012954Y-014478
X012954Y-017018
X012954Y-019558
X011938Y00889
X011938Y00635
X011938Y00381
X011938Y00127
X011938Y-00127
X011938Y-00381
X011938Y-00635
X011938Y-00889
X02521Y018669
X02521Y016129
X02521Y013589
X02521Y011049
T3
X-023326Y-009176
X-023326Y-013176
T4
X-025908Y014068
X-025908Y007268
T0
M30
