G04 #@! TF.GenerationSoftware,KiCad,Pcbnew,(5.0.2)-1*
G04 #@! TF.CreationDate,2020-11-28T21:44:54+10:00*
G04 #@! TF.ProjectId,trailer leveler,74726169-6c65-4722-906c-6576656c6572,1*
G04 #@! TF.SameCoordinates,Original*
G04 #@! TF.FileFunction,Profile,NP*
%FSLAX46Y46*%
G04 Gerber Fmt 4.6, Leading zero omitted, Abs format (unit mm)*
G04 Created by KiCad (PCBNEW (5.0.2)-1) date 28/11/2020 9:44:54 PM*
%MOMM*%
%LPD*%
G01*
G04 APERTURE LIST*
%ADD10C,0.200000*%
G04 APERTURE END LIST*
D10*
X-19267949Y-19000000D02*
X-19068148Y-18517638D01*
X-20000000Y-19732051D02*
X-19585786Y-19414214D01*
X-20482362Y-19931852D02*
X-20000000Y-19732051D01*
X-22931852Y18517638D02*
X-23000000Y18000000D01*
X-19267949Y-17000000D02*
X-19585786Y-16585786D01*
X-20482362Y19931852D02*
X-21000000Y20000000D01*
X-19068148Y-17482362D02*
X-19267949Y-17000000D01*
X-19585786Y-19414214D02*
X-19267949Y-19000000D01*
X-22732051Y17000000D02*
X-22414214Y16585786D01*
X-22931852Y17482362D02*
X-22732051Y17000000D01*
X-23000000Y18000000D02*
X-22931852Y17482362D01*
X-22414214Y19414214D02*
X-22732051Y19000000D01*
X-22732051Y19000000D02*
X-22931852Y18517638D01*
X-20000000Y19732051D02*
X-20482362Y19931852D01*
X-22000000Y19732051D02*
X-22414214Y19414214D01*
X-21517638Y-19931852D02*
X-21000000Y-20000000D01*
X-22000000Y-19732051D02*
X-21517638Y-19931852D01*
X-21517638Y19931852D02*
X-22000000Y19732051D01*
X-19585786Y19414214D02*
X-20000000Y19732051D01*
X-21000000Y20000000D02*
X-21517638Y19931852D01*
X-21000000Y-20000000D02*
X-20482362Y-19931852D01*
X-19000000Y-18000000D02*
X-19068148Y-17482362D01*
X-19068148Y-18517638D02*
X-19000000Y-18000000D01*
X22732051Y-17000000D02*
X22414214Y-16585786D01*
X19267949Y-17000000D02*
X19068148Y-17482362D01*
X-21517638Y-16068148D02*
X-22000000Y-16267949D01*
X20482362Y-16068148D02*
X20000000Y-16267949D01*
X-21000000Y-16000000D02*
X-21517638Y-16068148D01*
X22000000Y-16267949D02*
X21517638Y-16068148D01*
X-20482362Y-16068148D02*
X-21000000Y-16000000D01*
X-22732051Y-17000000D02*
X-22931852Y-17482362D01*
X-20000000Y-16267949D02*
X-20482362Y-16068148D01*
X19068148Y-17482362D02*
X19000000Y-18000000D01*
X21000000Y-16000000D02*
X20482362Y-16068148D01*
X-22414214Y-19414214D02*
X-22000000Y-19732051D01*
X20000000Y-16267949D02*
X19585786Y-16585786D01*
X-22732051Y-19000000D02*
X-22414214Y-19414214D01*
X-22931852Y-18517638D02*
X-22732051Y-19000000D01*
X19585786Y-16585786D02*
X19267949Y-17000000D01*
X-23000000Y-18000000D02*
X-22931852Y-18517638D01*
X22414214Y-16585786D02*
X22000000Y-16267949D01*
X21517638Y-16068148D02*
X21000000Y-16000000D01*
X-22414214Y-16585786D02*
X-22732051Y-17000000D01*
X-22000000Y-16267949D02*
X-22414214Y-16585786D01*
X-19585786Y-16585786D02*
X-20000000Y-16267949D01*
X-22931852Y-17482362D02*
X-23000000Y-18000000D01*
X21000000Y16000000D02*
X21517638Y16068148D01*
X19267949Y-19000000D02*
X19585786Y-19414214D01*
X19267949Y17000000D02*
X19585786Y16585786D01*
X21517638Y-19931852D02*
X22000000Y-19732051D01*
X19585786Y16585786D02*
X20000000Y16267949D01*
X22000000Y16267949D02*
X22414214Y16585786D01*
X20000000Y-19732051D02*
X20482362Y-19931852D01*
X21517638Y16068148D02*
X22000000Y16267949D01*
X20482362Y16068148D02*
X21000000Y16000000D01*
X23000000Y-18000000D02*
X22931852Y-17482362D01*
X22414214Y16585786D02*
X22732051Y17000000D01*
X19000000Y-18000000D02*
X19068148Y-18517638D01*
X22414214Y-19414214D02*
X22732051Y-19000000D01*
X22732051Y17000000D02*
X22931852Y17482362D01*
X22931852Y-17482362D02*
X22732051Y-17000000D01*
X19585786Y-19414214D02*
X20000000Y-19732051D01*
X22931852Y-18517638D02*
X23000000Y-18000000D01*
X22732051Y-19000000D02*
X22931852Y-18517638D01*
X22000000Y-19732051D02*
X22414214Y-19414214D01*
X20482362Y-19931852D02*
X21000000Y-20000000D01*
X19068148Y-18517638D02*
X19267949Y-19000000D01*
X20000000Y16267949D02*
X20482362Y16068148D01*
X21000000Y-20000000D02*
X21517638Y-19931852D01*
X19585786Y19414214D02*
X19267949Y19000000D01*
X15750000Y21700962D02*
X16111771Y21551111D01*
X15439340Y21939340D02*
X15750000Y21700962D01*
X15200962Y22250000D02*
X15439340Y21939340D01*
X15051111Y22611771D02*
X15200962Y22250000D01*
X15000000Y26500000D02*
X15000000Y23000000D01*
X19068148Y17482362D02*
X19267949Y17000000D01*
X19000000Y18000000D02*
X19068148Y17482362D01*
X19267949Y19000000D02*
X19068148Y18517638D01*
X21517638Y19931852D02*
X21000000Y20000000D01*
X20000000Y19732051D02*
X19585786Y19414214D01*
X20482362Y19931852D02*
X20000000Y19732051D01*
X22931852Y18517638D02*
X22732051Y19000000D01*
X21000000Y20000000D02*
X20482362Y19931852D01*
X14948889Y26888229D02*
X15000000Y26500000D01*
X16111771Y21551111D02*
X16500000Y21500000D01*
X23000000Y18000000D02*
X22931852Y18517638D01*
X22931852Y17482362D02*
X23000000Y18000000D01*
X22000000Y19732051D02*
X21517638Y19931852D01*
X22732051Y19000000D02*
X22414214Y19414214D01*
X22414214Y19414214D02*
X22000000Y19732051D01*
X15000000Y23000000D02*
X15051111Y22611771D01*
X19068148Y18517638D02*
X19000000Y18000000D01*
X-16111771Y21551111D02*
X-15750000Y21700962D01*
X-27060660Y21060660D02*
X-26750000Y21299038D01*
X-26750000Y21299038D02*
X-26388229Y21448889D01*
X-16500000Y21500000D02*
X-16111771Y21551111D01*
X-26388229Y21448889D02*
X-26000000Y21500000D01*
X14560660Y27560660D02*
X14799038Y27250000D01*
X-14799038Y27250000D02*
X-14560660Y27560660D01*
X-15750000Y21700962D02*
X-15439340Y21939340D01*
X14799038Y27250000D02*
X14948889Y26888229D01*
X-14560660Y27560660D02*
X-14250000Y27799038D01*
X14250000Y27799038D02*
X14560660Y27560660D01*
X-13888229Y27948889D02*
X-13500000Y28000000D01*
X13888229Y27948889D02*
X14250000Y27799038D01*
X13500000Y28000000D02*
X13888229Y27948889D01*
X-13500000Y28000000D02*
X13500000Y28000000D01*
X-15439340Y21939340D02*
X-15200962Y22250000D01*
X-14250000Y27799038D02*
X-13888229Y27948889D01*
X-14948889Y26888229D02*
X-14799038Y27250000D01*
X-15051111Y22611771D02*
X-15000000Y23000000D01*
X-26000000Y21500000D02*
X-16500000Y21500000D01*
X-15000000Y26500000D02*
X-14948889Y26888229D01*
X-15200962Y22250000D02*
X-15051111Y22611771D01*
X-15000000Y23000000D02*
X-15000000Y26500000D01*
X-26125928Y-21500000D02*
X-26374078Y-21467330D01*
X-25980218Y-21500000D02*
X-26125928Y-21500000D01*
X-16111771Y-21551111D02*
X-16500000Y-21500000D01*
X-14948889Y-26888229D02*
X-15000000Y-26500000D01*
X-15000000Y-26500000D02*
X-15000000Y-23000000D01*
X-27299038Y20750000D02*
X-27060660Y21060660D01*
X-15000000Y-23000000D02*
X-15051111Y-22611771D01*
X-27500000Y20000000D02*
X-27448889Y20388229D01*
X-27296480Y-20759546D02*
X-27448238Y-20393170D01*
X-27055068Y-21074160D02*
X-27296480Y-20759546D01*
X-15750000Y-21700962D02*
X-16111771Y-21551111D01*
X-26740454Y-21315573D02*
X-27055068Y-21074160D01*
X-15439340Y-21939340D02*
X-15750000Y-21700962D01*
X-15051111Y-22611771D02*
X-15200962Y-22250000D01*
X-27448889Y20388229D02*
X-27299038Y20750000D01*
X-27448238Y-20393170D02*
X-27500000Y-20000000D01*
X-14799038Y-27250000D02*
X-14948889Y-26888229D01*
X-27500000Y-20000000D02*
X-27500000Y19890000D01*
X-27500000Y19890000D02*
X-27500000Y20000000D01*
X-15200962Y-22250000D02*
X-15439340Y-21939340D01*
X-26374078Y-21467330D02*
X-26740454Y-21315573D01*
X-25835888Y-21500000D02*
X-25980218Y-21500000D01*
X-16500000Y-21500000D02*
X-25835888Y-21500000D01*
X14948889Y-26888229D02*
X14799038Y-27250000D01*
X15200962Y-22250000D02*
X15051111Y-22611771D01*
X15000000Y-26500000D02*
X14948889Y-26888229D01*
X15051111Y-22611771D02*
X15000000Y-23000000D01*
X15439340Y-21939340D02*
X15200962Y-22250000D01*
X15750000Y-21700962D02*
X15439340Y-21939340D01*
X27060660Y-21060660D02*
X26750000Y-21299038D01*
X26750000Y-21299038D02*
X26388229Y-21448889D01*
X27299038Y-20750000D02*
X27060660Y-21060660D01*
X26000000Y-21500000D02*
X16500000Y-21500000D01*
X-14560660Y-27560660D02*
X-14799038Y-27250000D01*
X-14250000Y-27799038D02*
X-14560660Y-27560660D01*
X-13888229Y-27948889D02*
X-14250000Y-27799038D01*
X-13500000Y-28000000D02*
X-13888229Y-27948889D01*
X14250000Y-27799038D02*
X13888229Y-27948889D01*
X13888229Y-27948889D02*
X13500000Y-28000000D01*
X14560660Y-27560660D02*
X14250000Y-27799038D01*
X16111771Y-21551111D02*
X15750000Y-21700962D01*
X16500000Y-21500000D02*
X16111771Y-21551111D01*
X26388229Y-21448889D02*
X26000000Y-21500000D01*
X14799038Y-27250000D02*
X14560660Y-27560660D01*
X15000000Y-23000000D02*
X15000000Y-26500000D01*
X13500000Y-28000000D02*
X-13500000Y-28000000D01*
X-19068148Y18517638D02*
X-19267949Y19000000D01*
X-19267949Y17000000D02*
X-19068148Y17482362D01*
X-22000000Y16267949D02*
X-21517638Y16068148D01*
X-21517638Y16068148D02*
X-21000000Y16000000D01*
X-19585786Y16585786D02*
X-19267949Y17000000D01*
X-19068148Y17482362D02*
X-19000000Y18000000D01*
X-19267949Y19000000D02*
X-19585786Y19414214D01*
X-22414214Y16585786D02*
X-22000000Y16267949D01*
X-19000000Y18000000D02*
X-19068148Y18517638D01*
X-20482362Y16068148D02*
X-20000000Y16267949D01*
X-20000000Y16267949D02*
X-19585786Y16585786D01*
X-21000000Y16000000D02*
X-20482362Y16068148D01*
X27448889Y-20388229D02*
X27299038Y-20750000D01*
X27060660Y21060660D02*
X27299038Y20750000D01*
X27500000Y-20000000D02*
X27448889Y-20388229D01*
X27448889Y20388229D02*
X27500000Y20000000D01*
X27500000Y20000000D02*
X27500000Y-20000000D01*
X16500000Y21500000D02*
X26000000Y21500000D01*
X27299038Y20750000D02*
X27448889Y20388229D01*
X26750000Y21299038D02*
X27060660Y21060660D01*
X26388229Y21448889D02*
X26750000Y21299038D01*
X26000000Y21500000D02*
X26388229Y21448889D01*
M02*
