G04 #@! TF.GenerationSoftware,KiCad,Pcbnew,(5.0.2)-1*
G04 #@! TF.CreationDate,2020-11-28T21:44:54+10:00*
G04 #@! TF.ProjectId,trailer leveler,74726169-6c65-4722-906c-6576656c6572,1*
G04 #@! TF.SameCoordinates,Original*
G04 #@! TF.FileFunction,Soldermask,Bot*
G04 #@! TF.FilePolarity,Negative*
%FSLAX46Y46*%
G04 Gerber Fmt 4.6, Leading zero omitted, Abs format (unit mm)*
G04 Created by KiCad (PCBNEW (5.0.2)-1) date 28/11/2020 9:44:54 PM*
%MOMM*%
%LPD*%
G01*
G04 APERTURE LIST*
%ADD10C,0.100000*%
G04 APERTURE END LIST*
D10*
G36*
X-1363000Y-27148500D02*
X-3463000Y-27148500D01*
X-3463000Y-25048500D01*
X-1363000Y-25048500D01*
X-1363000Y-27148500D01*
X-1363000Y-27148500D01*
G37*
G36*
X-4824293Y-25056097D02*
X-4747164Y-25063693D01*
X-4615213Y-25103720D01*
X-4549237Y-25123733D01*
X-4366828Y-25221233D01*
X-4206946Y-25352446D01*
X-4075733Y-25512328D01*
X-3978233Y-25694737D01*
X-3978233Y-25694738D01*
X-3918193Y-25892664D01*
X-3897920Y-26098500D01*
X-3918193Y-26304336D01*
X-3958220Y-26436287D01*
X-3978233Y-26502263D01*
X-4075733Y-26684672D01*
X-4206946Y-26844554D01*
X-4366828Y-26975767D01*
X-4549237Y-27073267D01*
X-4615213Y-27093280D01*
X-4747164Y-27133307D01*
X-4824293Y-27140904D01*
X-4901420Y-27148500D01*
X-5004580Y-27148500D01*
X-5081707Y-27140904D01*
X-5158836Y-27133307D01*
X-5290787Y-27093280D01*
X-5356763Y-27073267D01*
X-5539172Y-26975767D01*
X-5699054Y-26844554D01*
X-5830267Y-26684672D01*
X-5927767Y-26502263D01*
X-5947780Y-26436287D01*
X-5987807Y-26304336D01*
X-6008080Y-26098500D01*
X-5987807Y-25892664D01*
X-5927767Y-25694738D01*
X-5927767Y-25694737D01*
X-5830267Y-25512328D01*
X-5699054Y-25352446D01*
X-5539172Y-25221233D01*
X-5356763Y-25123733D01*
X-5290787Y-25103720D01*
X-5158836Y-25063693D01*
X-5081707Y-25056097D01*
X-5004580Y-25048500D01*
X-4901420Y-25048500D01*
X-4824293Y-25056097D01*
X-4824293Y-25056097D01*
G37*
G36*
X-7364293Y-25056097D02*
X-7287164Y-25063693D01*
X-7155213Y-25103720D01*
X-7089237Y-25123733D01*
X-6906828Y-25221233D01*
X-6746946Y-25352446D01*
X-6615733Y-25512328D01*
X-6518233Y-25694737D01*
X-6518233Y-25694738D01*
X-6458193Y-25892664D01*
X-6437920Y-26098500D01*
X-6458193Y-26304336D01*
X-6498220Y-26436287D01*
X-6518233Y-26502263D01*
X-6615733Y-26684672D01*
X-6746946Y-26844554D01*
X-6906828Y-26975767D01*
X-7089237Y-27073267D01*
X-7155213Y-27093280D01*
X-7287164Y-27133307D01*
X-7364293Y-27140904D01*
X-7441420Y-27148500D01*
X-7544580Y-27148500D01*
X-7621707Y-27140904D01*
X-7698836Y-27133307D01*
X-7830787Y-27093280D01*
X-7896763Y-27073267D01*
X-8079172Y-26975767D01*
X-8239054Y-26844554D01*
X-8370267Y-26684672D01*
X-8467767Y-26502263D01*
X-8487780Y-26436287D01*
X-8527807Y-26304336D01*
X-8548080Y-26098500D01*
X-8527807Y-25892664D01*
X-8467767Y-25694738D01*
X-8467767Y-25694737D01*
X-8370267Y-25512328D01*
X-8239054Y-25352446D01*
X-8079172Y-25221233D01*
X-7896763Y-25123733D01*
X-7830787Y-25103720D01*
X-7698836Y-25063693D01*
X-7621707Y-25056097D01*
X-7544580Y-25048500D01*
X-7441420Y-25048500D01*
X-7364293Y-25056097D01*
X-7364293Y-25056097D01*
G37*
G36*
X-9904293Y-25056097D02*
X-9827164Y-25063693D01*
X-9695213Y-25103720D01*
X-9629237Y-25123733D01*
X-9446828Y-25221233D01*
X-9286946Y-25352446D01*
X-9155733Y-25512328D01*
X-9058233Y-25694737D01*
X-9058233Y-25694738D01*
X-8998193Y-25892664D01*
X-8977920Y-26098500D01*
X-8998193Y-26304336D01*
X-9038220Y-26436287D01*
X-9058233Y-26502263D01*
X-9155733Y-26684672D01*
X-9286946Y-26844554D01*
X-9446828Y-26975767D01*
X-9629237Y-27073267D01*
X-9695213Y-27093280D01*
X-9827164Y-27133307D01*
X-9904293Y-27140904D01*
X-9981420Y-27148500D01*
X-10084580Y-27148500D01*
X-10161707Y-27140904D01*
X-10238836Y-27133307D01*
X-10370787Y-27093280D01*
X-10436763Y-27073267D01*
X-10619172Y-26975767D01*
X-10779054Y-26844554D01*
X-10910267Y-26684672D01*
X-11007767Y-26502263D01*
X-11027780Y-26436287D01*
X-11067807Y-26304336D01*
X-11088080Y-26098500D01*
X-11067807Y-25892664D01*
X-11007767Y-25694738D01*
X-11007767Y-25694737D01*
X-10910267Y-25512328D01*
X-10779054Y-25352446D01*
X-10619172Y-25221233D01*
X-10436763Y-25123733D01*
X-10370787Y-25103720D01*
X-10238836Y-25063693D01*
X-10161707Y-25056097D01*
X-10084580Y-25048500D01*
X-9981420Y-25048500D01*
X-9904293Y-25056097D01*
X-9904293Y-25056097D01*
G37*
G36*
X-12444293Y-25056097D02*
X-12367164Y-25063693D01*
X-12235213Y-25103720D01*
X-12169237Y-25123733D01*
X-11986828Y-25221233D01*
X-11826946Y-25352446D01*
X-11695733Y-25512328D01*
X-11598233Y-25694737D01*
X-11598233Y-25694738D01*
X-11538193Y-25892664D01*
X-11517920Y-26098500D01*
X-11538193Y-26304336D01*
X-11578220Y-26436287D01*
X-11598233Y-26502263D01*
X-11695733Y-26684672D01*
X-11826946Y-26844554D01*
X-11986828Y-26975767D01*
X-12169237Y-27073267D01*
X-12235213Y-27093280D01*
X-12367164Y-27133307D01*
X-12444293Y-27140904D01*
X-12521420Y-27148500D01*
X-12624580Y-27148500D01*
X-12701707Y-27140904D01*
X-12778836Y-27133307D01*
X-12910787Y-27093280D01*
X-12976763Y-27073267D01*
X-13159172Y-26975767D01*
X-13319054Y-26844554D01*
X-13450267Y-26684672D01*
X-13547767Y-26502263D01*
X-13567780Y-26436287D01*
X-13607807Y-26304336D01*
X-13628080Y-26098500D01*
X-13607807Y-25892664D01*
X-13547767Y-25694738D01*
X-13547767Y-25694737D01*
X-13450267Y-25512328D01*
X-13319054Y-25352446D01*
X-13159172Y-25221233D01*
X-12976763Y-25123733D01*
X-12910787Y-25103720D01*
X-12778836Y-25063693D01*
X-12701707Y-25056097D01*
X-12624580Y-25048500D01*
X-12521420Y-25048500D01*
X-12444293Y-25056097D01*
X-12444293Y-25056097D01*
G37*
G36*
X14004000Y-20608000D02*
X11904000Y-20608000D01*
X11904000Y-18508000D01*
X14004000Y-18508000D01*
X14004000Y-20608000D01*
X14004000Y-20608000D01*
G37*
G36*
X10542707Y-18515597D02*
X10619836Y-18523193D01*
X10751787Y-18563220D01*
X10817763Y-18583233D01*
X11000172Y-18680733D01*
X11160054Y-18811946D01*
X11291267Y-18971828D01*
X11388767Y-19154237D01*
X11388767Y-19154238D01*
X11448807Y-19352164D01*
X11469080Y-19558000D01*
X11448807Y-19763836D01*
X11408780Y-19895787D01*
X11388767Y-19961763D01*
X11291267Y-20144172D01*
X11160054Y-20304054D01*
X11000172Y-20435267D01*
X10817763Y-20532767D01*
X10751787Y-20552780D01*
X10619836Y-20592807D01*
X10542707Y-20600403D01*
X10465580Y-20608000D01*
X10362420Y-20608000D01*
X10285293Y-20600403D01*
X10208164Y-20592807D01*
X10076213Y-20552780D01*
X10010237Y-20532767D01*
X9827828Y-20435267D01*
X9667946Y-20304054D01*
X9536733Y-20144172D01*
X9439233Y-19961763D01*
X9419220Y-19895787D01*
X9379193Y-19763836D01*
X9358920Y-19558000D01*
X9379193Y-19352164D01*
X9439233Y-19154238D01*
X9439233Y-19154237D01*
X9536733Y-18971828D01*
X9667946Y-18811946D01*
X9827828Y-18680733D01*
X10010237Y-18583233D01*
X10076213Y-18563220D01*
X10208164Y-18523193D01*
X10285293Y-18515597D01*
X10362420Y-18508000D01*
X10465580Y-18508000D01*
X10542707Y-18515597D01*
X10542707Y-18515597D01*
G37*
G36*
X13082707Y-15975597D02*
X13159836Y-15983193D01*
X13291787Y-16023220D01*
X13357763Y-16043233D01*
X13540172Y-16140733D01*
X13700054Y-16271946D01*
X13831267Y-16431828D01*
X13928767Y-16614237D01*
X13928767Y-16614238D01*
X13988807Y-16812164D01*
X14009080Y-17018000D01*
X13988807Y-17223836D01*
X13948780Y-17355787D01*
X13928767Y-17421763D01*
X13831267Y-17604172D01*
X13700054Y-17764054D01*
X13540172Y-17895267D01*
X13357763Y-17992767D01*
X13291787Y-18012780D01*
X13159836Y-18052807D01*
X13082707Y-18060404D01*
X13005580Y-18068000D01*
X12902420Y-18068000D01*
X12825293Y-18060404D01*
X12748164Y-18052807D01*
X12616213Y-18012780D01*
X12550237Y-17992767D01*
X12367828Y-17895267D01*
X12207946Y-17764054D01*
X12076733Y-17604172D01*
X11979233Y-17421763D01*
X11959220Y-17355787D01*
X11919193Y-17223836D01*
X11898920Y-17018000D01*
X11919193Y-16812164D01*
X11979233Y-16614238D01*
X11979233Y-16614237D01*
X12076733Y-16431828D01*
X12207946Y-16271946D01*
X12367828Y-16140733D01*
X12550237Y-16043233D01*
X12616213Y-16023220D01*
X12748164Y-15983193D01*
X12825293Y-15975597D01*
X12902420Y-15968000D01*
X13005580Y-15968000D01*
X13082707Y-15975597D01*
X13082707Y-15975597D01*
G37*
G36*
X10542707Y-15975597D02*
X10619836Y-15983193D01*
X10751787Y-16023220D01*
X10817763Y-16043233D01*
X11000172Y-16140733D01*
X11160054Y-16271946D01*
X11291267Y-16431828D01*
X11388767Y-16614237D01*
X11388767Y-16614238D01*
X11448807Y-16812164D01*
X11469080Y-17018000D01*
X11448807Y-17223836D01*
X11408780Y-17355787D01*
X11388767Y-17421763D01*
X11291267Y-17604172D01*
X11160054Y-17764054D01*
X11000172Y-17895267D01*
X10817763Y-17992767D01*
X10751787Y-18012780D01*
X10619836Y-18052807D01*
X10542707Y-18060404D01*
X10465580Y-18068000D01*
X10362420Y-18068000D01*
X10285293Y-18060404D01*
X10208164Y-18052807D01*
X10076213Y-18012780D01*
X10010237Y-17992767D01*
X9827828Y-17895267D01*
X9667946Y-17764054D01*
X9536733Y-17604172D01*
X9439233Y-17421763D01*
X9419220Y-17355787D01*
X9379193Y-17223836D01*
X9358920Y-17018000D01*
X9379193Y-16812164D01*
X9439233Y-16614238D01*
X9439233Y-16614237D01*
X9536733Y-16431828D01*
X9667946Y-16271946D01*
X9827828Y-16140733D01*
X10010237Y-16043233D01*
X10076213Y-16023220D01*
X10208164Y-15983193D01*
X10285293Y-15975597D01*
X10362420Y-15968000D01*
X10465580Y-15968000D01*
X10542707Y-15975597D01*
X10542707Y-15975597D01*
G37*
G36*
X10542707Y-13435597D02*
X10619836Y-13443193D01*
X10751787Y-13483220D01*
X10817763Y-13503233D01*
X11000172Y-13600733D01*
X11160054Y-13731946D01*
X11291267Y-13891828D01*
X11388767Y-14074237D01*
X11388767Y-14074238D01*
X11448807Y-14272164D01*
X11469080Y-14478000D01*
X11448807Y-14683836D01*
X11408780Y-14815787D01*
X11388767Y-14881763D01*
X11291267Y-15064172D01*
X11160054Y-15224054D01*
X11000172Y-15355267D01*
X10817763Y-15452767D01*
X10751787Y-15472780D01*
X10619836Y-15512807D01*
X10542707Y-15520404D01*
X10465580Y-15528000D01*
X10362420Y-15528000D01*
X10285293Y-15520404D01*
X10208164Y-15512807D01*
X10076213Y-15472780D01*
X10010237Y-15452767D01*
X9827828Y-15355267D01*
X9667946Y-15224054D01*
X9536733Y-15064172D01*
X9439233Y-14881763D01*
X9419220Y-14815787D01*
X9379193Y-14683836D01*
X9358920Y-14478000D01*
X9379193Y-14272164D01*
X9439233Y-14074238D01*
X9439233Y-14074237D01*
X9536733Y-13891828D01*
X9667946Y-13731946D01*
X9827828Y-13600733D01*
X10010237Y-13503233D01*
X10076213Y-13483220D01*
X10208164Y-13443193D01*
X10285293Y-13435597D01*
X10362420Y-13428000D01*
X10465580Y-13428000D01*
X10542707Y-13435597D01*
X10542707Y-13435597D01*
G37*
G36*
X13082707Y-13435597D02*
X13159836Y-13443193D01*
X13291787Y-13483220D01*
X13357763Y-13503233D01*
X13540172Y-13600733D01*
X13700054Y-13731946D01*
X13831267Y-13891828D01*
X13928767Y-14074237D01*
X13928767Y-14074238D01*
X13988807Y-14272164D01*
X14009080Y-14478000D01*
X13988807Y-14683836D01*
X13948780Y-14815787D01*
X13928767Y-14881763D01*
X13831267Y-15064172D01*
X13700054Y-15224054D01*
X13540172Y-15355267D01*
X13357763Y-15452767D01*
X13291787Y-15472780D01*
X13159836Y-15512807D01*
X13082707Y-15520404D01*
X13005580Y-15528000D01*
X12902420Y-15528000D01*
X12825293Y-15520404D01*
X12748164Y-15512807D01*
X12616213Y-15472780D01*
X12550237Y-15452767D01*
X12367828Y-15355267D01*
X12207946Y-15224054D01*
X12076733Y-15064172D01*
X11979233Y-14881763D01*
X11959220Y-14815787D01*
X11919193Y-14683836D01*
X11898920Y-14478000D01*
X11919193Y-14272164D01*
X11979233Y-14074238D01*
X11979233Y-14074237D01*
X12076733Y-13891828D01*
X12207946Y-13731946D01*
X12367828Y-13600733D01*
X12550237Y-13503233D01*
X12616213Y-13483220D01*
X12748164Y-13443193D01*
X12825293Y-13435597D01*
X12902420Y-13428000D01*
X13005580Y-13428000D01*
X13082707Y-13435597D01*
X13082707Y-13435597D01*
G37*
G36*
X-23194740Y-12743293D02*
X-23112845Y-12777215D01*
X-23039139Y-12826464D01*
X-22976464Y-12889139D01*
X-22927215Y-12962845D01*
X-22893293Y-13044740D01*
X-22876000Y-13131678D01*
X-22876000Y-13220322D01*
X-22893293Y-13307260D01*
X-22927215Y-13389155D01*
X-22976464Y-13462861D01*
X-23039139Y-13525536D01*
X-23112845Y-13574785D01*
X-23194740Y-13608707D01*
X-23281678Y-13626000D01*
X-23370322Y-13626000D01*
X-23457260Y-13608707D01*
X-23539155Y-13574785D01*
X-23612861Y-13525536D01*
X-23675536Y-13462861D01*
X-23724785Y-13389155D01*
X-23758707Y-13307260D01*
X-23776000Y-13220322D01*
X-23776000Y-13131678D01*
X-23758707Y-13044740D01*
X-23724785Y-12962845D01*
X-23675536Y-12889139D01*
X-23612861Y-12826464D01*
X-23539155Y-12777215D01*
X-23457260Y-12743293D01*
X-23370322Y-12726000D01*
X-23281678Y-12726000D01*
X-23194740Y-12743293D01*
X-23194740Y-12743293D01*
G37*
G36*
X12066707Y-7847596D02*
X12143836Y-7855193D01*
X12275787Y-7895220D01*
X12341763Y-7915233D01*
X12524172Y-8012733D01*
X12684054Y-8143946D01*
X12815267Y-8303828D01*
X12912767Y-8486237D01*
X12912767Y-8486238D01*
X12972807Y-8684164D01*
X12993080Y-8890000D01*
X12972807Y-9095836D01*
X12961934Y-9131678D01*
X12912767Y-9293763D01*
X12815267Y-9476172D01*
X12684054Y-9636054D01*
X12524172Y-9767267D01*
X12341763Y-9864767D01*
X12275787Y-9884780D01*
X12143836Y-9924807D01*
X12066707Y-9932403D01*
X11989580Y-9940000D01*
X11886420Y-9940000D01*
X11809293Y-9932403D01*
X11732164Y-9924807D01*
X11600213Y-9884780D01*
X11534237Y-9864767D01*
X11351828Y-9767267D01*
X11191946Y-9636054D01*
X11060733Y-9476172D01*
X10963233Y-9293763D01*
X10914066Y-9131678D01*
X10903193Y-9095836D01*
X10882920Y-8890000D01*
X10903193Y-8684164D01*
X10963233Y-8486238D01*
X10963233Y-8486237D01*
X11060733Y-8303828D01*
X11191946Y-8143946D01*
X11351828Y-8012733D01*
X11534237Y-7915233D01*
X11600213Y-7895220D01*
X11732164Y-7855193D01*
X11809293Y-7847596D01*
X11886420Y-7840000D01*
X11989580Y-7840000D01*
X12066707Y-7847596D01*
X12066707Y-7847596D01*
G37*
G36*
X-23194740Y-8743293D02*
X-23112845Y-8777215D01*
X-23039139Y-8826464D01*
X-22976464Y-8889139D01*
X-22927215Y-8962845D01*
X-22893293Y-9044740D01*
X-22876000Y-9131678D01*
X-22876000Y-9220322D01*
X-22893293Y-9307260D01*
X-22927215Y-9389155D01*
X-22976464Y-9462861D01*
X-23039139Y-9525536D01*
X-23112845Y-9574785D01*
X-23194740Y-9608707D01*
X-23281678Y-9626000D01*
X-23370322Y-9626000D01*
X-23457260Y-9608707D01*
X-23539155Y-9574785D01*
X-23612861Y-9525536D01*
X-23675536Y-9462861D01*
X-23724785Y-9389155D01*
X-23758707Y-9307260D01*
X-23776000Y-9220322D01*
X-23776000Y-9131678D01*
X-23758707Y-9044740D01*
X-23724785Y-8962845D01*
X-23675536Y-8889139D01*
X-23612861Y-8826464D01*
X-23539155Y-8777215D01*
X-23457260Y-8743293D01*
X-23370322Y-8726000D01*
X-23281678Y-8726000D01*
X-23194740Y-8743293D01*
X-23194740Y-8743293D01*
G37*
G36*
X12066707Y-5307596D02*
X12143836Y-5315193D01*
X12275787Y-5355220D01*
X12341763Y-5375233D01*
X12524172Y-5472733D01*
X12684054Y-5603946D01*
X12815267Y-5763828D01*
X12912767Y-5946237D01*
X12912767Y-5946238D01*
X12972807Y-6144164D01*
X12993080Y-6350000D01*
X12972807Y-6555836D01*
X12932780Y-6687787D01*
X12912767Y-6753763D01*
X12815267Y-6936172D01*
X12684054Y-7096054D01*
X12524172Y-7227267D01*
X12341763Y-7324767D01*
X12275787Y-7344780D01*
X12143836Y-7384807D01*
X12066707Y-7392404D01*
X11989580Y-7400000D01*
X11886420Y-7400000D01*
X11809293Y-7392404D01*
X11732164Y-7384807D01*
X11600213Y-7344780D01*
X11534237Y-7324767D01*
X11351828Y-7227267D01*
X11191946Y-7096054D01*
X11060733Y-6936172D01*
X10963233Y-6753763D01*
X10943220Y-6687787D01*
X10903193Y-6555836D01*
X10882920Y-6350000D01*
X10903193Y-6144164D01*
X10963233Y-5946238D01*
X10963233Y-5946237D01*
X11060733Y-5763828D01*
X11191946Y-5603946D01*
X11351828Y-5472733D01*
X11534237Y-5375233D01*
X11600213Y-5355220D01*
X11732164Y-5315193D01*
X11809293Y-5307596D01*
X11886420Y-5300000D01*
X11989580Y-5300000D01*
X12066707Y-5307596D01*
X12066707Y-5307596D01*
G37*
G36*
X12066707Y-2767597D02*
X12143836Y-2775193D01*
X12275787Y-2815220D01*
X12341763Y-2835233D01*
X12524172Y-2932733D01*
X12684054Y-3063946D01*
X12815267Y-3223828D01*
X12912767Y-3406237D01*
X12912767Y-3406238D01*
X12972807Y-3604164D01*
X12993080Y-3810000D01*
X12972807Y-4015836D01*
X12932780Y-4147787D01*
X12912767Y-4213763D01*
X12815267Y-4396172D01*
X12684054Y-4556054D01*
X12524172Y-4687267D01*
X12341763Y-4784767D01*
X12275787Y-4804780D01*
X12143836Y-4844807D01*
X12066707Y-4852404D01*
X11989580Y-4860000D01*
X11886420Y-4860000D01*
X11809293Y-4852404D01*
X11732164Y-4844807D01*
X11600213Y-4804780D01*
X11534237Y-4784767D01*
X11351828Y-4687267D01*
X11191946Y-4556054D01*
X11060733Y-4396172D01*
X10963233Y-4213763D01*
X10943220Y-4147787D01*
X10903193Y-4015836D01*
X10882920Y-3810000D01*
X10903193Y-3604164D01*
X10963233Y-3406238D01*
X10963233Y-3406237D01*
X11060733Y-3223828D01*
X11191946Y-3063946D01*
X11351828Y-2932733D01*
X11534237Y-2835233D01*
X11600213Y-2815220D01*
X11732164Y-2775193D01*
X11809293Y-2767597D01*
X11886420Y-2760000D01*
X11989580Y-2760000D01*
X12066707Y-2767597D01*
X12066707Y-2767597D01*
G37*
G36*
X12066707Y-227597D02*
X12143836Y-235193D01*
X12275787Y-275220D01*
X12341763Y-295233D01*
X12524172Y-392733D01*
X12684054Y-523946D01*
X12815267Y-683828D01*
X12912767Y-866237D01*
X12912767Y-866238D01*
X12972807Y-1064164D01*
X12993080Y-1270000D01*
X12972807Y-1475836D01*
X12932780Y-1607787D01*
X12912767Y-1673763D01*
X12815267Y-1856172D01*
X12684054Y-2016054D01*
X12524172Y-2147267D01*
X12341763Y-2244767D01*
X12275787Y-2264780D01*
X12143836Y-2304807D01*
X12066707Y-2312403D01*
X11989580Y-2320000D01*
X11886420Y-2320000D01*
X11809293Y-2312404D01*
X11732164Y-2304807D01*
X11600213Y-2264780D01*
X11534237Y-2244767D01*
X11351828Y-2147267D01*
X11191946Y-2016054D01*
X11060733Y-1856172D01*
X10963233Y-1673763D01*
X10943220Y-1607787D01*
X10903193Y-1475836D01*
X10882920Y-1270000D01*
X10903193Y-1064164D01*
X10963233Y-866238D01*
X10963233Y-866237D01*
X11060733Y-683828D01*
X11191946Y-523946D01*
X11351828Y-392733D01*
X11534237Y-295233D01*
X11600213Y-275220D01*
X11732164Y-235193D01*
X11809293Y-227597D01*
X11886420Y-220000D01*
X11989580Y-220000D01*
X12066707Y-227597D01*
X12066707Y-227597D01*
G37*
G36*
X12066707Y2312403D02*
X12143836Y2304807D01*
X12275787Y2264780D01*
X12341763Y2244767D01*
X12524172Y2147267D01*
X12684054Y2016054D01*
X12815267Y1856172D01*
X12912767Y1673763D01*
X12912767Y1673762D01*
X12972807Y1475836D01*
X12993080Y1270000D01*
X12972807Y1064164D01*
X12932780Y932213D01*
X12912767Y866237D01*
X12815267Y683828D01*
X12684054Y523946D01*
X12524172Y392733D01*
X12341763Y295233D01*
X12275787Y275220D01*
X12143836Y235193D01*
X12066707Y227597D01*
X11989580Y220000D01*
X11886420Y220000D01*
X11809293Y227597D01*
X11732164Y235193D01*
X11600213Y275220D01*
X11534237Y295233D01*
X11351828Y392733D01*
X11191946Y523946D01*
X11060733Y683828D01*
X10963233Y866237D01*
X10943220Y932213D01*
X10903193Y1064164D01*
X10882920Y1270000D01*
X10903193Y1475836D01*
X10963233Y1673762D01*
X10963233Y1673763D01*
X11060733Y1856172D01*
X11191946Y2016054D01*
X11351828Y2147267D01*
X11534237Y2244767D01*
X11600213Y2264780D01*
X11732164Y2304807D01*
X11809293Y2312404D01*
X11886420Y2320000D01*
X11989580Y2320000D01*
X12066707Y2312403D01*
X12066707Y2312403D01*
G37*
G36*
X12066707Y4852404D02*
X12143836Y4844807D01*
X12275787Y4804780D01*
X12341763Y4784767D01*
X12524172Y4687267D01*
X12684054Y4556054D01*
X12815267Y4396172D01*
X12912767Y4213763D01*
X12912767Y4213762D01*
X12972807Y4015836D01*
X12993080Y3810000D01*
X12972807Y3604164D01*
X12932780Y3472213D01*
X12912767Y3406237D01*
X12815267Y3223828D01*
X12684054Y3063946D01*
X12524172Y2932733D01*
X12341763Y2835233D01*
X12275787Y2815220D01*
X12143836Y2775193D01*
X12066707Y2767597D01*
X11989580Y2760000D01*
X11886420Y2760000D01*
X11809293Y2767597D01*
X11732164Y2775193D01*
X11600213Y2815220D01*
X11534237Y2835233D01*
X11351828Y2932733D01*
X11191946Y3063946D01*
X11060733Y3223828D01*
X10963233Y3406237D01*
X10943220Y3472213D01*
X10903193Y3604164D01*
X10882920Y3810000D01*
X10903193Y4015836D01*
X10963233Y4213762D01*
X10963233Y4213763D01*
X11060733Y4396172D01*
X11191946Y4556054D01*
X11351828Y4687267D01*
X11534237Y4784767D01*
X11600213Y4804780D01*
X11732164Y4844807D01*
X11809293Y4852404D01*
X11886420Y4860000D01*
X11989580Y4860000D01*
X12066707Y4852404D01*
X12066707Y4852404D01*
G37*
G36*
X12066707Y7392404D02*
X12143836Y7384807D01*
X12275787Y7344780D01*
X12341763Y7324767D01*
X12524172Y7227267D01*
X12684054Y7096054D01*
X12815267Y6936172D01*
X12912767Y6753763D01*
X12912767Y6753762D01*
X12972807Y6555836D01*
X12993080Y6350000D01*
X12972807Y6144164D01*
X12932780Y6012213D01*
X12912767Y5946237D01*
X12815267Y5763828D01*
X12684054Y5603946D01*
X12524172Y5472733D01*
X12341763Y5375233D01*
X12275787Y5355220D01*
X12143836Y5315193D01*
X12066707Y5307596D01*
X11989580Y5300000D01*
X11886420Y5300000D01*
X11809293Y5307596D01*
X11732164Y5315193D01*
X11600213Y5355220D01*
X11534237Y5375233D01*
X11351828Y5472733D01*
X11191946Y5603946D01*
X11060733Y5763828D01*
X10963233Y5946237D01*
X10943220Y6012213D01*
X10903193Y6144164D01*
X10882920Y6350000D01*
X10903193Y6555836D01*
X10963233Y6753762D01*
X10963233Y6753763D01*
X11060733Y6936172D01*
X11191946Y7096054D01*
X11351828Y7227267D01*
X11534237Y7324767D01*
X11600213Y7344780D01*
X11732164Y7384807D01*
X11809293Y7392404D01*
X11886420Y7400000D01*
X11989580Y7400000D01*
X12066707Y7392404D01*
X12066707Y7392404D01*
G37*
G36*
X-25760262Y7901347D02*
X-25718402Y7893021D01*
X-25683755Y7878670D01*
X-25600110Y7844023D01*
X-25493646Y7772886D01*
X-25403114Y7682354D01*
X-25331977Y7575890D01*
X-25282979Y7457597D01*
X-25258000Y7332021D01*
X-25258000Y7203979D01*
X-25282979Y7078403D01*
X-25331977Y6960110D01*
X-25403114Y6853646D01*
X-25493646Y6763114D01*
X-25600110Y6691977D01*
X-25683755Y6657330D01*
X-25718402Y6642979D01*
X-25760262Y6634653D01*
X-25843979Y6618000D01*
X-25972021Y6618000D01*
X-26055738Y6634653D01*
X-26097598Y6642979D01*
X-26132245Y6657330D01*
X-26215890Y6691977D01*
X-26322354Y6763114D01*
X-26412886Y6853646D01*
X-26484023Y6960110D01*
X-26533021Y7078403D01*
X-26558000Y7203979D01*
X-26558000Y7332021D01*
X-26533021Y7457597D01*
X-26484023Y7575890D01*
X-26412886Y7682354D01*
X-26322354Y7772886D01*
X-26215890Y7844023D01*
X-26132245Y7878670D01*
X-26097598Y7893021D01*
X-26055738Y7901347D01*
X-25972021Y7918000D01*
X-25843979Y7918000D01*
X-25760262Y7901347D01*
X-25760262Y7901347D01*
G37*
G36*
X12988000Y7840000D02*
X10888000Y7840000D01*
X10888000Y9940000D01*
X12988000Y9940000D01*
X12988000Y7840000D01*
X12988000Y7840000D01*
G37*
G36*
X25338207Y12091403D02*
X25415336Y12083807D01*
X25547287Y12043780D01*
X25613263Y12023767D01*
X25795672Y11926267D01*
X25955554Y11795054D01*
X26086767Y11635172D01*
X26184267Y11452763D01*
X26184267Y11452762D01*
X26244307Y11254836D01*
X26264580Y11049000D01*
X26244307Y10843164D01*
X26204280Y10711213D01*
X26184267Y10645237D01*
X26086767Y10462828D01*
X25955554Y10302946D01*
X25795672Y10171733D01*
X25613263Y10074233D01*
X25547287Y10054220D01*
X25415336Y10014193D01*
X25338207Y10006596D01*
X25261080Y9999000D01*
X25157920Y9999000D01*
X25080793Y10006596D01*
X25003664Y10014193D01*
X24871713Y10054220D01*
X24805737Y10074233D01*
X24623328Y10171733D01*
X24463446Y10302946D01*
X24332233Y10462828D01*
X24234733Y10645237D01*
X24214720Y10711213D01*
X24174693Y10843164D01*
X24154420Y11049000D01*
X24174693Y11254836D01*
X24234733Y11452762D01*
X24234733Y11452763D01*
X24332233Y11635172D01*
X24463446Y11795054D01*
X24623328Y11926267D01*
X24805737Y12023767D01*
X24871713Y12043780D01*
X25003664Y12083807D01*
X25080793Y12091403D01*
X25157920Y12099000D01*
X25261080Y12099000D01*
X25338207Y12091403D01*
X25338207Y12091403D01*
G37*
G36*
X25338207Y14631404D02*
X25415336Y14623807D01*
X25547287Y14583780D01*
X25613263Y14563767D01*
X25795672Y14466267D01*
X25955554Y14335054D01*
X26086767Y14175172D01*
X26184267Y13992763D01*
X26184267Y13992762D01*
X26244307Y13794836D01*
X26264580Y13589000D01*
X26244307Y13383164D01*
X26204280Y13251213D01*
X26184267Y13185237D01*
X26086767Y13002828D01*
X25955554Y12842946D01*
X25795672Y12711733D01*
X25613263Y12614233D01*
X25547287Y12594220D01*
X25415336Y12554193D01*
X25338207Y12546596D01*
X25261080Y12539000D01*
X25157920Y12539000D01*
X25080793Y12546596D01*
X25003664Y12554193D01*
X24871713Y12594220D01*
X24805737Y12614233D01*
X24623328Y12711733D01*
X24463446Y12842946D01*
X24332233Y13002828D01*
X24234733Y13185237D01*
X24214720Y13251213D01*
X24174693Y13383164D01*
X24154420Y13589000D01*
X24174693Y13794836D01*
X24234733Y13992762D01*
X24234733Y13992763D01*
X24332233Y14175172D01*
X24463446Y14335054D01*
X24623328Y14466267D01*
X24805737Y14563767D01*
X24871713Y14583780D01*
X25003664Y14623807D01*
X25080793Y14631404D01*
X25157920Y14639000D01*
X25261080Y14639000D01*
X25338207Y14631404D01*
X25338207Y14631404D01*
G37*
G36*
X-25760262Y14701347D02*
X-25718402Y14693021D01*
X-25683755Y14678670D01*
X-25600110Y14644023D01*
X-25493646Y14572886D01*
X-25403114Y14482354D01*
X-25331977Y14375890D01*
X-25282979Y14257597D01*
X-25258000Y14132021D01*
X-25258000Y14003979D01*
X-25282979Y13878403D01*
X-25331977Y13760110D01*
X-25403114Y13653646D01*
X-25493646Y13563114D01*
X-25600110Y13491977D01*
X-25683755Y13457330D01*
X-25718402Y13442979D01*
X-25760262Y13434653D01*
X-25843979Y13418000D01*
X-25972021Y13418000D01*
X-26055738Y13434653D01*
X-26097598Y13442979D01*
X-26132245Y13457330D01*
X-26215890Y13491977D01*
X-26322354Y13563114D01*
X-26412886Y13653646D01*
X-26484023Y13760110D01*
X-26533021Y13878403D01*
X-26558000Y14003979D01*
X-26558000Y14132021D01*
X-26533021Y14257597D01*
X-26484023Y14375890D01*
X-26412886Y14482354D01*
X-26322354Y14572886D01*
X-26215890Y14644023D01*
X-26132245Y14678670D01*
X-26097598Y14693021D01*
X-26055738Y14701347D01*
X-25972021Y14718000D01*
X-25843979Y14718000D01*
X-25760262Y14701347D01*
X-25760262Y14701347D01*
G37*
G36*
X25338207Y17171403D02*
X25415336Y17163807D01*
X25547287Y17123780D01*
X25613263Y17103767D01*
X25795672Y17006267D01*
X25955554Y16875054D01*
X26086767Y16715172D01*
X26184267Y16532763D01*
X26184267Y16532762D01*
X26244307Y16334836D01*
X26264580Y16129000D01*
X26244307Y15923164D01*
X26204280Y15791213D01*
X26184267Y15725237D01*
X26086767Y15542828D01*
X25955554Y15382946D01*
X25795672Y15251733D01*
X25613263Y15154233D01*
X25547287Y15134220D01*
X25415336Y15094193D01*
X25338207Y15086597D01*
X25261080Y15079000D01*
X25157920Y15079000D01*
X25080793Y15086597D01*
X25003664Y15094193D01*
X24871713Y15134220D01*
X24805737Y15154233D01*
X24623328Y15251733D01*
X24463446Y15382946D01*
X24332233Y15542828D01*
X24234733Y15725237D01*
X24214720Y15791213D01*
X24174693Y15923164D01*
X24154420Y16129000D01*
X24174693Y16334836D01*
X24234733Y16532762D01*
X24234733Y16532763D01*
X24332233Y16715172D01*
X24463446Y16875054D01*
X24623328Y17006267D01*
X24805737Y17103767D01*
X24871713Y17123780D01*
X25003664Y17163807D01*
X25080793Y17171403D01*
X25157920Y17179000D01*
X25261080Y17179000D01*
X25338207Y17171403D01*
X25338207Y17171403D01*
G37*
G36*
X-12317293Y18822404D02*
X-12240164Y18814807D01*
X-12108213Y18774780D01*
X-12042237Y18754767D01*
X-11859828Y18657267D01*
X-11699946Y18526054D01*
X-11568733Y18366172D01*
X-11471233Y18183763D01*
X-11471233Y18183762D01*
X-11411193Y17985836D01*
X-11390920Y17780000D01*
X-11411193Y17574164D01*
X-11451220Y17442213D01*
X-11471233Y17376237D01*
X-11568733Y17193828D01*
X-11699946Y17033946D01*
X-11859828Y16902733D01*
X-12042237Y16805233D01*
X-12108213Y16785220D01*
X-12240164Y16745193D01*
X-12317293Y16737597D01*
X-12394420Y16730000D01*
X-12497580Y16730000D01*
X-12574707Y16737597D01*
X-12651836Y16745193D01*
X-12783787Y16785220D01*
X-12849763Y16805233D01*
X-13032172Y16902733D01*
X-13192054Y17033946D01*
X-13323267Y17193828D01*
X-13420767Y17376237D01*
X-13440780Y17442213D01*
X-13480807Y17574164D01*
X-13501080Y17780000D01*
X-13480807Y17985836D01*
X-13420767Y18183762D01*
X-13420767Y18183763D01*
X-13323267Y18366172D01*
X-13192054Y18526054D01*
X-13032172Y18657267D01*
X-12849763Y18754767D01*
X-12783787Y18774780D01*
X-12651836Y18814807D01*
X-12574707Y18822404D01*
X-12497580Y18830000D01*
X-12394420Y18830000D01*
X-12317293Y18822404D01*
X-12317293Y18822404D01*
G37*
G36*
X26259500Y17619000D02*
X24159500Y17619000D01*
X24159500Y19719000D01*
X26259500Y19719000D01*
X26259500Y17619000D01*
X26259500Y17619000D01*
G37*
G36*
X-12317293Y21362403D02*
X-12240164Y21354807D01*
X-12108213Y21314780D01*
X-12042237Y21294767D01*
X-11859828Y21197267D01*
X-11699946Y21066054D01*
X-11568733Y20906172D01*
X-11471233Y20723763D01*
X-11471233Y20723762D01*
X-11411193Y20525836D01*
X-11390920Y20320000D01*
X-11411193Y20114164D01*
X-11451220Y19982213D01*
X-11471233Y19916237D01*
X-11568733Y19733828D01*
X-11699946Y19573946D01*
X-11859828Y19442733D01*
X-12042237Y19345233D01*
X-12108213Y19325220D01*
X-12240164Y19285193D01*
X-12317293Y19277596D01*
X-12394420Y19270000D01*
X-12497580Y19270000D01*
X-12574707Y19277596D01*
X-12651836Y19285193D01*
X-12783787Y19325220D01*
X-12849763Y19345233D01*
X-13032172Y19442733D01*
X-13192054Y19573946D01*
X-13323267Y19733828D01*
X-13420767Y19916237D01*
X-13440780Y19982213D01*
X-13480807Y20114164D01*
X-13501080Y20320000D01*
X-13480807Y20525836D01*
X-13420767Y20723762D01*
X-13420767Y20723763D01*
X-13323267Y20906172D01*
X-13192054Y21066054D01*
X-13032172Y21197267D01*
X-12849763Y21294767D01*
X-12783787Y21314780D01*
X-12651836Y21354807D01*
X-12574707Y21362403D01*
X-12497580Y21370000D01*
X-12394420Y21370000D01*
X-12317293Y21362403D01*
X-12317293Y21362403D01*
G37*
G36*
X-12317293Y23902403D02*
X-12240164Y23894807D01*
X-12108213Y23854780D01*
X-12042237Y23834767D01*
X-11859828Y23737267D01*
X-11699946Y23606054D01*
X-11568733Y23446172D01*
X-11471233Y23263763D01*
X-11471233Y23263762D01*
X-11411193Y23065836D01*
X-11390920Y22860000D01*
X-11411193Y22654164D01*
X-11451220Y22522213D01*
X-11471233Y22456237D01*
X-11568733Y22273828D01*
X-11699946Y22113946D01*
X-11859828Y21982733D01*
X-12042237Y21885233D01*
X-12108213Y21865220D01*
X-12240164Y21825193D01*
X-12317293Y21817596D01*
X-12394420Y21810000D01*
X-12497580Y21810000D01*
X-12574707Y21817596D01*
X-12651836Y21825193D01*
X-12783787Y21865220D01*
X-12849763Y21885233D01*
X-13032172Y21982733D01*
X-13192054Y22113946D01*
X-13323267Y22273828D01*
X-13420767Y22456237D01*
X-13440780Y22522213D01*
X-13480807Y22654164D01*
X-13501080Y22860000D01*
X-13480807Y23065836D01*
X-13420767Y23263762D01*
X-13420767Y23263763D01*
X-13323267Y23446172D01*
X-13192054Y23606054D01*
X-13032172Y23737267D01*
X-12849763Y23834767D01*
X-12783787Y23854780D01*
X-12651836Y23894807D01*
X-12574707Y23902403D01*
X-12497580Y23910000D01*
X-12394420Y23910000D01*
X-12317293Y23902403D01*
X-12317293Y23902403D01*
G37*
G36*
X-11396000Y24350000D02*
X-13496000Y24350000D01*
X-13496000Y26450000D01*
X-11396000Y26450000D01*
X-11396000Y24350000D01*
X-11396000Y24350000D01*
G37*
M02*
