G04 #@! TF.GenerationSoftware,KiCad,Pcbnew,(5.0.2)-1*
G04 #@! TF.CreationDate,2020-11-28T21:44:54+10:00*
G04 #@! TF.ProjectId,trailer leveler,74726169-6c65-4722-906c-6576656c6572,1*
G04 #@! TF.SameCoordinates,Original*
G04 #@! TF.FileFunction,Legend,Bot*
G04 #@! TF.FilePolarity,Positive*
%FSLAX46Y46*%
G04 Gerber Fmt 4.6, Leading zero omitted, Abs format (unit mm)*
G04 Created by KiCad (PCBNEW (5.0.2)-1) date 28/11/2020 9:44:54 PM*
%MOMM*%
%LPD*%
G01*
G04 APERTURE LIST*
%ADD10C,0.300000*%
G04 APERTURE END LIST*
D10*
X-23559428Y11785714D02*
X-23559428Y10928571D01*
X-22059428Y11357142D02*
X-23559428Y11357142D01*
X-22059428Y10428571D02*
X-23059428Y10428571D01*
X-22773714Y10428571D02*
X-22916571Y10357142D01*
X-22988000Y10285714D01*
X-23059428Y10142857D01*
X-23059428Y9999999D01*
X-22059428Y8857142D02*
X-22845142Y8857142D01*
X-22988000Y8928571D01*
X-23059428Y9071428D01*
X-23059428Y9357142D01*
X-22988000Y9499999D01*
X-22130857Y8857142D02*
X-22059428Y8999999D01*
X-22059428Y9357142D01*
X-22130857Y9499999D01*
X-22273714Y9571428D01*
X-22416571Y9571428D01*
X-22559428Y9499999D01*
X-22630857Y9357142D01*
X-22630857Y8999999D01*
X-22702285Y8857142D01*
X-22059428Y8142857D02*
X-23059428Y8142857D01*
X-23559428Y8142857D02*
X-23488000Y8214285D01*
X-23416571Y8142857D01*
X-23488000Y8071428D01*
X-23559428Y8142857D01*
X-23416571Y8142857D01*
X-22059428Y7214285D02*
X-22130857Y7357142D01*
X-22273714Y7428571D01*
X-23559428Y7428571D01*
X-22130857Y6071428D02*
X-22059428Y6214285D01*
X-22059428Y6499999D01*
X-22130857Y6642857D01*
X-22273714Y6714285D01*
X-22845142Y6714285D01*
X-22988000Y6642857D01*
X-23059428Y6499999D01*
X-23059428Y6214285D01*
X-22988000Y6071428D01*
X-22845142Y5999999D01*
X-22702285Y5999999D01*
X-22559428Y6714285D01*
X-22059428Y5357142D02*
X-23059428Y5357142D01*
X-22773714Y5357142D02*
X-22916571Y5285714D01*
X-22988000Y5214285D01*
X-23059428Y5071428D01*
X-23059428Y4928571D01*
X-22059428Y2571428D02*
X-22059428Y3285714D01*
X-23559428Y3285714D01*
X-22130857Y1499999D02*
X-22059428Y1642857D01*
X-22059428Y1928571D01*
X-22130857Y2071428D01*
X-22273714Y2142857D01*
X-22845142Y2142857D01*
X-22988000Y2071428D01*
X-23059428Y1928571D01*
X-23059428Y1642857D01*
X-22988000Y1499999D01*
X-22845142Y1428571D01*
X-22702285Y1428571D01*
X-22559428Y2142857D01*
X-23059428Y928571D02*
X-22059428Y571428D01*
X-23059428Y214285D01*
X-22130857Y-928571D02*
X-22059428Y-785714D01*
X-22059428Y-500000D01*
X-22130857Y-357142D01*
X-22273714Y-285714D01*
X-22845142Y-285714D01*
X-22988000Y-357142D01*
X-23059428Y-500000D01*
X-23059428Y-785714D01*
X-22988000Y-928571D01*
X-22845142Y-1000000D01*
X-22702285Y-1000000D01*
X-22559428Y-285714D01*
X-22059428Y-1857142D02*
X-22130857Y-1714285D01*
X-22273714Y-1642857D01*
X-23559428Y-1642857D01*
X-22130857Y-3000000D02*
X-22059428Y-2857142D01*
X-22059428Y-2571428D01*
X-22130857Y-2428571D01*
X-22273714Y-2357142D01*
X-22845142Y-2357142D01*
X-22988000Y-2428571D01*
X-23059428Y-2571428D01*
X-23059428Y-2857142D01*
X-22988000Y-3000000D01*
X-22845142Y-3071428D01*
X-22702285Y-3071428D01*
X-22559428Y-2357142D01*
X-22059428Y-3714285D02*
X-23059428Y-3714285D01*
X-22773714Y-3714285D02*
X-22916571Y-3785714D01*
X-22988000Y-3857142D01*
X-23059428Y-4000000D01*
X-23059428Y-4142857D01*
X-22059428Y-6642857D02*
X-22773714Y-6142857D01*
X-22059428Y-5785714D02*
X-23559428Y-5785714D01*
X-23559428Y-6357142D01*
X-23488000Y-6500000D01*
X-23416571Y-6571428D01*
X-23273714Y-6642857D01*
X-23059428Y-6642857D01*
X-22916571Y-6571428D01*
X-22845142Y-6500000D01*
X-22773714Y-6357142D01*
X-22773714Y-5785714D01*
X-22130857Y-7857142D02*
X-22059428Y-7714285D01*
X-22059428Y-7428571D01*
X-22130857Y-7285714D01*
X-22273714Y-7214285D01*
X-22845142Y-7214285D01*
X-22988000Y-7285714D01*
X-23059428Y-7428571D01*
X-23059428Y-7714285D01*
X-22988000Y-7857142D01*
X-22845142Y-7928571D01*
X-22702285Y-7928571D01*
X-22559428Y-7214285D01*
X-23059428Y-8428571D02*
X-22059428Y-8785714D01*
X-23059428Y-9142857D01*
X-22059428Y-11642857D02*
X-22059428Y-10785714D01*
X-22059428Y-11214285D02*
X-23559428Y-11214285D01*
X-23345142Y-11071428D01*
X-23202285Y-10928571D01*
X-23130857Y-10785714D01*
X-19509428Y13999999D02*
X-21009428Y13999999D01*
X-21009428Y13642857D01*
X-20938000Y13428571D01*
X-20795142Y13285714D01*
X-20652285Y13214285D01*
X-20366571Y13142857D01*
X-20152285Y13142857D01*
X-19866571Y13214285D01*
X-19723714Y13285714D01*
X-19580857Y13428571D01*
X-19509428Y13642857D01*
X-19509428Y13999999D01*
X-19580857Y11928571D02*
X-19509428Y12071428D01*
X-19509428Y12357142D01*
X-19580857Y12499999D01*
X-19723714Y12571428D01*
X-20295142Y12571428D01*
X-20438000Y12499999D01*
X-20509428Y12357142D01*
X-20509428Y12071428D01*
X-20438000Y11928571D01*
X-20295142Y11857142D01*
X-20152285Y11857142D01*
X-20009428Y12571428D01*
X-19580857Y11285714D02*
X-19509428Y11142857D01*
X-19509428Y10857142D01*
X-19580857Y10714285D01*
X-19723714Y10642857D01*
X-19795142Y10642857D01*
X-19938000Y10714285D01*
X-20009428Y10857142D01*
X-20009428Y11071428D01*
X-20080857Y11214285D01*
X-20223714Y11285714D01*
X-20295142Y11285714D01*
X-20438000Y11214285D01*
X-20509428Y11071428D01*
X-20509428Y10857142D01*
X-20438000Y10714285D01*
X-19509428Y9999999D02*
X-20509428Y9999999D01*
X-21009428Y9999999D02*
X-20938000Y10071428D01*
X-20866571Y9999999D01*
X-20938000Y9928571D01*
X-21009428Y9999999D01*
X-20866571Y9999999D01*
X-20509428Y8642857D02*
X-19295142Y8642857D01*
X-19152285Y8714285D01*
X-19080857Y8785714D01*
X-19009428Y8928571D01*
X-19009428Y9142857D01*
X-19080857Y9285714D01*
X-19580857Y8642857D02*
X-19509428Y8785714D01*
X-19509428Y9071428D01*
X-19580857Y9214285D01*
X-19652285Y9285714D01*
X-19795142Y9357142D01*
X-20223714Y9357142D01*
X-20366571Y9285714D01*
X-20438000Y9214285D01*
X-20509428Y9071428D01*
X-20509428Y8785714D01*
X-20438000Y8642857D01*
X-20509428Y7928571D02*
X-19509428Y7928571D01*
X-20366571Y7928571D02*
X-20438000Y7857142D01*
X-20509428Y7714285D01*
X-20509428Y7499999D01*
X-20438000Y7357142D01*
X-20295142Y7285714D01*
X-19509428Y7285714D01*
X-19580857Y5999999D02*
X-19509428Y6142857D01*
X-19509428Y6428571D01*
X-19580857Y6571428D01*
X-19723714Y6642857D01*
X-20295142Y6642857D01*
X-20438000Y6571428D01*
X-20509428Y6428571D01*
X-20509428Y6142857D01*
X-20438000Y5999999D01*
X-20295142Y5928571D01*
X-20152285Y5928571D01*
X-20009428Y6642857D01*
X-19509428Y4642857D02*
X-21009428Y4642857D01*
X-19580857Y4642857D02*
X-19509428Y4785714D01*
X-19509428Y5071428D01*
X-19580857Y5214285D01*
X-19652285Y5285714D01*
X-19795142Y5357142D01*
X-20223714Y5357142D01*
X-20366571Y5285714D01*
X-20438000Y5214285D01*
X-20509428Y5071428D01*
X-20509428Y4785714D01*
X-20438000Y4642857D01*
X-20295142Y2285714D02*
X-20223714Y2071428D01*
X-20152285Y1999999D01*
X-20009428Y1928571D01*
X-19795142Y1928571D01*
X-19652285Y1999999D01*
X-19580857Y2071428D01*
X-19509428Y2214285D01*
X-19509428Y2785714D01*
X-21009428Y2785714D01*
X-21009428Y2285714D01*
X-20938000Y2142857D01*
X-20866571Y2071428D01*
X-20723714Y1999999D01*
X-20580857Y1999999D01*
X-20438000Y2071428D01*
X-20366571Y2142857D01*
X-20295142Y2285714D01*
X-20295142Y2785714D01*
X-20509428Y1428571D02*
X-19509428Y1071428D01*
X-20509428Y714285D02*
X-19509428Y1071428D01*
X-19152285Y1214285D01*
X-19080857Y1285714D01*
X-19009428Y1428571D01*
X-19509428Y-1000000D02*
X-21009428Y-1000000D01*
X-19509428Y-1857142D02*
X-20366571Y-1214285D01*
X-21009428Y-1857142D02*
X-20152285Y-1000000D01*
X-19509428Y-3142857D02*
X-20295142Y-3142857D01*
X-20438000Y-3071428D01*
X-20509428Y-2928571D01*
X-20509428Y-2642857D01*
X-20438000Y-2500000D01*
X-19580857Y-3142857D02*
X-19509428Y-3000000D01*
X-19509428Y-2642857D01*
X-19580857Y-2500000D01*
X-19723714Y-2428571D01*
X-19866571Y-2428571D01*
X-20009428Y-2500000D01*
X-20080857Y-2642857D01*
X-20080857Y-3000000D01*
X-20152285Y-3142857D01*
X-20509428Y-3857142D02*
X-19509428Y-3857142D01*
X-20366571Y-3857142D02*
X-20438000Y-3928571D01*
X-20509428Y-4071428D01*
X-20509428Y-4285714D01*
X-20438000Y-4428571D01*
X-20295142Y-4500000D01*
X-19509428Y-4500000D01*
X-19580857Y-5785714D02*
X-19509428Y-5642857D01*
X-19509428Y-5357142D01*
X-19580857Y-5214285D01*
X-19723714Y-5142857D01*
X-20295142Y-5142857D01*
X-20438000Y-5214285D01*
X-20509428Y-5357142D01*
X-20509428Y-5642857D01*
X-20438000Y-5785714D01*
X-20295142Y-5857142D01*
X-20152285Y-5857142D01*
X-20009428Y-5142857D01*
X-19580857Y-7571428D02*
X-19509428Y-7785714D01*
X-19509428Y-8142857D01*
X-19580857Y-8285714D01*
X-19652285Y-8357142D01*
X-19795142Y-8428571D01*
X-19938000Y-8428571D01*
X-20080857Y-8357142D01*
X-20152285Y-8285714D01*
X-20223714Y-8142857D01*
X-20295142Y-7857142D01*
X-20366571Y-7714285D01*
X-20438000Y-7642857D01*
X-20580857Y-7571428D01*
X-20723714Y-7571428D01*
X-20866571Y-7642857D01*
X-20938000Y-7714285D01*
X-21009428Y-7857142D01*
X-21009428Y-8214285D01*
X-20938000Y-8428571D01*
X-20509428Y-8857142D02*
X-20509428Y-9428571D01*
X-21009428Y-9071428D02*
X-19723714Y-9071428D01*
X-19580857Y-9142857D01*
X-19509428Y-9285714D01*
X-19509428Y-9428571D01*
X-19509428Y-10142857D02*
X-19580857Y-10000000D01*
X-19652285Y-9928571D01*
X-19795142Y-9857142D01*
X-20223714Y-9857142D01*
X-20366571Y-9928571D01*
X-20438000Y-10000000D01*
X-20509428Y-10142857D01*
X-20509428Y-10357142D01*
X-20438000Y-10500000D01*
X-20366571Y-10571428D01*
X-20223714Y-10642857D01*
X-19795142Y-10642857D01*
X-19652285Y-10571428D01*
X-19580857Y-10500000D01*
X-19509428Y-10357142D01*
X-19509428Y-10142857D01*
X-19509428Y-11285714D02*
X-21009428Y-11285714D01*
X-20438000Y-11285714D02*
X-20509428Y-11428571D01*
X-20509428Y-11714285D01*
X-20438000Y-11857142D01*
X-20366571Y-11928571D01*
X-20223714Y-12000000D01*
X-19795142Y-12000000D01*
X-19652285Y-11928571D01*
X-19580857Y-11857142D01*
X-19509428Y-11714285D01*
X-19509428Y-11428571D01*
X-19580857Y-11285714D01*
X-19509428Y-12857142D02*
X-19580857Y-12714285D01*
X-19652285Y-12642857D01*
X-19795142Y-12571428D01*
X-20223714Y-12571428D01*
X-20366571Y-12642857D01*
X-20438000Y-12714285D01*
X-20509428Y-12857142D01*
X-20509428Y-13071428D01*
X-20438000Y-13214285D01*
X-20366571Y-13285714D01*
X-20223714Y-13357142D01*
X-19795142Y-13357142D01*
X-19652285Y-13285714D01*
X-19580857Y-13214285D01*
X-19509428Y-13071428D01*
X-19509428Y-12857142D01*
X-19509428Y-14000000D02*
X-20509428Y-14000000D01*
X-21009428Y-14000000D02*
X-20938000Y-13928571D01*
X-20866571Y-14000000D01*
X-20938000Y-14071428D01*
X-21009428Y-14000000D01*
X-20866571Y-14000000D01*
M02*
